<svg width="72" height="72" viewBox="0 0 72 72" fill="none" xmlns="http://www.w3.org/2000/svg">
<circle cx="36" cy="36" r="36" fill="white"/>
<mask id="path-2-outside-1_223_247" maskUnits="userSpaceOnUse" x="17" y="12" width="39" height="47" fill="black">
<rect fill="white" x="17" y="12" width="39" height="47"/>
<path d="M51.8335 47.8977C51.6983 46.6885 51.1148 45.5707 50.2041 44.7622C49.9835 44.5724 49.7487 44.4036 49.5068 44.249C49.6918 44.0662 49.8839 43.8764 50.0618 43.6866C53.2424 40.298 55 35.8901 55 31.2854C55 26.6808 53.2496 22.2727 50.0618 18.8843C46.561 15.1442 41.6158 13 36.5 13C31.3842 13 26.4387 15.1442 22.9382 18.8771C19.7576 22.2656 18 26.6736 18 31.2782C18 35.8829 19.7504 40.2909 22.9382 43.6794C23.1232 43.8762 23.3153 44.066 23.5003 44.2488C22.2195 45.0362 21.3301 46.372 21.1665 47.8975L20.8676 50.562C20.7822 51.2931 21.0242 52.0313 21.5222 52.5867C22.0203 53.1421 22.739 53.4585 23.4932 53.4585H28.6377L28.5879 53.8873C28.4669 54.9348 28.8013 55.9823 29.5128 56.7627C30.2244 57.5501 31.2419 58 32.3163 58H40.6981C41.7654 58 42.79 57.5501 43.5015 56.7627C44.213 55.9753 44.5475 54.9278 44.4265 53.8873L44.3767 53.4585H49.5212C50.2754 53.4585 50.9941 53.1421 51.4921 52.5867C51.9902 52.0383 52.225 51.3002 52.1467 50.562L51.8479 47.8975L51.8335 47.8977ZM46.0556 43.56C45.9773 43.5741 45.899 43.5952 45.8208 43.6093C45.6358 43.6514 45.4508 43.6936 45.2729 43.7569C45.1946 43.785 45.1163 43.8061 45.0381 43.8413C44.8388 43.9186 44.6538 44.003 44.4688 44.1084C44.4262 44.1295 44.3764 44.1506 44.3337 44.1787C44.1131 44.3053 43.8996 44.4529 43.7004 44.6146C43.6506 44.6568 43.6008 44.6989 43.551 44.7482C43.4087 44.8747 43.2664 45.0083 43.1383 45.1489C43.0814 45.2122 43.0244 45.2754 42.9746 45.3387C42.8537 45.4863 42.7469 45.634 42.6473 45.7957C42.6046 45.8589 42.569 45.9152 42.5264 45.9784C42.5121 45.9995 42.4979 46.0206 42.4837 46.0487C42.3841 45.9222 42.2773 45.8027 42.1777 45.6832C42.1279 45.6269 42.0852 45.5707 42.0354 45.5215C41.9856 45.4652 41.9287 45.416 41.8717 45.3598C42.5121 44.1857 43.0671 42.7937 43.5154 41.2471C44.0419 42.5618 45.3369 43.4968 46.8525 43.4968C47.0233 43.4968 47.194 43.4827 47.3648 43.4546C47.4146 43.4546 47.4644 43.4405 47.5071 43.4265C47.6352 43.4054 47.7562 43.3773 47.8771 43.3421C47.9198 43.328 47.9625 43.321 48.0123 43.307C48.1617 43.2577 48.3112 43.2015 48.4535 43.1312C48.4819 43.1593 48.5175 43.1945 48.5531 43.2226C48.3965 43.3773 48.2471 43.5249 48.0906 43.6655C48.0052 43.6444 47.9127 43.6303 47.8202 43.6163C47.7491 43.6022 47.6779 43.5882 47.6139 43.5741C47.3648 43.539 47.1158 43.5108 46.8597 43.5108C46.5893 43.5108 46.3189 43.539 46.0556 43.5811L46.0556 43.56ZM40.3204 44.1225C40.1426 44.017 39.9647 43.9186 39.7797 43.8342C39.737 43.8131 39.6872 43.792 39.6445 43.778C39.5022 43.7147 39.3528 43.6514 39.2104 43.5952C39.1393 43.5671 39.0681 43.546 38.997 43.5179C38.8689 43.4757 38.7479 43.4335 38.6199 43.3984C38.5416 43.3773 38.4633 43.3562 38.3851 43.3351C38.257 43.2999 38.1289 43.2718 38.0008 43.2507C37.9226 43.2367 37.8443 43.2226 37.766 43.2085C37.6237 43.1874 37.4885 43.1664 37.3462 43.1523C37.2751 43.1453 37.211 43.1382 37.1399 43.1312C36.9335 43.1171 36.7201 43.1031 36.5066 43.1031C36.2932 43.1031 36.0868 43.1171 35.8734 43.1312C35.8093 43.1312 35.7382 43.1453 35.6741 43.1523C35.5318 43.1664 35.3895 43.1874 35.2472 43.2085C35.1689 43.2226 35.0907 43.2367 35.0195 43.2507C34.8914 43.2788 34.7634 43.307 34.6282 43.3421C34.5499 43.3632 34.4716 43.3843 34.3934 43.4054C34.2653 43.4405 34.1372 43.4827 34.0091 43.5319C33.938 43.56 33.8668 43.5811 33.8028 43.6093C33.6463 43.6725 33.4968 43.7358 33.3403 43.8061C33.3047 43.8272 33.262 43.8413 33.2265 43.8553C33.0415 43.9467 32.8636 44.0451 32.6857 44.1436C32.6216 44.1787 32.5647 44.2209 32.5007 44.2631C32.4153 44.3193 32.3228 44.3685 32.2374 44.4318C31.5116 43.0328 30.9211 41.3104 30.4799 39.384C30.6364 39.3277 30.7859 39.2645 30.9424 39.2082C31.042 39.1731 31.1416 39.1449 31.2412 39.1098C31.3622 39.0676 31.4903 39.0395 31.6184 38.9973C31.6255 39.0184 31.6397 39.0395 31.6539 39.0676C31.6966 39.166 31.7464 39.2574 31.7962 39.3488C31.8745 39.5035 31.9528 39.6581 32.0382 39.7987C32.0951 39.8972 32.1662 39.9815 32.2303 40.0729C32.3228 40.2065 32.4224 40.333 32.5291 40.4526L32.7639 40.7057C32.8778 40.8181 32.9916 40.9236 33.1126 41.022C33.198 41.0923 33.2905 41.1696 33.383 41.2329C33.511 41.3243 33.6462 41.4087 33.7814 41.493C33.881 41.5493 33.9735 41.6126 34.0803 41.6618C34.2297 41.7391 34.3791 41.8024 34.5357 41.8586C34.6353 41.9008 34.7349 41.943 34.8416 41.9781C35.0195 42.0344 35.1974 42.0765 35.3824 42.1187C35.4749 42.1398 35.5603 42.1679 35.6528 42.182C35.9303 42.2242 36.2149 42.2523 36.5066 42.2523C36.7983 42.2523 37.083 42.2242 37.3605 42.182C37.453 42.1679 37.5455 42.1398 37.638 42.1187C37.8159 42.0765 38.0009 42.0414 38.1716 41.9852C38.2784 41.95 38.3851 41.9008 38.4918 41.8586C38.6412 41.8024 38.7836 41.7391 38.9259 41.6688C39.0397 41.6125 39.1464 41.5493 39.2532 41.486C39.3741 41.4087 39.4951 41.3384 39.6161 41.254C39.7228 41.1767 39.8295 41.0923 39.9291 41.0079C40.0288 40.9236 40.1284 40.8322 40.2209 40.7408C40.3205 40.6424 40.4201 40.5369 40.5126 40.4315C40.5909 40.3401 40.6691 40.2416 40.7474 40.1362C40.8328 40.0167 40.9182 39.9042 40.9964 39.7776C41.0676 39.6652 41.1245 39.5527 41.1814 39.4402C41.2455 39.3137 41.3166 39.1941 41.3664 39.0606C41.3736 39.0395 41.3878 39.0254 41.3949 39.0043C41.523 39.0395 41.6511 39.0746 41.772 39.1168C41.8716 39.152 41.9784 39.1801 42.078 39.2152C42.2345 39.2715 42.3839 39.3277 42.5334 39.391C42.0922 41.3102 41.5016 43.0397 40.7758 44.4316C40.6762 44.3613 40.5766 44.3051 40.477 44.2418C40.4272 44.2137 40.3774 44.1785 40.3276 44.1434L40.3204 44.1225ZM30.5579 45.9855C30.5579 45.9855 30.5223 46.0206 30.5081 46.0417C30.5081 46.0417 30.5081 46.0347 30.501 46.0277C30.4156 45.873 30.3089 45.7394 30.2093 45.5988C30.1523 45.5145 30.1025 45.4301 30.0385 45.3527C29.8677 45.1418 29.6756 44.938 29.4764 44.7622C29.3198 44.6216 29.1491 44.4951 28.9783 44.3755L28.9142 44.3334C28.0959 43.792 27.1354 43.4897 26.1464 43.4897C26.0467 43.4897 25.94 43.5038 25.8404 43.5108H25.755C25.5914 43.5249 25.4206 43.546 25.2569 43.5741C25.1929 43.5882 25.1288 43.5952 25.0577 43.6092C25.0079 43.6233 24.9581 43.6233 24.9154 43.6374C24.7588 43.4968 24.6094 43.3491 24.4529 43.1945C24.4813 43.1663 24.5169 43.1312 24.5525 43.1031C24.6948 43.1734 24.8442 43.2296 24.9936 43.2788C25.0363 43.2929 25.079 43.2999 25.1217 43.314C25.2427 43.3491 25.3708 43.3772 25.4988 43.4054C25.5486 43.4124 25.5913 43.4265 25.6411 43.4265C25.8119 43.4475 25.9756 43.4686 26.1535 43.4686C27.669 43.4686 28.964 42.5336 29.4906 41.219C29.9388 42.7656 30.4938 44.1576 31.1342 45.3316L31.0061 45.4582C30.8496 45.6269 30.7073 45.7956 30.565 45.9784L30.5579 45.9855ZM23.4853 20.3814C23.5992 20.4939 23.713 20.5993 23.8269 20.7048L23.834 20.7118C23.9549 20.8384 24.083 20.9579 24.1826 21.0352C24.1969 21.0493 24.2111 21.0563 24.2253 21.0704C24.5171 21.3234 24.8159 21.5765 25.129 21.8085C25.2784 21.928 25.435 22.0405 25.5915 22.153C25.7978 22.3006 26.0113 22.4483 26.2247 22.5889C26.3172 22.6521 26.4097 22.7225 26.5022 22.7857C26.6517 22.8771 26.8011 22.9755 26.9221 23.0458C27.2849 23.2708 27.6478 23.4747 27.9751 23.6364C28.0961 23.7067 28.2171 23.7629 28.338 23.8192C28.4021 23.8543 28.4803 23.8965 28.5657 23.9317C28.6511 23.9738 28.7365 24.009 28.8219 24.0441C28.4234 26.104 28.2028 28.2904 28.1673 30.5682H19.4366C19.5932 26.814 20.9949 23.2428 23.4639 20.3745L23.4853 20.3814ZM48.7592 21.0844C48.7592 21.0844 48.7948 21.0563 48.8161 21.0422C48.9371 20.9368 49.058 20.8313 49.1434 20.747C49.1932 20.7048 49.2359 20.6556 49.2857 20.6134C49.3498 20.5501 49.4209 20.4868 49.485 20.4236C49.485 20.4236 49.4921 20.4236 49.4992 20.4095C49.5063 20.4025 49.5134 20.3954 49.5276 20.3884C51.9967 23.2568 53.3984 26.8279 53.555 30.5822H44.8243C44.7888 28.3044 44.5682 26.1109 44.1697 24.0581C44.2551 24.0229 44.3405 23.9878 44.4259 23.9456C44.5184 23.9105 44.5966 23.8683 44.6536 23.8331C44.7745 23.7769 44.8884 23.7206 44.9738 23.6714C45.3366 23.4957 45.7067 23.2918 46.0411 23.0809C46.1976 22.9965 46.3471 22.8981 46.5036 22.7997C46.5961 22.7364 46.6886 22.6661 46.7811 22.6099C46.9945 22.4693 47.2009 22.3286 47.4072 22.174C47.5638 22.0615 47.7203 21.949 47.8768 21.8295C48.1828 21.5905 48.4816 21.3514 48.7734 21.0913L48.7592 21.0844ZM42.1775 37.746C42.0352 37.6968 41.8929 37.6476 41.7435 37.6054C41.7648 37.4226 41.7719 37.2258 41.7719 37.0289C41.7719 34.5965 40.0642 32.5507 37.7731 31.9811H43.3798C43.3442 34.0691 43.1521 36.0657 42.8035 37.9567C42.711 37.9216 42.6185 37.8934 42.526 37.8583C42.4121 37.8161 42.2912 37.781 42.1702 37.7458L42.1775 37.746ZM30.4728 37.8585C30.3731 37.8937 30.2806 37.9218 30.1881 37.9569C29.8395 36.0658 29.6474 34.0692 29.6118 31.9813H35.2185C32.9274 32.5508 31.2197 34.5966 31.2197 37.0292C31.2197 37.226 31.2268 37.4228 31.2481 37.6056C31.0987 37.6478 30.9564 37.697 30.8141 37.7462C30.7003 37.7814 30.5866 37.8163 30.4728 37.8585ZM24.8588 41.6619C24.2895 41.2611 23.9551 40.6073 23.9551 39.9184C23.9551 38.7302 24.937 37.7671 26.1395 37.7671C26.2676 37.7671 26.3886 37.7741 26.5095 37.7952C27.3563 37.9358 28.0465 38.5615 28.2528 39.4122C28.2955 39.5669 28.3168 39.7426 28.3168 39.9184C28.3168 41.1065 27.342 42.0696 26.1396 42.0696C25.67 42.0696 25.2359 41.929 24.8588 41.6619ZM30.1881 24.5994C30.1881 24.5994 30.2024 24.5994 30.2095 24.6064C30.4585 24.6908 30.7147 24.7821 30.9281 24.8454C31.042 24.8876 31.1558 24.9228 31.2768 24.9509C31.4404 25.0071 31.6183 25.0493 31.7891 25.0915C31.8887 25.1266 31.9883 25.1548 32.1022 25.1688C32.1306 25.1758 32.1662 25.1829 32.1947 25.1899C32.3654 25.2321 32.5433 25.2743 32.707 25.3094C32.835 25.3375 32.9631 25.3516 33.0912 25.3727C33.3402 25.4219 33.5893 25.4641 33.8454 25.4992C34.0162 25.5203 34.1798 25.5485 34.3506 25.5625C34.9768 25.6328 35.6029 25.675 36.2291 25.6891H36.8125C37.4316 25.675 38.0435 25.6398 38.6554 25.5695C38.8191 25.5484 38.9898 25.5274 39.1535 25.5063C39.4097 25.4711 39.6658 25.4219 39.922 25.3727C40.0429 25.3516 40.1639 25.3375 40.2849 25.3094C40.4556 25.2743 40.6335 25.2391 40.8043 25.1899C40.8327 25.1899 40.8683 25.1758 40.8968 25.1688C41.0106 25.1477 41.1102 25.1196 41.2098 25.0915C41.3806 25.0493 41.5585 25.0001 41.7222 24.9509C41.8431 24.9228 41.957 24.8876 42.0281 24.8595C42.2843 24.7822 42.5404 24.6908 42.8037 24.5994H42.8179C43.1666 26.4905 43.3587 28.4871 43.3942 30.575H29.6116C29.6472 28.487 29.8395 26.4904 30.1881 24.5994ZM32.7568 37.9148C32.6785 37.6547 32.6429 37.3524 32.6429 37.0289C32.6429 34.934 34.372 33.2256 36.4995 33.2256C38.627 33.2256 40.3561 34.934 40.3561 37.0289C40.3561 37.3594 40.3205 37.6546 40.2351 37.9429C39.8153 39.6371 38.2784 40.8252 36.4995 40.8252C34.7207 40.8252 33.1838 39.6443 32.7568 37.9148ZM44.7461 39.4052C44.981 38.4421 45.849 37.7672 46.8594 37.7672C48.0619 37.7672 49.0438 38.7303 49.0438 39.9184C49.0438 40.6073 48.7023 41.2612 48.1331 41.6619C47.7631 41.9291 47.3219 42.0697 46.8594 42.0697C45.6569 42.0697 44.6821 41.1065 44.6821 39.9184C44.6821 39.7427 44.7035 39.5669 44.7461 39.4052ZM50.1967 41.2612C50.218 41.212 50.2393 41.1628 50.2536 41.1136C50.282 41.0362 50.3034 40.9519 50.3247 40.8745L50.3674 40.7269C50.3888 40.6355 50.403 40.5511 50.4172 40.4597C50.4172 40.4176 50.4315 40.3754 50.4386 40.3262C50.4528 40.1926 50.467 40.052 50.467 39.9184C50.467 37.957 48.8518 36.3611 46.8595 36.3611C46.6674 36.3611 46.4753 36.3822 46.2903 36.4103C46.2334 36.4174 46.1764 36.4314 46.1195 36.4455C45.9914 36.4736 45.8705 36.5017 45.7495 36.5369C45.6855 36.558 45.6214 36.5791 45.5574 36.6072C45.4436 36.6494 45.3368 36.6986 45.2372 36.7478C45.1803 36.7759 45.1163 36.804 45.0593 36.8392C44.9526 36.9024 44.853 36.9657 44.7534 37.0431C44.7036 37.0782 44.6538 37.1063 44.6111 37.1415C44.5257 37.2047 44.4474 37.2821 44.3763 37.3524C44.6466 35.637 44.7889 33.8373 44.8245 31.9743H53.5552C53.4129 35.4051 52.2246 38.681 50.1398 41.409C50.1611 41.3598 50.1825 41.3036 50.2038 41.2543L50.1967 41.2612ZM48.4961 19.4042L48.4534 19.4464C48.3324 19.5659 48.2114 19.6783 48.0834 19.7908C48.0122 19.8541 47.9411 19.9244 47.8557 19.9947C47.5355 20.2829 47.194 20.5571 46.8453 20.8243C46.8382 20.8313 46.8239 20.8384 46.8168 20.8454C46.461 21.1125 46.0982 21.3656 45.7139 21.6047C45.5858 21.682 45.4649 21.7664 45.3012 21.8577C44.9881 22.0546 44.668 22.2374 44.3051 22.4061C44.2126 22.4553 44.1201 22.5046 44.0276 22.5397C43.9991 22.5538 43.9351 22.5889 43.9066 22.61C43.8924 22.61 43.8781 22.6241 43.8639 22.6311C43.0314 19.1301 41.7293 16.4233 40.1568 14.7851C43.316 15.46 46.2048 17.0208 48.5532 19.3407C48.5318 19.3548 48.5176 19.3759 48.5034 19.397L48.4961 19.4042ZM42.5333 23.2005L42.3198 23.2849C42.085 23.3692 41.8431 23.4466 41.5584 23.538C41.5015 23.5591 41.4446 23.5801 41.3806 23.5942C41.3521 23.5942 41.3307 23.6083 41.3094 23.6153C41.16 23.6645 40.9963 23.7067 40.8327 23.7489C40.7971 23.7559 40.7615 23.77 40.733 23.784C40.6975 23.7981 40.6619 23.8051 40.6192 23.8121C40.5836 23.8121 40.5552 23.8262 40.5196 23.8332H40.4982C40.3346 23.8754 40.1709 23.9176 40.0001 23.9527C39.5946 24.0371 39.1819 24.1074 38.7763 24.1637C38.7265 24.1637 38.6767 24.1777 38.6269 24.1847C38.2284 24.234 37.8228 24.2691 37.4173 24.2902C37.218 24.3043 37.0117 24.3043 36.8053 24.3113C36.7057 24.3113 36.6061 24.3183 36.5065 24.3183H36.2361C36.0155 24.3183 35.8021 24.3113 35.5815 24.2972C35.183 24.2761 34.7846 24.241 34.3861 24.1918C34.3363 24.1918 34.2794 24.1777 34.2296 24.1707C33.824 24.1144 33.4113 24.0512 32.9986 23.9598C32.835 23.9317 32.6713 23.8895 32.5077 23.8473H32.4863C32.4507 23.8403 32.4223 23.8332 32.3867 23.8262C32.344 23.8262 32.3084 23.8121 32.2729 23.7981C32.2373 23.784 32.2088 23.777 32.1732 23.7629C32.0167 23.7278 31.853 23.6786 31.6965 23.6294C31.6751 23.6223 31.6467 23.6153 31.6253 23.6083C31.5613 23.5942 31.5044 23.5801 31.4048 23.538C31.1628 23.4606 30.9209 23.3833 30.7003 23.306C30.6221 23.2778 30.5509 23.2497 30.4797 23.2146C31.7107 17.8576 34.0445 14.4197 36.5136 14.4197C38.9826 14.4197 41.3165 17.8574 42.5474 23.2146L42.5333 23.2005ZM29.1422 22.6381C29.1422 22.6381 29.0853 22.61 29.0639 22.6029C29.0355 22.5818 29.007 22.5678 28.9714 22.5537C28.8789 22.5115 28.7864 22.4694 28.6584 22.3991C28.3382 22.2444 28.018 22.0686 27.6765 21.8507C27.5413 21.7733 27.4203 21.696 27.2709 21.5976C26.9009 21.3656 26.538 21.1125 26.1823 20.8453C26.1751 20.8383 26.1609 20.8313 26.1538 20.8242C25.8051 20.5571 25.4565 20.2759 25.1221 19.9736C25.0296 19.9033 24.9442 19.8189 24.8588 19.7275C24.8446 19.7064 24.8232 19.6924 24.8019 19.6783C24.7805 19.6643 24.7663 19.6432 24.745 19.6291C24.6951 19.5799 24.6382 19.5307 24.5884 19.4815L24.5101 19.4041C24.4888 19.3901 24.4746 19.369 24.4603 19.3479C26.8084 17.0279 29.6973 15.4742 32.8567 14.7923C31.2842 16.4303 29.9892 19.137 29.1496 22.6311L29.1422 22.6381ZM28.1816 31.9815C28.2101 33.8375 28.3595 35.6442 28.6299 37.3596C28.5516 37.2822 28.4734 37.2119 28.388 37.1416C28.3524 37.1135 28.3097 37.0854 28.267 37.0573C28.1603 36.9799 28.0536 36.9096 27.9397 36.8393C27.8828 36.8112 27.8259 36.7831 27.7689 36.7479C27.6622 36.6917 27.5484 36.6425 27.4416 36.6003C27.3776 36.5792 27.3207 36.5511 27.2566 36.53C27.1357 36.4948 27.0147 36.4597 26.8866 36.4386C26.8297 36.4245 26.7728 36.4105 26.7159 36.4035C26.5309 36.3753 26.3387 36.3542 26.1466 36.3542C24.1543 36.3542 22.5391 37.9501 22.5391 39.9115C22.5391 40.0521 22.5462 40.1857 22.5676 40.3193C22.5676 40.3615 22.5818 40.4107 22.5889 40.4529C22.6032 40.5442 22.6174 40.6286 22.6387 40.72C22.653 40.7692 22.6672 40.8255 22.6814 40.8747C22.7028 40.952 22.7241 41.0293 22.7526 41.1067C22.7739 41.1629 22.7953 41.2121 22.8166 41.2613C22.838 41.3105 22.8522 41.3598 22.8807 41.409C20.7887 38.6812 19.6076 35.405 19.4653 31.9742H28.1959L28.1816 31.9815ZM23.4857 52.0459C23.1299 52.0459 22.8097 51.9053 22.5749 51.6452C22.3401 51.3921 22.2405 51.0617 22.2761 50.7172L22.5749 48.0527C22.7244 46.6959 23.6636 45.5359 24.9657 45.093C25.1365 45.0368 25.3072 44.9946 25.478 44.9594C25.5563 44.9454 25.6345 44.9383 25.7057 44.9313C25.7982 44.9173 25.8907 44.9102 25.9832 44.9102H26.2749C26.3603 44.9102 26.4457 44.9243 26.5311 44.9313C26.7232 44.9524 26.9082 44.9876 27.0932 45.0438C27.1644 45.0649 27.2355 45.079 27.3067 45.1C27.3992 45.1352 27.4917 45.1703 27.5771 45.2125C27.6696 45.2547 27.7692 45.2969 27.8546 45.3531C27.9257 45.3883 27.9898 45.4305 28.0538 45.4726C28.2103 45.5711 28.3669 45.6836 28.5163 45.8101C28.6586 45.9366 28.7867 46.0702 28.9005 46.2108C28.9432 46.26 28.9717 46.3163 29.0072 46.3655C29.0784 46.4639 29.1496 46.5623 29.2136 46.6678C29.2492 46.7311 29.2776 46.7943 29.3132 46.8646C29.363 46.9631 29.4128 47.0685 29.4555 47.1669C29.484 47.2372 29.5053 47.3146 29.5267 47.3849C29.548 47.4622 29.5694 47.5325 29.5907 47.6099C29.5907 47.6239 29.5836 47.638 29.5765 47.652C29.4413 47.9614 29.3345 48.2777 29.242 48.6011C29.242 48.6222 29.2349 48.6363 29.2278 48.6574C29.1424 48.9948 29.0713 49.3323 29.0357 49.6838L28.7724 52.0529H23.4713L23.4857 52.0459ZM42.427 55.8212C41.9858 56.3063 41.3525 56.5875 40.6908 56.5875H32.309C31.6473 56.5875 31.0069 56.3063 30.5729 55.8212C30.1317 55.329 29.9253 54.6963 30.0036 54.0355L30.1459 52.7349V52.7208L30.4661 49.8314C30.5373 49.2127 30.7009 48.6081 30.9642 48.0457C30.9784 48.0105 30.9856 47.9964 30.9998 47.9613C31.3484 47.2161 31.8607 46.5412 32.4869 46.0069C33.5969 45.0297 35.0271 44.4954 36.5071 44.4954C36.6921 44.4954 36.8771 44.5024 37.0621 44.5235C38.3429 44.636 39.5596 45.1562 40.5202 46.0069C40.5344 46.0209 40.5487 46.035 40.57 46.049C41.182 46.5974 41.6658 47.2372 42.0073 47.9683V47.9753C42.0144 48.0035 42.0215 48.0245 42.0358 48.0527C42.299 48.6221 42.4627 49.2197 42.5339 49.8454L42.854 52.7348V52.7559L42.9964 54.0565C43.0746 54.7103 42.8683 55.3431 42.4271 55.8352L42.427 55.8212ZM50.4244 51.6452C50.1896 51.9053 49.8694 52.0459 49.5137 52.0459H44.2125L43.9493 49.6768C43.9137 49.3252 43.8425 48.9878 43.7571 48.6504C43.7571 48.6363 43.75 48.6152 43.7429 48.6012C43.6575 48.2778 43.5437 47.9614 43.4085 47.6521C43.4085 47.638 43.4014 47.6239 43.3943 47.6099C43.4156 47.5325 43.437 47.4482 43.4583 47.3708C43.4868 47.2795 43.5152 47.1881 43.5508 47.1037C43.5935 47.0053 43.6433 46.9068 43.6931 46.8155C43.7358 46.7311 43.7785 46.6467 43.8283 46.5694C43.8852 46.478 43.9493 46.3936 44.0204 46.3093C44.0773 46.239 44.1271 46.1616 44.1912 46.0984C44.2623 46.014 44.3477 45.9437 44.426 45.8734C44.49 45.8101 44.5541 45.7469 44.6181 45.6906C44.7035 45.6203 44.8031 45.5641 44.8956 45.5008C44.9668 45.4516 45.0379 45.4024 45.1091 45.3602C45.2158 45.304 45.3225 45.2547 45.4364 45.2126C45.5075 45.1774 45.5787 45.1423 45.657 45.1141C45.785 45.072 45.9131 45.0438 46.0483 45.0087C46.1123 44.9946 46.1764 44.9665 46.2475 44.9595C46.4468 44.9243 46.6602 44.9032 46.8666 44.9032C47.265 44.9032 47.6635 44.9665 48.0406 45.1001C48.496 45.2618 48.9087 45.5008 49.2574 45.8101C49.912 46.3936 50.3318 47.188 50.4243 48.0598L50.7231 50.7243C50.7587 51.0688 50.6591 51.3992 50.4243 51.6523L50.4244 51.6452Z"/>
</mask>
<path d="M51.8335 47.8977C51.6983 46.6885 51.1148 45.5707 50.2041 44.7622C49.9835 44.5724 49.7487 44.4036 49.5068 44.249C49.6918 44.0662 49.8839 43.8764 50.0618 43.6866C53.2424 40.298 55 35.8901 55 31.2854C55 26.6808 53.2496 22.2727 50.0618 18.8843C46.561 15.1442 41.6158 13 36.5 13C31.3842 13 26.4387 15.1442 22.9382 18.8771C19.7576 22.2656 18 26.6736 18 31.2782C18 35.8829 19.7504 40.2909 22.9382 43.6794C23.1232 43.8762 23.3153 44.066 23.5003 44.2488C22.2195 45.0362 21.3301 46.372 21.1665 47.8975L20.8676 50.562C20.7822 51.2931 21.0242 52.0313 21.5222 52.5867C22.0203 53.1421 22.739 53.4585 23.4932 53.4585H28.6377L28.5879 53.8873C28.4669 54.9348 28.8013 55.9823 29.5128 56.7627C30.2244 57.5501 31.2419 58 32.3163 58H40.6981C41.7654 58 42.79 57.5501 43.5015 56.7627C44.213 55.9753 44.5475 54.9278 44.4265 53.8873L44.3767 53.4585H49.5212C50.2754 53.4585 50.9941 53.1421 51.4921 52.5867C51.9902 52.0383 52.225 51.3002 52.1467 50.562L51.8479 47.8975L51.8335 47.8977ZM46.0556 43.56C45.9773 43.5741 45.899 43.5952 45.8208 43.6093C45.6358 43.6514 45.4508 43.6936 45.2729 43.7569C45.1946 43.785 45.1163 43.8061 45.0381 43.8413C44.8388 43.9186 44.6538 44.003 44.4688 44.1084C44.4262 44.1295 44.3764 44.1506 44.3337 44.1787C44.1131 44.3053 43.8996 44.4529 43.7004 44.6146C43.6506 44.6568 43.6008 44.6989 43.551 44.7482C43.4087 44.8747 43.2664 45.0083 43.1383 45.1489C43.0814 45.2122 43.0244 45.2754 42.9746 45.3387C42.8537 45.4863 42.7469 45.634 42.6473 45.7957C42.6046 45.8589 42.569 45.9152 42.5264 45.9784C42.5121 45.9995 42.4979 46.0206 42.4837 46.0487C42.3841 45.9222 42.2773 45.8027 42.1777 45.6832C42.1279 45.6269 42.0852 45.5707 42.0354 45.5215C41.9856 45.4652 41.9287 45.416 41.8717 45.3598C42.5121 44.1857 43.0671 42.7937 43.5154 41.2471C44.0419 42.5618 45.3369 43.4968 46.8525 43.4968C47.0233 43.4968 47.194 43.4827 47.3648 43.4546C47.4146 43.4546 47.4644 43.4405 47.5071 43.4265C47.6352 43.4054 47.7562 43.3773 47.8771 43.3421C47.9198 43.328 47.9625 43.321 48.0123 43.307C48.1617 43.2577 48.3112 43.2015 48.4535 43.1312C48.4819 43.1593 48.5175 43.1945 48.5531 43.2226C48.3965 43.3773 48.2471 43.5249 48.0906 43.6655C48.0052 43.6444 47.9127 43.6303 47.8202 43.6163C47.7491 43.6022 47.6779 43.5882 47.6139 43.5741C47.3648 43.539 47.1158 43.5108 46.8597 43.5108C46.5893 43.5108 46.3189 43.539 46.0556 43.5811L46.0556 43.56ZM40.3204 44.1225C40.1426 44.017 39.9647 43.9186 39.7797 43.8342C39.737 43.8131 39.6872 43.792 39.6445 43.778C39.5022 43.7147 39.3528 43.6514 39.2104 43.5952C39.1393 43.5671 39.0681 43.546 38.997 43.5179C38.8689 43.4757 38.7479 43.4335 38.6199 43.3984C38.5416 43.3773 38.4633 43.3562 38.3851 43.3351C38.257 43.2999 38.1289 43.2718 38.0008 43.2507C37.9226 43.2367 37.8443 43.2226 37.766 43.2085C37.6237 43.1874 37.4885 43.1664 37.3462 43.1523C37.2751 43.1453 37.211 43.1382 37.1399 43.1312C36.9335 43.1171 36.7201 43.1031 36.5066 43.1031C36.2932 43.1031 36.0868 43.1171 35.8734 43.1312C35.8093 43.1312 35.7382 43.1453 35.6741 43.1523C35.5318 43.1664 35.3895 43.1874 35.2472 43.2085C35.1689 43.2226 35.0907 43.2367 35.0195 43.2507C34.8914 43.2788 34.7634 43.307 34.6282 43.3421C34.5499 43.3632 34.4716 43.3843 34.3934 43.4054C34.2653 43.4405 34.1372 43.4827 34.0091 43.5319C33.938 43.56 33.8668 43.5811 33.8028 43.6093C33.6463 43.6725 33.4968 43.7358 33.3403 43.8061C33.3047 43.8272 33.262 43.8413 33.2265 43.8553C33.0415 43.9467 32.8636 44.0451 32.6857 44.1436C32.6216 44.1787 32.5647 44.2209 32.5007 44.2631C32.4153 44.3193 32.3228 44.3685 32.2374 44.4318C31.5116 43.0328 30.9211 41.3104 30.4799 39.384C30.6364 39.3277 30.7859 39.2645 30.9424 39.2082C31.042 39.1731 31.1416 39.1449 31.2412 39.1098C31.3622 39.0676 31.4903 39.0395 31.6184 38.9973C31.6255 39.0184 31.6397 39.0395 31.6539 39.0676C31.6966 39.166 31.7464 39.2574 31.7962 39.3488C31.8745 39.5035 31.9528 39.6581 32.0382 39.7987C32.0951 39.8972 32.1662 39.9815 32.2303 40.0729C32.3228 40.2065 32.4224 40.333 32.5291 40.4526L32.7639 40.7057C32.8778 40.8181 32.9916 40.9236 33.1126 41.022C33.198 41.0923 33.2905 41.1696 33.383 41.2329C33.511 41.3243 33.6462 41.4087 33.7814 41.493C33.881 41.5493 33.9735 41.6126 34.0803 41.6618C34.2297 41.7391 34.3791 41.8024 34.5357 41.8586C34.6353 41.9008 34.7349 41.943 34.8416 41.9781C35.0195 42.0344 35.1974 42.0765 35.3824 42.1187C35.4749 42.1398 35.5603 42.1679 35.6528 42.182C35.9303 42.2242 36.2149 42.2523 36.5066 42.2523C36.7983 42.2523 37.083 42.2242 37.3605 42.182C37.453 42.1679 37.5455 42.1398 37.638 42.1187C37.8159 42.0765 38.0009 42.0414 38.1716 41.9852C38.2784 41.95 38.3851 41.9008 38.4918 41.8586C38.6412 41.8024 38.7836 41.7391 38.9259 41.6688C39.0397 41.6125 39.1464 41.5493 39.2532 41.486C39.3741 41.4087 39.4951 41.3384 39.6161 41.254C39.7228 41.1767 39.8295 41.0923 39.9291 41.0079C40.0288 40.9236 40.1284 40.8322 40.2209 40.7408C40.3205 40.6424 40.4201 40.5369 40.5126 40.4315C40.5909 40.3401 40.6691 40.2416 40.7474 40.1362C40.8328 40.0167 40.9182 39.9042 40.9964 39.7776C41.0676 39.6652 41.1245 39.5527 41.1814 39.4402C41.2455 39.3137 41.3166 39.1941 41.3664 39.0606C41.3736 39.0395 41.3878 39.0254 41.3949 39.0043C41.523 39.0395 41.6511 39.0746 41.772 39.1168C41.8716 39.152 41.9784 39.1801 42.078 39.2152C42.2345 39.2715 42.3839 39.3277 42.5334 39.391C42.0922 41.3102 41.5016 43.0397 40.7758 44.4316C40.6762 44.3613 40.5766 44.3051 40.477 44.2418C40.4272 44.2137 40.3774 44.1785 40.3276 44.1434L40.3204 44.1225ZM30.5579 45.9855C30.5579 45.9855 30.5223 46.0206 30.5081 46.0417C30.5081 46.0417 30.5081 46.0347 30.501 46.0277C30.4156 45.873 30.3089 45.7394 30.2093 45.5988C30.1523 45.5145 30.1025 45.4301 30.0385 45.3527C29.8677 45.1418 29.6756 44.938 29.4764 44.7622C29.3198 44.6216 29.1491 44.4951 28.9783 44.3755L28.9142 44.3334C28.0959 43.792 27.1354 43.4897 26.1464 43.4897C26.0467 43.4897 25.94 43.5038 25.8404 43.5108H25.755C25.5914 43.5249 25.4206 43.546 25.2569 43.5741C25.1929 43.5882 25.1288 43.5952 25.0577 43.6092C25.0079 43.6233 24.9581 43.6233 24.9154 43.6374C24.7588 43.4968 24.6094 43.3491 24.4529 43.1945C24.4813 43.1663 24.5169 43.1312 24.5525 43.1031C24.6948 43.1734 24.8442 43.2296 24.9936 43.2788C25.0363 43.2929 25.079 43.2999 25.1217 43.314C25.2427 43.3491 25.3708 43.3772 25.4988 43.4054C25.5486 43.4124 25.5913 43.4265 25.6411 43.4265C25.8119 43.4475 25.9756 43.4686 26.1535 43.4686C27.669 43.4686 28.964 42.5336 29.4906 41.219C29.9388 42.7656 30.4938 44.1576 31.1342 45.3316L31.0061 45.4582C30.8496 45.6269 30.7073 45.7956 30.565 45.9784L30.5579 45.9855ZM23.4853 20.3814C23.5992 20.4939 23.713 20.5993 23.8269 20.7048L23.834 20.7118C23.9549 20.8384 24.083 20.9579 24.1826 21.0352C24.1969 21.0493 24.2111 21.0563 24.2253 21.0704C24.5171 21.3234 24.8159 21.5765 25.129 21.8085C25.2784 21.928 25.435 22.0405 25.5915 22.153C25.7978 22.3006 26.0113 22.4483 26.2247 22.5889C26.3172 22.6521 26.4097 22.7225 26.5022 22.7857C26.6517 22.8771 26.8011 22.9755 26.9221 23.0458C27.2849 23.2708 27.6478 23.4747 27.9751 23.6364C28.0961 23.7067 28.2171 23.7629 28.338 23.8192C28.4021 23.8543 28.4803 23.8965 28.5657 23.9317C28.6511 23.9738 28.7365 24.009 28.8219 24.0441C28.4234 26.104 28.2028 28.2904 28.1673 30.5682H19.4366C19.5932 26.814 20.9949 23.2428 23.4639 20.3745L23.4853 20.3814ZM48.7592 21.0844C48.7592 21.0844 48.7948 21.0563 48.8161 21.0422C48.9371 20.9368 49.058 20.8313 49.1434 20.747C49.1932 20.7048 49.2359 20.6556 49.2857 20.6134C49.3498 20.5501 49.4209 20.4868 49.485 20.4236C49.485 20.4236 49.4921 20.4236 49.4992 20.4095C49.5063 20.4025 49.5134 20.3954 49.5276 20.3884C51.9967 23.2568 53.3984 26.8279 53.555 30.5822H44.8243C44.7888 28.3044 44.5682 26.1109 44.1697 24.0581C44.2551 24.0229 44.3405 23.9878 44.4259 23.9456C44.5184 23.9105 44.5966 23.8683 44.6536 23.8331C44.7745 23.7769 44.8884 23.7206 44.9738 23.6714C45.3366 23.4957 45.7067 23.2918 46.0411 23.0809C46.1976 22.9965 46.3471 22.8981 46.5036 22.7997C46.5961 22.7364 46.6886 22.6661 46.7811 22.6099C46.9945 22.4693 47.2009 22.3286 47.4072 22.174C47.5638 22.0615 47.7203 21.949 47.8768 21.8295C48.1828 21.5905 48.4816 21.3514 48.7734 21.0913L48.7592 21.0844ZM42.1775 37.746C42.0352 37.6968 41.8929 37.6476 41.7435 37.6054C41.7648 37.4226 41.7719 37.2258 41.7719 37.0289C41.7719 34.5965 40.0642 32.5507 37.7731 31.9811H43.3798C43.3442 34.0691 43.1521 36.0657 42.8035 37.9567C42.711 37.9216 42.6185 37.8934 42.526 37.8583C42.4121 37.8161 42.2912 37.781 42.1702 37.7458L42.1775 37.746ZM30.4728 37.8585C30.3731 37.8937 30.2806 37.9218 30.1881 37.9569C29.8395 36.0658 29.6474 34.0692 29.6118 31.9813H35.2185C32.9274 32.5508 31.2197 34.5966 31.2197 37.0292C31.2197 37.226 31.2268 37.4228 31.2481 37.6056C31.0987 37.6478 30.9564 37.697 30.8141 37.7462C30.7003 37.7814 30.5866 37.8163 30.4728 37.8585ZM24.8588 41.6619C24.2895 41.2611 23.9551 40.6073 23.9551 39.9184C23.9551 38.7302 24.937 37.7671 26.1395 37.7671C26.2676 37.7671 26.3886 37.7741 26.5095 37.7952C27.3563 37.9358 28.0465 38.5615 28.2528 39.4122C28.2955 39.5669 28.3168 39.7426 28.3168 39.9184C28.3168 41.1065 27.342 42.0696 26.1396 42.0696C25.67 42.0696 25.2359 41.929 24.8588 41.6619ZM30.1881 24.5994C30.1881 24.5994 30.2024 24.5994 30.2095 24.6064C30.4585 24.6908 30.7147 24.7821 30.9281 24.8454C31.042 24.8876 31.1558 24.9228 31.2768 24.9509C31.4404 25.0071 31.6183 25.0493 31.7891 25.0915C31.8887 25.1266 31.9883 25.1548 32.1022 25.1688C32.1306 25.1758 32.1662 25.1829 32.1947 25.1899C32.3654 25.2321 32.5433 25.2743 32.707 25.3094C32.835 25.3375 32.9631 25.3516 33.0912 25.3727C33.3402 25.4219 33.5893 25.4641 33.8454 25.4992C34.0162 25.5203 34.1798 25.5485 34.3506 25.5625C34.9768 25.6328 35.6029 25.675 36.2291 25.6891H36.8125C37.4316 25.675 38.0435 25.6398 38.6554 25.5695C38.8191 25.5484 38.9898 25.5274 39.1535 25.5063C39.4097 25.4711 39.6658 25.4219 39.922 25.3727C40.0429 25.3516 40.1639 25.3375 40.2849 25.3094C40.4556 25.2743 40.6335 25.2391 40.8043 25.1899C40.8327 25.1899 40.8683 25.1758 40.8968 25.1688C41.0106 25.1477 41.1102 25.1196 41.2098 25.0915C41.3806 25.0493 41.5585 25.0001 41.7222 24.9509C41.8431 24.9228 41.957 24.8876 42.0281 24.8595C42.2843 24.7822 42.5404 24.6908 42.8037 24.5994H42.8179C43.1666 26.4905 43.3587 28.4871 43.3942 30.575H29.6116C29.6472 28.487 29.8395 26.4904 30.1881 24.5994ZM32.7568 37.9148C32.6785 37.6547 32.6429 37.3524 32.6429 37.0289C32.6429 34.934 34.372 33.2256 36.4995 33.2256C38.627 33.2256 40.3561 34.934 40.3561 37.0289C40.3561 37.3594 40.3205 37.6546 40.2351 37.9429C39.8153 39.6371 38.2784 40.8252 36.4995 40.8252C34.7207 40.8252 33.1838 39.6443 32.7568 37.9148ZM44.7461 39.4052C44.981 38.4421 45.849 37.7672 46.8594 37.7672C48.0619 37.7672 49.0438 38.7303 49.0438 39.9184C49.0438 40.6073 48.7023 41.2612 48.1331 41.6619C47.7631 41.9291 47.3219 42.0697 46.8594 42.0697C45.6569 42.0697 44.6821 41.1065 44.6821 39.9184C44.6821 39.7427 44.7035 39.5669 44.7461 39.4052ZM50.1967 41.2612C50.218 41.212 50.2393 41.1628 50.2536 41.1136C50.282 41.0362 50.3034 40.9519 50.3247 40.8745L50.3674 40.7269C50.3888 40.6355 50.403 40.5511 50.4172 40.4597C50.4172 40.4176 50.4315 40.3754 50.4386 40.3262C50.4528 40.1926 50.467 40.052 50.467 39.9184C50.467 37.957 48.8518 36.3611 46.8595 36.3611C46.6674 36.3611 46.4753 36.3822 46.2903 36.4103C46.2334 36.4174 46.1764 36.4314 46.1195 36.4455C45.9914 36.4736 45.8705 36.5017 45.7495 36.5369C45.6855 36.558 45.6214 36.5791 45.5574 36.6072C45.4436 36.6494 45.3368 36.6986 45.2372 36.7478C45.1803 36.7759 45.1163 36.804 45.0593 36.8392C44.9526 36.9024 44.853 36.9657 44.7534 37.0431C44.7036 37.0782 44.6538 37.1063 44.6111 37.1415C44.5257 37.2047 44.4474 37.2821 44.3763 37.3524C44.6466 35.637 44.7889 33.8373 44.8245 31.9743H53.5552C53.4129 35.4051 52.2246 38.681 50.1398 41.409C50.1611 41.3598 50.1825 41.3036 50.2038 41.2543L50.1967 41.2612ZM48.4961 19.4042L48.4534 19.4464C48.3324 19.5659 48.2114 19.6783 48.0834 19.7908C48.0122 19.8541 47.9411 19.9244 47.8557 19.9947C47.5355 20.2829 47.194 20.5571 46.8453 20.8243C46.8382 20.8313 46.8239 20.8384 46.8168 20.8454C46.461 21.1125 46.0982 21.3656 45.7139 21.6047C45.5858 21.682 45.4649 21.7664 45.3012 21.8577C44.9881 22.0546 44.668 22.2374 44.3051 22.4061C44.2126 22.4553 44.1201 22.5046 44.0276 22.5397C43.9991 22.5538 43.9351 22.5889 43.9066 22.61C43.8924 22.61 43.8781 22.6241 43.8639 22.6311C43.0314 19.1301 41.7293 16.4233 40.1568 14.7851C43.316 15.46 46.2048 17.0208 48.5532 19.3407C48.5318 19.3548 48.5176 19.3759 48.5034 19.397L48.4961 19.4042ZM42.5333 23.2005L42.3198 23.2849C42.085 23.3692 41.8431 23.4466 41.5584 23.538C41.5015 23.5591 41.4446 23.5801 41.3806 23.5942C41.3521 23.5942 41.3307 23.6083 41.3094 23.6153C41.16 23.6645 40.9963 23.7067 40.8327 23.7489C40.7971 23.7559 40.7615 23.77 40.733 23.784C40.6975 23.7981 40.6619 23.8051 40.6192 23.8121C40.5836 23.8121 40.5552 23.8262 40.5196 23.8332H40.4982C40.3346 23.8754 40.1709 23.9176 40.0001 23.9527C39.5946 24.0371 39.1819 24.1074 38.7763 24.1637C38.7265 24.1637 38.6767 24.1777 38.6269 24.1847C38.2284 24.234 37.8228 24.2691 37.4173 24.2902C37.218 24.3043 37.0117 24.3043 36.8053 24.3113C36.7057 24.3113 36.6061 24.3183 36.5065 24.3183H36.2361C36.0155 24.3183 35.8021 24.3113 35.5815 24.2972C35.183 24.2761 34.7846 24.241 34.3861 24.1918C34.3363 24.1918 34.2794 24.1777 34.2296 24.1707C33.824 24.1144 33.4113 24.0512 32.9986 23.9598C32.835 23.9317 32.6713 23.8895 32.5077 23.8473H32.4863C32.4507 23.8403 32.4223 23.8332 32.3867 23.8262C32.344 23.8262 32.3084 23.8121 32.2729 23.7981C32.2373 23.784 32.2088 23.777 32.1732 23.7629C32.0167 23.7278 31.853 23.6786 31.6965 23.6294C31.6751 23.6223 31.6467 23.6153 31.6253 23.6083C31.5613 23.5942 31.5044 23.5801 31.4048 23.538C31.1628 23.4606 30.9209 23.3833 30.7003 23.306C30.6221 23.2778 30.5509 23.2497 30.4797 23.2146C31.7107 17.8576 34.0445 14.4197 36.5136 14.4197C38.9826 14.4197 41.3165 17.8574 42.5474 23.2146L42.5333 23.2005ZM29.1422 22.6381C29.1422 22.6381 29.0853 22.61 29.0639 22.6029C29.0355 22.5818 29.007 22.5678 28.9714 22.5537C28.8789 22.5115 28.7864 22.4694 28.6584 22.3991C28.3382 22.2444 28.018 22.0686 27.6765 21.8507C27.5413 21.7733 27.4203 21.696 27.2709 21.5976C26.9009 21.3656 26.538 21.1125 26.1823 20.8453C26.1751 20.8383 26.1609 20.8313 26.1538 20.8242C25.8051 20.5571 25.4565 20.2759 25.1221 19.9736C25.0296 19.9033 24.9442 19.8189 24.8588 19.7275C24.8446 19.7064 24.8232 19.6924 24.8019 19.6783C24.7805 19.6643 24.7663 19.6432 24.745 19.6291C24.6951 19.5799 24.6382 19.5307 24.5884 19.4815L24.5101 19.4041C24.4888 19.3901 24.4746 19.369 24.4603 19.3479C26.8084 17.0279 29.6973 15.4742 32.8567 14.7923C31.2842 16.4303 29.9892 19.137 29.1496 22.6311L29.1422 22.6381ZM28.1816 31.9815C28.2101 33.8375 28.3595 35.6442 28.6299 37.3596C28.5516 37.2822 28.4734 37.2119 28.388 37.1416C28.3524 37.1135 28.3097 37.0854 28.267 37.0573C28.1603 36.9799 28.0536 36.9096 27.9397 36.8393C27.8828 36.8112 27.8259 36.7831 27.7689 36.7479C27.6622 36.6917 27.5484 36.6425 27.4416 36.6003C27.3776 36.5792 27.3207 36.5511 27.2566 36.53C27.1357 36.4948 27.0147 36.4597 26.8866 36.4386C26.8297 36.4245 26.7728 36.4105 26.7159 36.4035C26.5309 36.3753 26.3387 36.3542 26.1466 36.3542C24.1543 36.3542 22.5391 37.9501 22.5391 39.9115C22.5391 40.0521 22.5462 40.1857 22.5676 40.3193C22.5676 40.3615 22.5818 40.4107 22.5889 40.4529C22.6032 40.5442 22.6174 40.6286 22.6387 40.72C22.653 40.7692 22.6672 40.8255 22.6814 40.8747C22.7028 40.952 22.7241 41.0293 22.7526 41.1067C22.7739 41.1629 22.7953 41.2121 22.8166 41.2613C22.838 41.3105 22.8522 41.3598 22.8807 41.409C20.7887 38.6812 19.6076 35.405 19.4653 31.9742H28.1959L28.1816 31.9815ZM23.4857 52.0459C23.1299 52.0459 22.8097 51.9053 22.5749 51.6452C22.3401 51.3921 22.2405 51.0617 22.2761 50.7172L22.5749 48.0527C22.7244 46.6959 23.6636 45.5359 24.9657 45.093C25.1365 45.0368 25.3072 44.9946 25.478 44.9594C25.5563 44.9454 25.6345 44.9383 25.7057 44.9313C25.7982 44.9173 25.8907 44.9102 25.9832 44.9102H26.2749C26.3603 44.9102 26.4457 44.9243 26.5311 44.9313C26.7232 44.9524 26.9082 44.9876 27.0932 45.0438C27.1644 45.0649 27.2355 45.079 27.3067 45.1C27.3992 45.1352 27.4917 45.1703 27.5771 45.2125C27.6696 45.2547 27.7692 45.2969 27.8546 45.3531C27.9257 45.3883 27.9898 45.4305 28.0538 45.4726C28.2103 45.5711 28.3669 45.6836 28.5163 45.8101C28.6586 45.9366 28.7867 46.0702 28.9005 46.2108C28.9432 46.26 28.9717 46.3163 29.0072 46.3655C29.0784 46.4639 29.1496 46.5623 29.2136 46.6678C29.2492 46.7311 29.2776 46.7943 29.3132 46.8646C29.363 46.9631 29.4128 47.0685 29.4555 47.1669C29.484 47.2372 29.5053 47.3146 29.5267 47.3849C29.548 47.4622 29.5694 47.5325 29.5907 47.6099C29.5907 47.6239 29.5836 47.638 29.5765 47.652C29.4413 47.9614 29.3345 48.2777 29.242 48.6011C29.242 48.6222 29.2349 48.6363 29.2278 48.6574C29.1424 48.9948 29.0713 49.3323 29.0357 49.6838L28.7724 52.0529H23.4713L23.4857 52.0459ZM42.427 55.8212C41.9858 56.3063 41.3525 56.5875 40.6908 56.5875H32.309C31.6473 56.5875 31.0069 56.3063 30.5729 55.8212C30.1317 55.329 29.9253 54.6963 30.0036 54.0355L30.1459 52.7349V52.7208L30.4661 49.8314C30.5373 49.2127 30.7009 48.6081 30.9642 48.0457C30.9784 48.0105 30.9856 47.9964 30.9998 47.9613C31.3484 47.2161 31.8607 46.5412 32.4869 46.0069C33.5969 45.0297 35.0271 44.4954 36.5071 44.4954C36.6921 44.4954 36.8771 44.5024 37.0621 44.5235C38.3429 44.636 39.5596 45.1562 40.5202 46.0069C40.5344 46.0209 40.5487 46.035 40.57 46.049C41.182 46.5974 41.6658 47.2372 42.0073 47.9683V47.9753C42.0144 48.0035 42.0215 48.0245 42.0358 48.0527C42.299 48.6221 42.4627 49.2197 42.5339 49.8454L42.854 52.7348V52.7559L42.9964 54.0565C43.0746 54.7103 42.8683 55.3431 42.4271 55.8352L42.427 55.8212ZM50.4244 51.6452C50.1896 51.9053 49.8694 52.0459 49.5137 52.0459H44.2125L43.9493 49.6768C43.9137 49.3252 43.8425 48.9878 43.7571 48.6504C43.7571 48.6363 43.75 48.6152 43.7429 48.6012C43.6575 48.2778 43.5437 47.9614 43.4085 47.6521C43.4085 47.638 43.4014 47.6239 43.3943 47.6099C43.4156 47.5325 43.437 47.4482 43.4583 47.3708C43.4868 47.2795 43.5152 47.1881 43.5508 47.1037C43.5935 47.0053 43.6433 46.9068 43.6931 46.8155C43.7358 46.7311 43.7785 46.6467 43.8283 46.5694C43.8852 46.478 43.9493 46.3936 44.0204 46.3093C44.0773 46.239 44.1271 46.1616 44.1912 46.0984C44.2623 46.014 44.3477 45.9437 44.426 45.8734C44.49 45.8101 44.5541 45.7469 44.6181 45.6906C44.7035 45.6203 44.8031 45.5641 44.8956 45.5008C44.9668 45.4516 45.0379 45.4024 45.1091 45.3602C45.2158 45.304 45.3225 45.2547 45.4364 45.2126C45.5075 45.1774 45.5787 45.1423 45.657 45.1141C45.785 45.072 45.9131 45.0438 46.0483 45.0087C46.1123 44.9946 46.1764 44.9665 46.2475 44.9595C46.4468 44.9243 46.6602 44.9032 46.8666 44.9032C47.265 44.9032 47.6635 44.9665 48.0406 45.1001C48.496 45.2618 48.9087 45.5008 49.2574 45.8101C49.912 46.3936 50.3318 47.188 50.4243 48.0598L50.7231 50.7243C50.7587 51.0688 50.6591 51.3992 50.4243 51.6523L50.4244 51.6452Z" fill="#5AC2BF"/>
<path d="M51.8335 47.8977C51.6983 46.6885 51.1148 45.5707 50.2041 44.7622C49.9835 44.5724 49.7487 44.4036 49.5068 44.249C49.6918 44.0662 49.8839 43.8764 50.0618 43.6866C53.2424 40.298 55 35.8901 55 31.2854C55 26.6808 53.2496 22.2727 50.0618 18.8843C46.561 15.1442 41.6158 13 36.5 13C31.3842 13 26.4387 15.1442 22.9382 18.8771C19.7576 22.2656 18 26.6736 18 31.2782C18 35.8829 19.7504 40.2909 22.9382 43.6794C23.1232 43.8762 23.3153 44.066 23.5003 44.2488C22.2195 45.0362 21.3301 46.372 21.1665 47.8975L20.8676 50.562C20.7822 51.2931 21.0242 52.0313 21.5222 52.5867C22.0203 53.1421 22.739 53.4585 23.4932 53.4585H28.6377L28.5879 53.8873C28.4669 54.9348 28.8013 55.9823 29.5128 56.7627C30.2244 57.5501 31.2419 58 32.3163 58H40.6981C41.7654 58 42.79 57.5501 43.5015 56.7627C44.213 55.9753 44.5475 54.9278 44.4265 53.8873L44.3767 53.4585H49.5212C50.2754 53.4585 50.9941 53.1421 51.4921 52.5867C51.9902 52.0383 52.225 51.3002 52.1467 50.562L51.8479 47.8975L51.8335 47.8977ZM46.0556 43.56C45.9773 43.5741 45.899 43.5952 45.8208 43.6093C45.6358 43.6514 45.4508 43.6936 45.2729 43.7569C45.1946 43.785 45.1163 43.8061 45.0381 43.8413C44.8388 43.9186 44.6538 44.003 44.4688 44.1084C44.4262 44.1295 44.3764 44.1506 44.3337 44.1787C44.1131 44.3053 43.8996 44.4529 43.7004 44.6146C43.6506 44.6568 43.6008 44.6989 43.551 44.7482C43.4087 44.8747 43.2664 45.0083 43.1383 45.1489C43.0814 45.2122 43.0244 45.2754 42.9746 45.3387C42.8537 45.4863 42.7469 45.634 42.6473 45.7957C42.6046 45.8589 42.569 45.9152 42.5264 45.9784C42.5121 45.9995 42.4979 46.0206 42.4837 46.0487C42.3841 45.9222 42.2773 45.8027 42.1777 45.6832C42.1279 45.6269 42.0852 45.5707 42.0354 45.5215C41.9856 45.4652 41.9287 45.416 41.8717 45.3598C42.5121 44.1857 43.0671 42.7937 43.5154 41.2471C44.0419 42.5618 45.3369 43.4968 46.8525 43.4968C47.0233 43.4968 47.194 43.4827 47.3648 43.4546C47.4146 43.4546 47.4644 43.4405 47.5071 43.4265C47.6352 43.4054 47.7562 43.3773 47.8771 43.3421C47.9198 43.328 47.9625 43.321 48.0123 43.307C48.1617 43.2577 48.3112 43.2015 48.4535 43.1312C48.4819 43.1593 48.5175 43.1945 48.5531 43.2226C48.3965 43.3773 48.2471 43.5249 48.0906 43.6655C48.0052 43.6444 47.9127 43.6303 47.8202 43.6163C47.7491 43.6022 47.6779 43.5882 47.6139 43.5741C47.3648 43.539 47.1158 43.5108 46.8597 43.5108C46.5893 43.5108 46.3189 43.539 46.0556 43.5811L46.0556 43.56ZM40.3204 44.1225C40.1426 44.017 39.9647 43.9186 39.7797 43.8342C39.737 43.8131 39.6872 43.792 39.6445 43.778C39.5022 43.7147 39.3528 43.6514 39.2104 43.5952C39.1393 43.5671 39.0681 43.546 38.997 43.5179C38.8689 43.4757 38.7479 43.4335 38.6199 43.3984C38.5416 43.3773 38.4633 43.3562 38.3851 43.3351C38.257 43.2999 38.1289 43.2718 38.0008 43.2507C37.9226 43.2367 37.8443 43.2226 37.766 43.2085C37.6237 43.1874 37.4885 43.1664 37.3462 43.1523C37.2751 43.1453 37.211 43.1382 37.1399 43.1312C36.9335 43.1171 36.7201 43.1031 36.5066 43.1031C36.2932 43.1031 36.0868 43.1171 35.8734 43.1312C35.8093 43.1312 35.7382 43.1453 35.6741 43.1523C35.5318 43.1664 35.3895 43.1874 35.2472 43.2085C35.1689 43.2226 35.0907 43.2367 35.0195 43.2507C34.8914 43.2788 34.7634 43.307 34.6282 43.3421C34.5499 43.3632 34.4716 43.3843 34.3934 43.4054C34.2653 43.4405 34.1372 43.4827 34.0091 43.5319C33.938 43.56 33.8668 43.5811 33.8028 43.6093C33.6463 43.6725 33.4968 43.7358 33.3403 43.8061C33.3047 43.8272 33.262 43.8413 33.2265 43.8553C33.0415 43.9467 32.8636 44.0451 32.6857 44.1436C32.6216 44.1787 32.5647 44.2209 32.5007 44.2631C32.4153 44.3193 32.3228 44.3685 32.2374 44.4318C31.5116 43.0328 30.9211 41.3104 30.4799 39.384C30.6364 39.3277 30.7859 39.2645 30.9424 39.2082C31.042 39.1731 31.1416 39.1449 31.2412 39.1098C31.3622 39.0676 31.4903 39.0395 31.6184 38.9973C31.6255 39.0184 31.6397 39.0395 31.6539 39.0676C31.6966 39.166 31.7464 39.2574 31.7962 39.3488C31.8745 39.5035 31.9528 39.6581 32.0382 39.7987C32.0951 39.8972 32.1662 39.9815 32.2303 40.0729C32.3228 40.2065 32.4224 40.333 32.5291 40.4526L32.7639 40.7057C32.8778 40.8181 32.9916 40.9236 33.1126 41.022C33.198 41.0923 33.2905 41.1696 33.383 41.2329C33.511 41.3243 33.6462 41.4087 33.7814 41.493C33.881 41.5493 33.9735 41.6126 34.0803 41.6618C34.2297 41.7391 34.3791 41.8024 34.5357 41.8586C34.6353 41.9008 34.7349 41.943 34.8416 41.9781C35.0195 42.0344 35.1974 42.0765 35.3824 42.1187C35.4749 42.1398 35.5603 42.1679 35.6528 42.182C35.9303 42.2242 36.2149 42.2523 36.5066 42.2523C36.7983 42.2523 37.083 42.2242 37.3605 42.182C37.453 42.1679 37.5455 42.1398 37.638 42.1187C37.8159 42.0765 38.0009 42.0414 38.1716 41.9852C38.2784 41.95 38.3851 41.9008 38.4918 41.8586C38.6412 41.8024 38.7836 41.7391 38.9259 41.6688C39.0397 41.6125 39.1464 41.5493 39.2532 41.486C39.3741 41.4087 39.4951 41.3384 39.6161 41.254C39.7228 41.1767 39.8295 41.0923 39.9291 41.0079C40.0288 40.9236 40.1284 40.8322 40.2209 40.7408C40.3205 40.6424 40.4201 40.5369 40.5126 40.4315C40.5909 40.3401 40.6691 40.2416 40.7474 40.1362C40.8328 40.0167 40.9182 39.9042 40.9964 39.7776C41.0676 39.6652 41.1245 39.5527 41.1814 39.4402C41.2455 39.3137 41.3166 39.1941 41.3664 39.0606C41.3736 39.0395 41.3878 39.0254 41.3949 39.0043C41.523 39.0395 41.6511 39.0746 41.772 39.1168C41.8716 39.152 41.9784 39.1801 42.078 39.2152C42.2345 39.2715 42.3839 39.3277 42.5334 39.391C42.0922 41.3102 41.5016 43.0397 40.7758 44.4316C40.6762 44.3613 40.5766 44.3051 40.477 44.2418C40.4272 44.2137 40.3774 44.1785 40.3276 44.1434L40.3204 44.1225ZM30.5579 45.9855C30.5579 45.9855 30.5223 46.0206 30.5081 46.0417C30.5081 46.0417 30.5081 46.0347 30.501 46.0277C30.4156 45.873 30.3089 45.7394 30.2093 45.5988C30.1523 45.5145 30.1025 45.4301 30.0385 45.3527C29.8677 45.1418 29.6756 44.938 29.4764 44.7622C29.3198 44.6216 29.1491 44.4951 28.9783 44.3755L28.9142 44.3334C28.0959 43.792 27.1354 43.4897 26.1464 43.4897C26.0467 43.4897 25.94 43.5038 25.8404 43.5108H25.755C25.5914 43.5249 25.4206 43.546 25.2569 43.5741C25.1929 43.5882 25.1288 43.5952 25.0577 43.6092C25.0079 43.6233 24.9581 43.6233 24.9154 43.6374C24.7588 43.4968 24.6094 43.3491 24.4529 43.1945C24.4813 43.1663 24.5169 43.1312 24.5525 43.1031C24.6948 43.1734 24.8442 43.2296 24.9936 43.2788C25.0363 43.2929 25.079 43.2999 25.1217 43.314C25.2427 43.3491 25.3708 43.3772 25.4988 43.4054C25.5486 43.4124 25.5913 43.4265 25.6411 43.4265C25.8119 43.4475 25.9756 43.4686 26.1535 43.4686C27.669 43.4686 28.964 42.5336 29.4906 41.219C29.9388 42.7656 30.4938 44.1576 31.1342 45.3316L31.0061 45.4582C30.8496 45.6269 30.7073 45.7956 30.565 45.9784L30.5579 45.9855ZM23.4853 20.3814C23.5992 20.4939 23.713 20.5993 23.8269 20.7048L23.834 20.7118C23.9549 20.8384 24.083 20.9579 24.1826 21.0352C24.1969 21.0493 24.2111 21.0563 24.2253 21.0704C24.5171 21.3234 24.8159 21.5765 25.129 21.8085C25.2784 21.928 25.435 22.0405 25.5915 22.153C25.7978 22.3006 26.0113 22.4483 26.2247 22.5889C26.3172 22.6521 26.4097 22.7225 26.5022 22.7857C26.6517 22.8771 26.8011 22.9755 26.9221 23.0458C27.2849 23.2708 27.6478 23.4747 27.9751 23.6364C28.0961 23.7067 28.2171 23.7629 28.338 23.8192C28.4021 23.8543 28.4803 23.8965 28.5657 23.9317C28.6511 23.9738 28.7365 24.009 28.8219 24.0441C28.4234 26.104 28.2028 28.2904 28.1673 30.5682H19.4366C19.5932 26.814 20.9949 23.2428 23.4639 20.3745L23.4853 20.3814ZM48.7592 21.0844C48.7592 21.0844 48.7948 21.0563 48.8161 21.0422C48.9371 20.9368 49.058 20.8313 49.1434 20.747C49.1932 20.7048 49.2359 20.6556 49.2857 20.6134C49.3498 20.5501 49.4209 20.4868 49.485 20.4236C49.485 20.4236 49.4921 20.4236 49.4992 20.4095C49.5063 20.4025 49.5134 20.3954 49.5276 20.3884C51.9967 23.2568 53.3984 26.8279 53.555 30.5822H44.8243C44.7888 28.3044 44.5682 26.1109 44.1697 24.0581C44.2551 24.0229 44.3405 23.9878 44.4259 23.9456C44.5184 23.9105 44.5966 23.8683 44.6536 23.8331C44.7745 23.7769 44.8884 23.7206 44.9738 23.6714C45.3366 23.4957 45.7067 23.2918 46.0411 23.0809C46.1976 22.9965 46.3471 22.8981 46.5036 22.7997C46.5961 22.7364 46.6886 22.6661 46.7811 22.6099C46.9945 22.4693 47.2009 22.3286 47.4072 22.174C47.5638 22.0615 47.7203 21.949 47.8768 21.8295C48.1828 21.5905 48.4816 21.3514 48.7734 21.0913L48.7592 21.0844ZM42.1775 37.746C42.0352 37.6968 41.8929 37.6476 41.7435 37.6054C41.7648 37.4226 41.7719 37.2258 41.7719 37.0289C41.7719 34.5965 40.0642 32.5507 37.7731 31.9811H43.3798C43.3442 34.0691 43.1521 36.0657 42.8035 37.9567C42.711 37.9216 42.6185 37.8934 42.526 37.8583C42.4121 37.8161 42.2912 37.781 42.1702 37.7458L42.1775 37.746ZM30.4728 37.8585C30.3731 37.8937 30.2806 37.9218 30.1881 37.9569C29.8395 36.0658 29.6474 34.0692 29.6118 31.9813H35.2185C32.9274 32.5508 31.2197 34.5966 31.2197 37.0292C31.2197 37.226 31.2268 37.4228 31.2481 37.6056C31.0987 37.6478 30.9564 37.697 30.8141 37.7462C30.7003 37.7814 30.5866 37.8163 30.4728 37.8585ZM24.8588 41.6619C24.2895 41.2611 23.9551 40.6073 23.9551 39.9184C23.9551 38.7302 24.937 37.7671 26.1395 37.7671C26.2676 37.7671 26.3886 37.7741 26.5095 37.7952C27.3563 37.9358 28.0465 38.5615 28.2528 39.4122C28.2955 39.5669 28.3168 39.7426 28.3168 39.9184C28.3168 41.1065 27.342 42.0696 26.1396 42.0696C25.67 42.0696 25.2359 41.929 24.8588 41.6619ZM30.1881 24.5994C30.1881 24.5994 30.2024 24.5994 30.2095 24.6064C30.4585 24.6908 30.7147 24.7821 30.9281 24.8454C31.042 24.8876 31.1558 24.9228 31.2768 24.9509C31.4404 25.0071 31.6183 25.0493 31.7891 25.0915C31.8887 25.1266 31.9883 25.1548 32.1022 25.1688C32.1306 25.1758 32.1662 25.1829 32.1947 25.1899C32.3654 25.2321 32.5433 25.2743 32.707 25.3094C32.835 25.3375 32.9631 25.3516 33.0912 25.3727C33.3402 25.4219 33.5893 25.4641 33.8454 25.4992C34.0162 25.5203 34.1798 25.5485 34.3506 25.5625C34.9768 25.6328 35.6029 25.675 36.2291 25.6891H36.8125C37.4316 25.675 38.0435 25.6398 38.6554 25.5695C38.8191 25.5484 38.9898 25.5274 39.1535 25.5063C39.4097 25.4711 39.6658 25.4219 39.922 25.3727C40.0429 25.3516 40.1639 25.3375 40.2849 25.3094C40.4556 25.2743 40.6335 25.2391 40.8043 25.1899C40.8327 25.1899 40.8683 25.1758 40.8968 25.1688C41.0106 25.1477 41.1102 25.1196 41.2098 25.0915C41.3806 25.0493 41.5585 25.0001 41.7222 24.9509C41.8431 24.9228 41.957 24.8876 42.0281 24.8595C42.2843 24.7822 42.5404 24.6908 42.8037 24.5994H42.8179C43.1666 26.4905 43.3587 28.4871 43.3942 30.575H29.6116C29.6472 28.487 29.8395 26.4904 30.1881 24.5994ZM32.7568 37.9148C32.6785 37.6547 32.6429 37.3524 32.6429 37.0289C32.6429 34.934 34.372 33.2256 36.4995 33.2256C38.627 33.2256 40.3561 34.934 40.3561 37.0289C40.3561 37.3594 40.3205 37.6546 40.2351 37.9429C39.8153 39.6371 38.2784 40.8252 36.4995 40.8252C34.7207 40.8252 33.1838 39.6443 32.7568 37.9148ZM44.7461 39.4052C44.981 38.4421 45.849 37.7672 46.8594 37.7672C48.0619 37.7672 49.0438 38.7303 49.0438 39.9184C49.0438 40.6073 48.7023 41.2612 48.1331 41.6619C47.7631 41.9291 47.3219 42.0697 46.8594 42.0697C45.6569 42.0697 44.6821 41.1065 44.6821 39.9184C44.6821 39.7427 44.7035 39.5669 44.7461 39.4052ZM50.1967 41.2612C50.218 41.212 50.2393 41.1628 50.2536 41.1136C50.282 41.0362 50.3034 40.9519 50.3247 40.8745L50.3674 40.7269C50.3888 40.6355 50.403 40.5511 50.4172 40.4597C50.4172 40.4176 50.4315 40.3754 50.4386 40.3262C50.4528 40.1926 50.467 40.052 50.467 39.9184C50.467 37.957 48.8518 36.3611 46.8595 36.3611C46.6674 36.3611 46.4753 36.3822 46.2903 36.4103C46.2334 36.4174 46.1764 36.4314 46.1195 36.4455C45.9914 36.4736 45.8705 36.5017 45.7495 36.5369C45.6855 36.558 45.6214 36.5791 45.5574 36.6072C45.4436 36.6494 45.3368 36.6986 45.2372 36.7478C45.1803 36.7759 45.1163 36.804 45.0593 36.8392C44.9526 36.9024 44.853 36.9657 44.7534 37.0431C44.7036 37.0782 44.6538 37.1063 44.6111 37.1415C44.5257 37.2047 44.4474 37.2821 44.3763 37.3524C44.6466 35.637 44.7889 33.8373 44.8245 31.9743H53.5552C53.4129 35.4051 52.2246 38.681 50.1398 41.409C50.1611 41.3598 50.1825 41.3036 50.2038 41.2543L50.1967 41.2612ZM48.4961 19.4042L48.4534 19.4464C48.3324 19.5659 48.2114 19.6783 48.0834 19.7908C48.0122 19.8541 47.9411 19.9244 47.8557 19.9947C47.5355 20.2829 47.194 20.5571 46.8453 20.8243C46.8382 20.8313 46.8239 20.8384 46.8168 20.8454C46.461 21.1125 46.0982 21.3656 45.7139 21.6047C45.5858 21.682 45.4649 21.7664 45.3012 21.8577C44.9881 22.0546 44.668 22.2374 44.3051 22.4061C44.2126 22.4553 44.1201 22.5046 44.0276 22.5397C43.9991 22.5538 43.9351 22.5889 43.9066 22.61C43.8924 22.61 43.8781 22.6241 43.8639 22.6311C43.0314 19.1301 41.7293 16.4233 40.1568 14.7851C43.316 15.46 46.2048 17.0208 48.5532 19.3407C48.5318 19.3548 48.5176 19.3759 48.5034 19.397L48.4961 19.4042ZM42.5333 23.2005L42.3198 23.2849C42.085 23.3692 41.8431 23.4466 41.5584 23.538C41.5015 23.5591 41.4446 23.5801 41.3806 23.5942C41.3521 23.5942 41.3307 23.6083 41.3094 23.6153C41.16 23.6645 40.9963 23.7067 40.8327 23.7489C40.7971 23.7559 40.7615 23.77 40.733 23.784C40.6975 23.7981 40.6619 23.8051 40.6192 23.8121C40.5836 23.8121 40.5552 23.8262 40.5196 23.8332H40.4982C40.3346 23.8754 40.1709 23.9176 40.0001 23.9527C39.5946 24.0371 39.1819 24.1074 38.7763 24.1637C38.7265 24.1637 38.6767 24.1777 38.6269 24.1847C38.2284 24.234 37.8228 24.2691 37.4173 24.2902C37.218 24.3043 37.0117 24.3043 36.8053 24.3113C36.7057 24.3113 36.6061 24.3183 36.5065 24.3183H36.2361C36.0155 24.3183 35.8021 24.3113 35.5815 24.2972C35.183 24.2761 34.7846 24.241 34.3861 24.1918C34.3363 24.1918 34.2794 24.1777 34.2296 24.1707C33.824 24.1144 33.4113 24.0512 32.9986 23.9598C32.835 23.9317 32.6713 23.8895 32.5077 23.8473H32.4863C32.4507 23.8403 32.4223 23.8332 32.3867 23.8262C32.344 23.8262 32.3084 23.8121 32.2729 23.7981C32.2373 23.784 32.2088 23.777 32.1732 23.7629C32.0167 23.7278 31.853 23.6786 31.6965 23.6294C31.6751 23.6223 31.6467 23.6153 31.6253 23.6083C31.5613 23.5942 31.5044 23.5801 31.4048 23.538C31.1628 23.4606 30.9209 23.3833 30.7003 23.306C30.6221 23.2778 30.5509 23.2497 30.4797 23.2146C31.7107 17.8576 34.0445 14.4197 36.5136 14.4197C38.9826 14.4197 41.3165 17.8574 42.5474 23.2146L42.5333 23.2005ZM29.1422 22.6381C29.1422 22.6381 29.0853 22.61 29.0639 22.6029C29.0355 22.5818 29.007 22.5678 28.9714 22.5537C28.8789 22.5115 28.7864 22.4694 28.6584 22.3991C28.3382 22.2444 28.018 22.0686 27.6765 21.8507C27.5413 21.7733 27.4203 21.696 27.2709 21.5976C26.9009 21.3656 26.538 21.1125 26.1823 20.8453C26.1751 20.8383 26.1609 20.8313 26.1538 20.8242C25.8051 20.5571 25.4565 20.2759 25.1221 19.9736C25.0296 19.9033 24.9442 19.8189 24.8588 19.7275C24.8446 19.7064 24.8232 19.6924 24.8019 19.6783C24.7805 19.6643 24.7663 19.6432 24.745 19.6291C24.6951 19.5799 24.6382 19.5307 24.5884 19.4815L24.5101 19.4041C24.4888 19.3901 24.4746 19.369 24.4603 19.3479C26.8084 17.0279 29.6973 15.4742 32.8567 14.7923C31.2842 16.4303 29.9892 19.137 29.1496 22.6311L29.1422 22.6381ZM28.1816 31.9815C28.2101 33.8375 28.3595 35.6442 28.6299 37.3596C28.5516 37.2822 28.4734 37.2119 28.388 37.1416C28.3524 37.1135 28.3097 37.0854 28.267 37.0573C28.1603 36.9799 28.0536 36.9096 27.9397 36.8393C27.8828 36.8112 27.8259 36.7831 27.7689 36.7479C27.6622 36.6917 27.5484 36.6425 27.4416 36.6003C27.3776 36.5792 27.3207 36.5511 27.2566 36.53C27.1357 36.4948 27.0147 36.4597 26.8866 36.4386C26.8297 36.4245 26.7728 36.4105 26.7159 36.4035C26.5309 36.3753 26.3387 36.3542 26.1466 36.3542C24.1543 36.3542 22.5391 37.9501 22.5391 39.9115C22.5391 40.0521 22.5462 40.1857 22.5676 40.3193C22.5676 40.3615 22.5818 40.4107 22.5889 40.4529C22.6032 40.5442 22.6174 40.6286 22.6387 40.72C22.653 40.7692 22.6672 40.8255 22.6814 40.8747C22.7028 40.952 22.7241 41.0293 22.7526 41.1067C22.7739 41.1629 22.7953 41.2121 22.8166 41.2613C22.838 41.3105 22.8522 41.3598 22.8807 41.409C20.7887 38.6812 19.6076 35.405 19.4653 31.9742H28.1959L28.1816 31.9815ZM23.4857 52.0459C23.1299 52.0459 22.8097 51.9053 22.5749 51.6452C22.3401 51.3921 22.2405 51.0617 22.2761 50.7172L22.5749 48.0527C22.7244 46.6959 23.6636 45.5359 24.9657 45.093C25.1365 45.0368 25.3072 44.9946 25.478 44.9594C25.5563 44.9454 25.6345 44.9383 25.7057 44.9313C25.7982 44.9173 25.8907 44.9102 25.9832 44.9102H26.2749C26.3603 44.9102 26.4457 44.9243 26.5311 44.9313C26.7232 44.9524 26.9082 44.9876 27.0932 45.0438C27.1644 45.0649 27.2355 45.079 27.3067 45.1C27.3992 45.1352 27.4917 45.1703 27.5771 45.2125C27.6696 45.2547 27.7692 45.2969 27.8546 45.3531C27.9257 45.3883 27.9898 45.4305 28.0538 45.4726C28.2103 45.5711 28.3669 45.6836 28.5163 45.8101C28.6586 45.9366 28.7867 46.0702 28.9005 46.2108C28.9432 46.26 28.9717 46.3163 29.0072 46.3655C29.0784 46.4639 29.1496 46.5623 29.2136 46.6678C29.2492 46.7311 29.2776 46.7943 29.3132 46.8646C29.363 46.9631 29.4128 47.0685 29.4555 47.1669C29.484 47.2372 29.5053 47.3146 29.5267 47.3849C29.548 47.4622 29.5694 47.5325 29.5907 47.6099C29.5907 47.6239 29.5836 47.638 29.5765 47.652C29.4413 47.9614 29.3345 48.2777 29.242 48.6011C29.242 48.6222 29.2349 48.6363 29.2278 48.6574C29.1424 48.9948 29.0713 49.3323 29.0357 49.6838L28.7724 52.0529H23.4713L23.4857 52.0459ZM42.427 55.8212C41.9858 56.3063 41.3525 56.5875 40.6908 56.5875H32.309C31.6473 56.5875 31.0069 56.3063 30.5729 55.8212C30.1317 55.329 29.9253 54.6963 30.0036 54.0355L30.1459 52.7349V52.7208L30.4661 49.8314C30.5373 49.2127 30.7009 48.6081 30.9642 48.0457C30.9784 48.0105 30.9856 47.9964 30.9998 47.9613C31.3484 47.2161 31.8607 46.5412 32.4869 46.0069C33.5969 45.0297 35.0271 44.4954 36.5071 44.4954C36.6921 44.4954 36.8771 44.5024 37.0621 44.5235C38.3429 44.636 39.5596 45.1562 40.5202 46.0069C40.5344 46.0209 40.5487 46.035 40.57 46.049C41.182 46.5974 41.6658 47.2372 42.0073 47.9683V47.9753C42.0144 48.0035 42.0215 48.0245 42.0358 48.0527C42.299 48.6221 42.4627 49.2197 42.5339 49.8454L42.854 52.7348V52.7559L42.9964 54.0565C43.0746 54.7103 42.8683 55.3431 42.4271 55.8352L42.427 55.8212ZM50.4244 51.6452C50.1896 51.9053 49.8694 52.0459 49.5137 52.0459H44.2125L43.9493 49.6768C43.9137 49.3252 43.8425 48.9878 43.7571 48.6504C43.7571 48.6363 43.75 48.6152 43.7429 48.6012C43.6575 48.2778 43.5437 47.9614 43.4085 47.6521C43.4085 47.638 43.4014 47.6239 43.3943 47.6099C43.4156 47.5325 43.437 47.4482 43.4583 47.3708C43.4868 47.2795 43.5152 47.1881 43.5508 47.1037C43.5935 47.0053 43.6433 46.9068 43.6931 46.8155C43.7358 46.7311 43.7785 46.6467 43.8283 46.5694C43.8852 46.478 43.9493 46.3936 44.0204 46.3093C44.0773 46.239 44.1271 46.1616 44.1912 46.0984C44.2623 46.014 44.3477 45.9437 44.426 45.8734C44.49 45.8101 44.5541 45.7469 44.6181 45.6906C44.7035 45.6203 44.8031 45.5641 44.8956 45.5008C44.9668 45.4516 45.0379 45.4024 45.1091 45.3602C45.2158 45.304 45.3225 45.2547 45.4364 45.2126C45.5075 45.1774 45.5787 45.1423 45.657 45.1141C45.785 45.072 45.9131 45.0438 46.0483 45.0087C46.1123 44.9946 46.1764 44.9665 46.2475 44.9595C46.4468 44.9243 46.6602 44.9032 46.8666 44.9032C47.265 44.9032 47.6635 44.9665 48.0406 45.1001C48.496 45.2618 48.9087 45.5008 49.2574 45.8101C49.912 46.3936 50.3318 47.188 50.4243 48.0598L50.7231 50.7243C50.7587 51.0688 50.6591 51.3992 50.4243 51.6523L50.4244 51.6452Z" stroke="#5AC2BF" mask="url(#path-2-outside-1_223_247)"/>
</svg>
