<svg width="78" height="78" viewBox="0 0 78 78" fill="none" xmlns="http://www.w3.org/2000/svg">
<circle cx="39" cy="39" r="39" fill="#202F46"/>
<mask id="path-2-outside-1_300_609" maskUnits="userSpaceOnUse" x="17.7207" y="14.1667" width="42" height="51" fill="black">
<rect fill="white" x="17.7207" y="14.1667" width="42" height="51"/>
<path d="M54.8585 52.9725C54.7141 51.6626 54.0909 50.4516 53.1181 49.5757C52.8825 49.3701 52.6317 49.1873 52.3734 49.0198C52.571 48.8217 52.7762 48.6161 52.9662 48.4105C56.3634 44.7395 58.2407 39.9643 58.2407 34.9759C58.2407 29.9875 56.3711 25.2122 52.9662 21.5413C49.227 17.4895 43.9449 15.1667 38.4807 15.1667C33.0165 15.1667 27.7342 17.4896 23.9952 21.5335C20.598 25.2045 18.7207 29.9797 18.7207 34.9681C18.7207 39.9565 20.5903 44.7318 23.9952 48.4027C24.1928 48.6159 24.398 48.8216 24.5956 49.0196C23.2276 49.8726 22.2776 51.3197 22.1028 52.9723L21.7836 55.8589C21.6924 56.6509 21.9508 57.4506 22.4828 58.0523C23.0148 58.654 23.7824 58.9967 24.588 58.9967H30.0829L30.0297 59.4613C29.9005 60.5961 30.2577 61.7309 31.0177 62.5763C31.7777 63.4293 32.8645 63.9167 34.012 63.9167H42.9647C44.1047 63.9167 45.1991 63.4293 45.9591 62.5763C46.719 61.7232 47.0763 60.5885 46.9471 59.4613L46.8939 58.9967H52.3887C53.1943 58.9967 53.9619 58.654 54.4939 58.0523C55.0259 57.4582 55.2767 56.6585 55.1931 55.8589L54.8739 52.9723L54.8585 52.9725ZM48.6871 48.2734C48.6035 48.2886 48.5199 48.3115 48.4363 48.3267C48.2387 48.3724 48.0411 48.4181 47.8511 48.4867C47.7675 48.5171 47.6839 48.54 47.6003 48.578C47.3875 48.6618 47.1899 48.7532 46.9923 48.8675C46.9467 48.8903 46.8935 48.9132 46.8479 48.9436C46.6123 49.0807 46.3843 49.2407 46.1715 49.4158C46.1183 49.4615 46.0651 49.5072 46.0119 49.5605C45.8599 49.6976 45.7079 49.8423 45.5711 49.9946C45.5103 50.0632 45.4495 50.1317 45.3963 50.2003C45.2671 50.3602 45.1531 50.5202 45.0467 50.6953C45.0011 50.7639 44.9631 50.8248 44.9175 50.8933C44.9023 50.9162 44.8871 50.939 44.8719 50.9695C44.7655 50.8324 44.6515 50.7029 44.5451 50.5735C44.4919 50.5125 44.4463 50.4516 44.3931 50.3983C44.3399 50.3374 44.2791 50.284 44.2183 50.2231C44.9023 48.9512 45.4951 47.4432 45.9739 45.7677C46.5363 47.1919 47.9195 48.2049 49.5383 48.2049C49.7207 48.2049 49.9031 48.1896 50.0855 48.1592C50.1387 48.1592 50.1919 48.1439 50.2375 48.1287C50.3743 48.1058 50.5035 48.0754 50.6327 48.0373C50.6783 48.0221 50.7239 48.0145 50.7771 47.9992C50.9367 47.9459 51.0963 47.885 51.2483 47.8088C51.2787 47.8393 51.3167 47.8774 51.3547 47.9078C51.1875 48.0754 51.0279 48.2353 50.8607 48.3876C50.7695 48.3648 50.6707 48.3496 50.5719 48.3343C50.4959 48.3191 50.4199 48.3039 50.3515 48.2886C50.0855 48.2506 49.8195 48.2201 49.5459 48.2201C49.2571 48.2201 48.9683 48.2506 48.6872 48.2963L48.6871 48.2734ZM42.5614 48.8827C42.3714 48.7684 42.1814 48.6618 41.9838 48.5704C41.9382 48.5476 41.885 48.5247 41.8394 48.5095C41.6874 48.441 41.5278 48.3724 41.3758 48.3115C41.2998 48.281 41.2238 48.2582 41.1478 48.2277C41.011 48.182 40.8818 48.1363 40.745 48.0982C40.6614 48.0754 40.5778 48.0525 40.4942 48.0297C40.3574 47.9916 40.2206 47.9611 40.0838 47.9383C40.0002 47.9231 39.9166 47.9078 39.833 47.8926C39.681 47.8698 39.5366 47.8469 39.3846 47.8317C39.3086 47.8241 39.2402 47.8164 39.1642 47.8088C38.9438 47.7936 38.7158 47.7784 38.4878 47.7784C38.2598 47.7784 38.0394 47.7936 37.8114 47.8088C37.743 47.8088 37.667 47.8241 37.5986 47.8317C37.4466 47.8469 37.2946 47.8698 37.1426 47.8926C37.059 47.9078 36.9754 47.9231 36.8994 47.9383C36.7626 47.9688 36.6258 47.9992 36.4814 48.0373C36.3978 48.0602 36.3142 48.083 36.2306 48.1059C36.0938 48.1439 35.957 48.1896 35.8202 48.2429C35.7442 48.2734 35.6682 48.2963 35.5998 48.3267C35.4326 48.3953 35.273 48.4638 35.1058 48.54C35.0678 48.5628 35.0222 48.578 34.9842 48.5933C34.7866 48.6923 34.5966 48.7989 34.4066 48.9055C34.3382 48.9436 34.2774 48.9893 34.209 49.035C34.1178 49.0959 34.019 49.1493 33.9278 49.2178C33.1526 47.7022 32.5218 45.8362 32.0506 43.7493C32.2178 43.6884 32.3774 43.6198 32.5446 43.5589C32.651 43.5208 32.7574 43.4904 32.8638 43.4523C32.993 43.4066 33.1298 43.3761 33.2666 43.3304C33.2742 43.3533 33.2894 43.3761 33.3046 43.4066C33.3502 43.5132 33.4034 43.6122 33.4566 43.7112C33.5402 43.8788 33.6238 44.0463 33.715 44.1987C33.7758 44.3053 33.8518 44.3967 33.9202 44.4957C34.019 44.6404 34.1254 44.7775 34.2394 44.907L34.4902 45.1811C34.6118 45.303 34.7334 45.4172 34.8626 45.5239C34.9538 45.6 35.0526 45.6838 35.1514 45.7524C35.2882 45.8514 35.4326 45.9428 35.577 46.0341C35.6834 46.0951 35.7822 46.1636 35.8962 46.2169C36.0558 46.3007 36.2154 46.3693 36.3826 46.4302C36.489 46.4759 36.5954 46.5216 36.7094 46.5597C36.8994 46.6206 37.0894 46.6663 37.287 46.712C37.3858 46.7348 37.477 46.7653 37.5758 46.7805C37.8722 46.8262 38.1762 46.8567 38.4878 46.8567C38.7994 46.8567 39.1034 46.8262 39.3998 46.7805C39.4986 46.7653 39.5974 46.7348 39.6962 46.712C39.8862 46.6663 40.0838 46.6282 40.2662 46.5673C40.3802 46.5292 40.4942 46.4759 40.6082 46.4302C40.7678 46.3692 40.9198 46.3007 41.0718 46.2245C41.1934 46.1636 41.3074 46.0951 41.4214 46.0265C41.5506 45.9427 41.6798 45.8666 41.809 45.7752C41.923 45.6914 42.037 45.6 42.1434 45.5086C42.2498 45.4172 42.3562 45.3182 42.455 45.2192C42.5614 45.1126 42.6678 44.9984 42.7666 44.8841C42.8502 44.7851 42.9338 44.6785 43.0174 44.5642C43.1086 44.4348 43.1998 44.3129 43.2834 44.1758C43.3594 44.0539 43.4202 43.9321 43.481 43.8102C43.5494 43.6731 43.6254 43.5437 43.6786 43.399C43.6862 43.3761 43.7014 43.3609 43.709 43.338C43.8458 43.3761 43.9826 43.4142 44.1118 43.4599C44.2182 43.498 44.3322 43.5284 44.4386 43.5665C44.6058 43.6274 44.7654 43.6884 44.925 43.7569C44.4538 45.8361 43.823 47.7097 43.0478 49.2176C42.9414 49.1414 42.835 49.0805 42.7286 49.012C42.6754 48.9815 42.6222 48.9434 42.569 48.9053L42.5614 48.8827ZM32.1339 50.9009C32.1339 50.9009 32.0959 50.939 32.0807 50.9619C32.0807 50.9619 32.0807 50.9543 32.0731 50.9466C31.9819 50.7791 31.8679 50.6344 31.7615 50.4821C31.7007 50.3907 31.6475 50.2993 31.5791 50.2155C31.3967 49.987 31.1915 49.7661 30.9787 49.5757C30.8115 49.4234 30.6291 49.2863 30.4467 49.1569L30.3783 49.1112C29.5043 48.5247 28.4783 48.1972 27.4219 48.1972C27.3155 48.1972 27.2015 48.2125 27.0951 48.2201H27.0039C26.8291 48.2353 26.6467 48.2582 26.4719 48.2886C26.4035 48.3038 26.3351 48.3115 26.2591 48.3267C26.2059 48.3419 26.1527 48.3419 26.1071 48.3572C25.9399 48.2048 25.7803 48.0449 25.6131 47.8773C25.6435 47.8469 25.6815 47.8088 25.7195 47.7783C25.8715 47.8545 26.0311 47.9154 26.1907 47.9687C26.2363 47.984 26.2819 47.9916 26.3275 48.0068C26.4567 48.0449 26.5935 48.0754 26.7303 48.1058C26.7835 48.1134 26.8291 48.1287 26.8823 48.1287C27.0647 48.1515 27.2395 48.1744 27.4295 48.1744C29.0483 48.1744 30.4315 47.1614 30.9939 45.7372C31.4727 47.4128 32.0654 48.9207 32.7495 50.1926L32.6127 50.3297C32.4455 50.5125 32.2935 50.6953 32.1415 50.8933L32.1339 50.9009ZM24.5796 23.1632C24.7012 23.285 24.8228 23.3993 24.9444 23.5135L24.952 23.5211C25.0812 23.6582 25.218 23.7877 25.3244 23.8715C25.3396 23.8867 25.3548 23.8943 25.37 23.9096C25.6816 24.1837 26.0008 24.4579 26.3352 24.7092C26.4948 24.8387 26.662 24.9606 26.8292 25.0824C27.0496 25.2424 27.2776 25.4023 27.5056 25.5546C27.6044 25.6232 27.7032 25.6993 27.802 25.7679C27.9616 25.8669 28.1212 25.9735 28.2504 26.0497C28.638 26.2934 29.0256 26.5143 29.3752 26.6894C29.5044 26.7656 29.6336 26.8265 29.7628 26.8875C29.8312 26.9255 29.9148 26.9712 30.006 27.0093C30.0972 27.055 30.1884 27.0931 30.2796 27.1312C29.854 29.3627 29.6184 31.7313 29.5804 34.1989H20.2552C20.4224 30.1319 21.9196 26.2631 24.5568 23.1557L24.5796 23.1632ZM51.5748 23.9248C51.5748 23.9248 51.6128 23.8943 51.6356 23.8791C51.7648 23.7649 51.894 23.6506 51.9852 23.5592C52.0384 23.5135 52.084 23.4602 52.1372 23.4145C52.2056 23.346 52.2816 23.2774 52.35 23.2089C52.35 23.2089 52.3576 23.2089 52.3652 23.1937C52.3728 23.186 52.3804 23.1784 52.3956 23.1708C55.0328 26.2782 56.53 30.1469 56.6973 34.214H47.372C47.334 31.7464 47.0984 29.3702 46.6728 27.1463C46.764 27.1082 46.8552 27.0701 46.9464 27.0244C47.0452 26.9864 47.1288 26.9407 47.1896 26.9026C47.3188 26.8416 47.4404 26.7807 47.5316 26.7274C47.9192 26.537 48.3144 26.3161 48.6716 26.0876C48.8388 25.9963 48.9984 25.8896 49.1656 25.783C49.2644 25.7145 49.3632 25.6383 49.462 25.5774C49.69 25.425 49.9104 25.2727 50.1308 25.1052C50.298 24.9833 50.4652 24.8615 50.6324 24.732C50.9592 24.473 51.2784 24.2141 51.59 23.9323L51.5748 23.9248ZM44.5449 41.9749C44.3929 41.9216 44.2409 41.8682 44.0813 41.8225C44.1041 41.6245 44.1117 41.4113 44.1117 41.198C44.1117 38.5629 42.2877 36.3466 39.8405 35.7296H45.8291C45.7911 37.9915 45.5859 40.1545 45.2135 42.2031C45.1147 42.1651 45.0159 42.1346 44.9171 42.0965C44.7955 42.0508 44.6663 42.0127 44.5371 41.9746L44.5449 41.9749ZM32.043 42.0967C31.9366 42.1348 31.8378 42.1653 31.739 42.2034C31.3666 40.1546 31.1614 37.9917 31.1234 35.7298H37.1119C34.6648 36.3467 32.8407 38.563 32.8407 41.1983C32.8407 41.4115 32.8483 41.6248 32.8712 41.8228C32.7116 41.8685 32.5596 41.9218 32.4076 41.9751C32.286 42.0132 32.1646 42.051 32.043 42.0967ZM26.0466 46.217C25.4386 45.7829 25.0814 45.0746 25.0814 44.3282C25.0814 43.0411 26.1302 41.9977 27.4146 41.9977C27.5514 41.9977 27.6806 42.0053 27.8098 42.0282C28.7142 42.1805 29.4514 42.8583 29.6718 43.7799C29.7174 43.9475 29.7402 44.1379 29.7402 44.3283C29.7402 45.6154 28.699 46.6588 27.4146 46.6588C26.9131 46.6588 26.4494 46.5064 26.0466 46.217ZM31.739 27.7327C31.739 27.7327 31.7542 27.7327 31.7618 27.7403C32.0278 27.8317 32.3014 27.9307 32.5293 27.9992C32.6509 28.0449 32.7725 28.083 32.9017 28.1135C33.0765 28.1744 33.2665 28.2201 33.4489 28.2658C33.5553 28.3039 33.6617 28.3343 33.7833 28.3496C33.8137 28.3572 33.8517 28.3648 33.8821 28.3724C34.0645 28.4181 34.2545 28.4638 34.4293 28.5019C34.5661 28.5324 34.7029 28.5476 34.8397 28.5704C35.1057 28.6238 35.3718 28.6694 35.6453 28.7075C35.8277 28.7304 36.0025 28.7608 36.1849 28.7761C36.8537 28.8522 37.5225 28.8979 38.1913 28.9132H38.8145C39.4757 28.8979 40.1293 28.8598 40.7829 28.7837C40.9577 28.7608 41.1401 28.738 41.3149 28.7151C41.5885 28.6771 41.8621 28.6238 42.1357 28.5704C42.2649 28.5476 42.3941 28.5324 42.5233 28.5019C42.7057 28.4638 42.8957 28.4257 43.0781 28.3724C43.1085 28.3724 43.1465 28.3572 43.1769 28.3496C43.2985 28.3267 43.4049 28.2963 43.5113 28.2658C43.6937 28.2201 43.8837 28.1668 44.0585 28.1135C44.1877 28.083 44.3093 28.0449 44.3853 28.0145C44.6589 27.9307 44.9325 27.8317 45.2137 27.7327H45.2289C45.6013 29.7814 45.8065 31.9444 45.8445 34.2062H31.1231C31.1611 31.9443 31.3666 29.7813 31.739 27.7327ZM34.4825 42.1577C34.3989 41.8759 34.3609 41.5484 34.3609 41.198C34.3609 38.9285 36.2078 37.0777 38.4802 37.0777C40.7526 37.0777 42.5994 38.9285 42.5994 41.198C42.5994 41.556 42.5614 41.8759 42.4702 42.1881C42.0218 44.0236 40.3802 45.3107 38.4802 45.3107C36.5802 45.3107 34.9386 44.0313 34.4825 42.1577ZM47.2885 43.7723C47.5393 42.7289 48.4665 41.9978 49.5457 41.9978C50.8301 41.9978 51.8789 43.0412 51.8789 44.3283C51.8789 45.0746 51.5141 45.783 50.9061 46.2171C50.5109 46.5065 50.0397 46.6588 49.5457 46.6588C48.2613 46.6588 47.2201 45.6154 47.2201 44.3283C47.2201 44.1379 47.2429 43.9475 47.2885 43.7723ZM53.1102 45.783C53.133 45.7297 53.1558 45.6763 53.171 45.623C53.2014 45.5393 53.2242 45.4479 53.247 45.3641L53.2926 45.2042C53.3154 45.1051 53.3306 45.0138 53.3458 44.9147C53.3458 44.869 53.361 44.8233 53.3686 44.77C53.3838 44.6253 53.399 44.473 53.399 44.3283C53.399 42.2034 51.6738 40.4746 49.5458 40.4746C49.3406 40.4746 49.1354 40.4974 48.9378 40.5279C48.877 40.5355 48.8162 40.5507 48.7554 40.566C48.6186 40.5964 48.4894 40.6269 48.3602 40.665C48.2918 40.6878 48.2234 40.7107 48.155 40.7411C48.0334 40.7868 47.9194 40.8401 47.813 40.8935C47.7522 40.9239 47.6838 40.9544 47.623 40.9925C47.509 41.061 47.4026 41.1296 47.2962 41.2133C47.243 41.2514 47.1898 41.2819 47.1442 41.32C47.053 41.3885 46.9694 41.4723 46.8934 41.5484C47.1822 39.6901 47.3342 37.7404 47.3722 35.7222H56.6975C56.5455 39.4388 55.2762 42.9878 53.0495 45.9431C53.0723 45.8898 53.0951 45.8289 53.1179 45.7756L53.1102 45.783ZM51.2938 22.1045L51.2482 22.1502C51.119 22.2797 50.9898 22.4016 50.853 22.5234C50.777 22.592 50.701 22.6681 50.6098 22.7443C50.2678 23.0565 49.903 23.3536 49.5306 23.643C49.523 23.6506 49.5078 23.6582 49.5002 23.6659C49.1202 23.9553 48.7326 24.2294 48.3222 24.4884C48.1854 24.5722 48.0562 24.6636 47.8814 24.7626C47.547 24.9758 47.205 25.1739 46.8174 25.3567C46.7186 25.41 46.6198 25.4633 46.521 25.5014C46.4906 25.5166 46.4222 25.5547 46.3918 25.5775C46.3766 25.5775 46.3614 25.5928 46.3462 25.6004C45.457 21.8076 44.0662 18.8753 42.3866 17.1006C45.761 17.8317 48.8464 19.5225 51.3548 22.0358C51.332 22.051 51.3168 22.0739 51.3016 22.0967L51.2938 22.1045ZM44.9249 26.2172L44.6969 26.3086C44.4461 26.4 44.1877 26.4838 43.8837 26.5828C43.8229 26.6057 43.7621 26.6285 43.6937 26.6437C43.6633 26.6437 43.6405 26.659 43.6177 26.6666C43.4581 26.7199 43.2833 26.7656 43.1084 26.8113C43.0704 26.8189 43.0324 26.8341 43.002 26.8494C42.964 26.8646 42.926 26.8722 42.8804 26.8798C42.8424 26.8798 42.8121 26.8951 42.774 26.9027H42.7512C42.5764 26.9484 42.4016 26.9941 42.2192 27.0322C41.786 27.1236 41.3452 27.1997 40.912 27.2606C40.8588 27.2606 40.8056 27.2759 40.7524 27.2835C40.3268 27.3368 39.8936 27.3749 39.4605 27.3977C39.2477 27.413 39.0273 27.413 38.8068 27.4206C38.7004 27.4206 38.594 27.4282 38.4876 27.4282H38.1988C37.9632 27.4282 37.7352 27.4206 37.4996 27.4054C37.074 27.3825 36.6484 27.3444 36.2228 27.2911C36.1696 27.2911 36.1088 27.2759 36.0556 27.2683C35.6224 27.2073 35.1816 27.1388 34.7408 27.0398C34.566 27.0093 34.3912 26.9636 34.2165 26.9179H34.1937C34.1557 26.9103 34.1253 26.9027 34.0873 26.8951C34.0417 26.8951 34.0036 26.8798 33.9657 26.8646C33.9277 26.8494 33.8973 26.8418 33.8593 26.8265C33.6921 26.7884 33.5173 26.7351 33.35 26.6818C33.3272 26.6742 33.2968 26.6666 33.274 26.659C33.2056 26.6437 33.1448 26.6285 33.0384 26.5828C32.78 26.499 32.5216 26.4153 32.286 26.3315C32.2024 26.301 32.1264 26.2706 32.0504 26.2325C33.3652 20.4291 35.858 16.7047 38.4952 16.7047C41.1324 16.7047 43.6253 20.4289 44.94 26.2325L44.9249 26.2172ZM30.6218 25.608C30.6218 25.608 30.561 25.5775 30.5382 25.5699C30.5078 25.547 30.4774 25.5318 30.4394 25.5166C30.3406 25.4709 30.2418 25.4252 30.105 25.349C29.763 25.1814 29.421 24.991 29.0562 24.7549C28.9118 24.6711 28.7826 24.5874 28.623 24.4807C28.2278 24.2294 27.8402 23.9552 27.4602 23.6658C27.4526 23.6582 27.4374 23.6506 27.4298 23.643C27.0574 23.3535 26.6851 23.0489 26.3278 22.7214C26.229 22.6453 26.1378 22.5539 26.0466 22.4549C26.0314 22.432 26.0086 22.4168 25.9858 22.4015C25.963 22.3863 25.9478 22.3635 25.925 22.3482C25.8718 22.2949 25.811 22.2416 25.7578 22.1883L25.6742 22.1045C25.6514 22.0893 25.6362 22.0664 25.621 22.0436C28.129 19.5303 31.2146 17.8471 34.5893 17.1083C32.9097 18.8829 31.5265 21.8151 30.6297 25.6004L30.6218 25.608ZM29.5958 35.7299C29.6262 37.7406 29.7858 39.6979 30.0746 41.5562C29.991 41.4724 29.9074 41.3963 29.8162 41.3201C29.7782 41.2896 29.7326 41.2592 29.687 41.2287C29.573 41.1449 29.459 41.0688 29.3374 40.9926C29.2766 40.9622 29.2158 40.9317 29.155 40.8936C29.041 40.8327 28.9194 40.7794 28.8054 40.7337C28.737 40.7108 28.6762 40.6804 28.6078 40.6575C28.4786 40.6194 28.3494 40.5814 28.2126 40.5585C28.1518 40.5433 28.091 40.528 28.0302 40.5204C27.8326 40.49 27.6274 40.4671 27.4222 40.4671C25.2942 40.4671 23.569 42.196 23.569 44.3208C23.569 44.4732 23.5766 44.6179 23.5994 44.7626C23.5994 44.8083 23.6146 44.8616 23.6222 44.9073C23.6374 45.0063 23.6526 45.0977 23.6754 45.1967C23.6906 45.25 23.7058 45.3109 23.721 45.3642C23.7438 45.448 23.7666 45.5318 23.797 45.6156C23.8198 45.6765 23.8426 45.7298 23.8654 45.7831C23.8882 45.8364 23.9034 45.8898 23.9338 45.9431C21.6993 42.988 20.4378 39.4388 20.2858 35.7221H29.611L29.5958 35.7299ZM24.58 57.4665C24.2 57.4665 23.858 57.3141 23.6072 57.0323C23.3564 56.7582 23.25 56.4002 23.288 56.027L23.6072 53.1405C23.7668 51.6706 24.77 50.4139 26.1608 49.9341C26.3432 49.8732 26.5256 49.8275 26.708 49.7894C26.7916 49.7742 26.8752 49.7666 26.9512 49.7589C27.05 49.7437 27.1488 49.7361 27.2476 49.7361H27.5592C27.6504 49.7361 27.7416 49.7513 27.8328 49.7589C28.038 49.7818 28.2356 49.8199 28.4332 49.8808C28.5092 49.9037 28.5852 49.9189 28.6612 49.9417C28.76 49.9798 28.8588 50.0179 28.95 50.0636C29.0488 50.1093 29.1552 50.155 29.2464 50.2159C29.3224 50.254 29.3908 50.2997 29.4592 50.3454C29.6264 50.452 29.7936 50.5739 29.9532 50.711C30.1052 50.848 30.242 50.9928 30.3636 51.1451C30.4092 51.1984 30.4396 51.2593 30.4776 51.3126C30.5536 51.4193 30.6296 51.5259 30.698 51.6401C30.736 51.7087 30.7664 51.7772 30.8044 51.8534C30.8576 51.96 30.9108 52.0742 30.9564 52.1809C30.9868 52.257 31.0096 52.3408 31.0324 52.417C31.0552 52.5008 31.078 52.5769 31.1008 52.6607C31.1008 52.6759 31.0932 52.6912 31.0856 52.7064C30.9412 53.0415 30.8272 53.3842 30.7284 53.7346C30.7284 53.7574 30.7208 53.7727 30.7132 53.7955C30.622 54.1611 30.546 54.5266 30.508 54.9074L30.2268 57.474H24.5646L24.58 57.4665ZM44.8113 61.5563C44.3401 62.0818 43.6637 62.3864 42.9569 62.3864H34.0043C33.2975 62.3864 32.6135 62.0818 32.1499 61.5563C31.6787 61.0231 31.4583 60.3377 31.5419 59.6218L31.6939 58.2128V58.1976L32.0359 55.0673C32.1119 54.3971 32.2867 53.7421 32.5679 53.1328C32.5831 53.0947 32.5907 53.0795 32.6059 53.0414C32.9783 52.2341 33.5255 51.503 34.1943 50.9241C35.3799 49.8655 36.9075 49.2867 38.4883 49.2867C38.6859 49.2867 38.8835 49.2943 39.0811 49.3171C40.4491 49.439 41.7487 50.0025 42.7747 50.9241C42.7899 50.9394 42.8051 50.9546 42.8279 50.9698C43.4815 51.5639 43.9983 52.2569 44.3631 53.049V53.0566C44.3707 53.0871 44.3783 53.1099 44.3935 53.1404C44.6747 53.7573 44.8495 54.4047 44.9255 55.0825L45.2675 58.2128V58.2356L45.4195 59.6446C45.5031 60.3529 45.2827 61.0383 44.8115 61.5714L44.8113 61.5563ZM53.3535 57.0323C53.1027 57.3141 52.7607 57.4665 52.3807 57.4665H46.7185L46.4373 54.8998C46.3993 54.519 46.3233 54.1535 46.2321 53.7879C46.2321 53.7727 46.2245 53.7498 46.2169 53.7346C46.1257 53.3843 46.0041 53.0415 45.8597 52.7064C45.8597 52.6912 45.8521 52.6759 45.8445 52.6607C45.8673 52.5769 45.8901 52.4855 45.9129 52.4018C45.9433 52.3028 45.9737 52.2038 46.0117 52.1124C46.0573 52.0057 46.1105 51.8991 46.1637 51.8001C46.2093 51.7087 46.2549 51.6173 46.3081 51.5335C46.3689 51.4345 46.4373 51.3431 46.5133 51.2517C46.5741 51.1756 46.6273 51.0918 46.6957 51.0233C46.7717 50.9319 46.8629 50.8557 46.9465 50.7795C47.0149 50.711 47.0833 50.6424 47.1517 50.5815C47.2429 50.5054 47.3493 50.4444 47.4481 50.3759C47.5241 50.3226 47.6001 50.2693 47.6761 50.2236C47.7901 50.1626 47.9041 50.1093 48.0257 50.0636C48.1017 50.0255 48.1777 49.9875 48.2613 49.957C48.3981 49.9113 48.5349 49.8808 48.6793 49.8428C48.7477 49.8275 48.8161 49.7971 48.8921 49.7894C49.1049 49.7514 49.3329 49.7285 49.5533 49.7285C49.9789 49.7285 50.4045 49.7971 50.8073 49.9418C51.2937 50.1169 51.7345 50.3759 52.1069 50.711C52.8061 51.3431 53.2546 52.2037 53.3533 53.1481L53.6725 56.0347C53.7105 56.4078 53.6041 56.7658 53.3533 57.04L53.3535 57.0323Z"/>
</mask>
<path d="M54.8585 52.9725C54.7141 51.6626 54.0909 50.4516 53.1181 49.5757C52.8825 49.3701 52.6317 49.1873 52.3734 49.0198C52.571 48.8217 52.7762 48.6161 52.9662 48.4105C56.3634 44.7395 58.2407 39.9643 58.2407 34.9759C58.2407 29.9875 56.3711 25.2122 52.9662 21.5413C49.227 17.4895 43.9449 15.1667 38.4807 15.1667C33.0165 15.1667 27.7342 17.4896 23.9952 21.5335C20.598 25.2045 18.7207 29.9797 18.7207 34.9681C18.7207 39.9565 20.5903 44.7318 23.9952 48.4027C24.1928 48.6159 24.398 48.8216 24.5956 49.0196C23.2276 49.8726 22.2776 51.3197 22.1028 52.9723L21.7836 55.8589C21.6924 56.6509 21.9508 57.4506 22.4828 58.0523C23.0148 58.654 23.7824 58.9967 24.588 58.9967H30.0829L30.0297 59.4613C29.9005 60.5961 30.2577 61.7309 31.0177 62.5763C31.7777 63.4293 32.8645 63.9167 34.012 63.9167H42.9647C44.1047 63.9167 45.1991 63.4293 45.9591 62.5763C46.719 61.7232 47.0763 60.5885 46.9471 59.4613L46.8939 58.9967H52.3887C53.1943 58.9967 53.9619 58.654 54.4939 58.0523C55.0259 57.4582 55.2767 56.6585 55.1931 55.8589L54.8739 52.9723L54.8585 52.9725ZM48.6871 48.2734C48.6035 48.2886 48.5199 48.3115 48.4363 48.3267C48.2387 48.3724 48.0411 48.4181 47.8511 48.4867C47.7675 48.5171 47.6839 48.54 47.6003 48.578C47.3875 48.6618 47.1899 48.7532 46.9923 48.8675C46.9467 48.8903 46.8935 48.9132 46.8479 48.9436C46.6123 49.0807 46.3843 49.2407 46.1715 49.4158C46.1183 49.4615 46.0651 49.5072 46.0119 49.5605C45.8599 49.6976 45.7079 49.8423 45.5711 49.9946C45.5103 50.0632 45.4495 50.1317 45.3963 50.2003C45.2671 50.3602 45.1531 50.5202 45.0467 50.6953C45.0011 50.7639 44.9631 50.8248 44.9175 50.8933C44.9023 50.9162 44.8871 50.939 44.8719 50.9695C44.7655 50.8324 44.6515 50.7029 44.5451 50.5735C44.4919 50.5125 44.4463 50.4516 44.3931 50.3983C44.3399 50.3374 44.2791 50.284 44.2183 50.2231C44.9023 48.9512 45.4951 47.4432 45.9739 45.7677C46.5363 47.1919 47.9195 48.2049 49.5383 48.2049C49.7207 48.2049 49.9031 48.1896 50.0855 48.1592C50.1387 48.1592 50.1919 48.1439 50.2375 48.1287C50.3743 48.1058 50.5035 48.0754 50.6327 48.0373C50.6783 48.0221 50.7239 48.0145 50.7771 47.9992C50.9367 47.9459 51.0963 47.885 51.2483 47.8088C51.2787 47.8393 51.3167 47.8774 51.3547 47.9078C51.1875 48.0754 51.0279 48.2353 50.8607 48.3876C50.7695 48.3648 50.6707 48.3496 50.5719 48.3343C50.4959 48.3191 50.4199 48.3039 50.3515 48.2886C50.0855 48.2506 49.8195 48.2201 49.5459 48.2201C49.2571 48.2201 48.9683 48.2506 48.6872 48.2963L48.6871 48.2734ZM42.5614 48.8827C42.3714 48.7684 42.1814 48.6618 41.9838 48.5704C41.9382 48.5476 41.885 48.5247 41.8394 48.5095C41.6874 48.441 41.5278 48.3724 41.3758 48.3115C41.2998 48.281 41.2238 48.2582 41.1478 48.2277C41.011 48.182 40.8818 48.1363 40.745 48.0982C40.6614 48.0754 40.5778 48.0525 40.4942 48.0297C40.3574 47.9916 40.2206 47.9611 40.0838 47.9383C40.0002 47.9231 39.9166 47.9078 39.833 47.8926C39.681 47.8698 39.5366 47.8469 39.3846 47.8317C39.3086 47.8241 39.2402 47.8164 39.1642 47.8088C38.9438 47.7936 38.7158 47.7784 38.4878 47.7784C38.2598 47.7784 38.0394 47.7936 37.8114 47.8088C37.743 47.8088 37.667 47.8241 37.5986 47.8317C37.4466 47.8469 37.2946 47.8698 37.1426 47.8926C37.059 47.9078 36.9754 47.9231 36.8994 47.9383C36.7626 47.9688 36.6258 47.9992 36.4814 48.0373C36.3978 48.0602 36.3142 48.083 36.2306 48.1059C36.0938 48.1439 35.957 48.1896 35.8202 48.2429C35.7442 48.2734 35.6682 48.2963 35.5998 48.3267C35.4326 48.3953 35.273 48.4638 35.1058 48.54C35.0678 48.5628 35.0222 48.578 34.9842 48.5933C34.7866 48.6923 34.5966 48.7989 34.4066 48.9055C34.3382 48.9436 34.2774 48.9893 34.209 49.035C34.1178 49.0959 34.019 49.1493 33.9278 49.2178C33.1526 47.7022 32.5218 45.8362 32.0506 43.7493C32.2178 43.6884 32.3774 43.6198 32.5446 43.5589C32.651 43.5208 32.7574 43.4904 32.8638 43.4523C32.993 43.4066 33.1298 43.3761 33.2666 43.3304C33.2742 43.3533 33.2894 43.3761 33.3046 43.4066C33.3502 43.5132 33.4034 43.6122 33.4566 43.7112C33.5402 43.8788 33.6238 44.0463 33.715 44.1987C33.7758 44.3053 33.8518 44.3967 33.9202 44.4957C34.019 44.6404 34.1254 44.7775 34.2394 44.907L34.4902 45.1811C34.6118 45.303 34.7334 45.4172 34.8626 45.5239C34.9538 45.6 35.0526 45.6838 35.1514 45.7524C35.2882 45.8514 35.4326 45.9428 35.577 46.0341C35.6834 46.0951 35.7822 46.1636 35.8962 46.2169C36.0558 46.3007 36.2154 46.3693 36.3826 46.4302C36.489 46.4759 36.5954 46.5216 36.7094 46.5597C36.8994 46.6206 37.0894 46.6663 37.287 46.712C37.3858 46.7348 37.477 46.7653 37.5758 46.7805C37.8722 46.8262 38.1762 46.8567 38.4878 46.8567C38.7994 46.8567 39.1034 46.8262 39.3998 46.7805C39.4986 46.7653 39.5974 46.7348 39.6962 46.712C39.8862 46.6663 40.0838 46.6282 40.2662 46.5673C40.3802 46.5292 40.4942 46.4759 40.6082 46.4302C40.7678 46.3692 40.9198 46.3007 41.0718 46.2245C41.1934 46.1636 41.3074 46.0951 41.4214 46.0265C41.5506 45.9427 41.6798 45.8666 41.809 45.7752C41.923 45.6914 42.037 45.6 42.1434 45.5086C42.2498 45.4172 42.3562 45.3182 42.455 45.2192C42.5614 45.1126 42.6678 44.9984 42.7666 44.8841C42.8502 44.7851 42.9338 44.6785 43.0174 44.5642C43.1086 44.4348 43.1998 44.3129 43.2834 44.1758C43.3594 44.0539 43.4202 43.9321 43.481 43.8102C43.5494 43.6731 43.6254 43.5437 43.6786 43.399C43.6862 43.3761 43.7014 43.3609 43.709 43.338C43.8458 43.3761 43.9826 43.4142 44.1118 43.4599C44.2182 43.498 44.3322 43.5284 44.4386 43.5665C44.6058 43.6274 44.7654 43.6884 44.925 43.7569C44.4538 45.8361 43.823 47.7097 43.0478 49.2176C42.9414 49.1414 42.835 49.0805 42.7286 49.012C42.6754 48.9815 42.6222 48.9434 42.569 48.9053L42.5614 48.8827ZM32.1339 50.9009C32.1339 50.9009 32.0959 50.939 32.0807 50.9619C32.0807 50.9619 32.0807 50.9543 32.0731 50.9466C31.9819 50.7791 31.8679 50.6344 31.7615 50.4821C31.7007 50.3907 31.6475 50.2993 31.5791 50.2155C31.3967 49.987 31.1915 49.7661 30.9787 49.5757C30.8115 49.4234 30.6291 49.2863 30.4467 49.1569L30.3783 49.1112C29.5043 48.5247 28.4783 48.1972 27.4219 48.1972C27.3155 48.1972 27.2015 48.2125 27.0951 48.2201H27.0039C26.8291 48.2353 26.6467 48.2582 26.4719 48.2886C26.4035 48.3038 26.3351 48.3115 26.2591 48.3267C26.2059 48.3419 26.1527 48.3419 26.1071 48.3572C25.9399 48.2048 25.7803 48.0449 25.6131 47.8773C25.6435 47.8469 25.6815 47.8088 25.7195 47.7783C25.8715 47.8545 26.0311 47.9154 26.1907 47.9687C26.2363 47.984 26.2819 47.9916 26.3275 48.0068C26.4567 48.0449 26.5935 48.0754 26.7303 48.1058C26.7835 48.1134 26.8291 48.1287 26.8823 48.1287C27.0647 48.1515 27.2395 48.1744 27.4295 48.1744C29.0483 48.1744 30.4315 47.1614 30.9939 45.7372C31.4727 47.4128 32.0654 48.9207 32.7495 50.1926L32.6127 50.3297C32.4455 50.5125 32.2935 50.6953 32.1415 50.8933L32.1339 50.9009ZM24.5796 23.1632C24.7012 23.285 24.8228 23.3993 24.9444 23.5135L24.952 23.5211C25.0812 23.6582 25.218 23.7877 25.3244 23.8715C25.3396 23.8867 25.3548 23.8943 25.37 23.9096C25.6816 24.1837 26.0008 24.4579 26.3352 24.7092C26.4948 24.8387 26.662 24.9606 26.8292 25.0824C27.0496 25.2424 27.2776 25.4023 27.5056 25.5546C27.6044 25.6232 27.7032 25.6993 27.802 25.7679C27.9616 25.8669 28.1212 25.9735 28.2504 26.0497C28.638 26.2934 29.0256 26.5143 29.3752 26.6894C29.5044 26.7656 29.6336 26.8265 29.7628 26.8875C29.8312 26.9255 29.9148 26.9712 30.006 27.0093C30.0972 27.055 30.1884 27.0931 30.2796 27.1312C29.854 29.3627 29.6184 31.7313 29.5804 34.1989H20.2552C20.4224 30.1319 21.9196 26.2631 24.5568 23.1557L24.5796 23.1632ZM51.5748 23.9248C51.5748 23.9248 51.6128 23.8943 51.6356 23.8791C51.7648 23.7649 51.894 23.6506 51.9852 23.5592C52.0384 23.5135 52.084 23.4602 52.1372 23.4145C52.2056 23.346 52.2816 23.2774 52.35 23.2089C52.35 23.2089 52.3576 23.2089 52.3652 23.1937C52.3728 23.186 52.3804 23.1784 52.3956 23.1708C55.0328 26.2782 56.53 30.1469 56.6973 34.214H47.372C47.334 31.7464 47.0984 29.3702 46.6728 27.1463C46.764 27.1082 46.8552 27.0701 46.9464 27.0244C47.0452 26.9864 47.1288 26.9407 47.1896 26.9026C47.3188 26.8416 47.4404 26.7807 47.5316 26.7274C47.9192 26.537 48.3144 26.3161 48.6716 26.0876C48.8388 25.9963 48.9984 25.8896 49.1656 25.783C49.2644 25.7145 49.3632 25.6383 49.462 25.5774C49.69 25.425 49.9104 25.2727 50.1308 25.1052C50.298 24.9833 50.4652 24.8615 50.6324 24.732C50.9592 24.473 51.2784 24.2141 51.59 23.9323L51.5748 23.9248ZM44.5449 41.9749C44.3929 41.9216 44.2409 41.8682 44.0813 41.8225C44.1041 41.6245 44.1117 41.4113 44.1117 41.198C44.1117 38.5629 42.2877 36.3466 39.8405 35.7296H45.8291C45.7911 37.9915 45.5859 40.1545 45.2135 42.2031C45.1147 42.1651 45.0159 42.1346 44.9171 42.0965C44.7955 42.0508 44.6663 42.0127 44.5371 41.9746L44.5449 41.9749ZM32.043 42.0967C31.9366 42.1348 31.8378 42.1653 31.739 42.2034C31.3666 40.1546 31.1614 37.9917 31.1234 35.7298H37.1119C34.6648 36.3467 32.8407 38.563 32.8407 41.1983C32.8407 41.4115 32.8483 41.6248 32.8712 41.8228C32.7116 41.8685 32.5596 41.9218 32.4076 41.9751C32.286 42.0132 32.1646 42.051 32.043 42.0967ZM26.0466 46.217C25.4386 45.7829 25.0814 45.0746 25.0814 44.3282C25.0814 43.0411 26.1302 41.9977 27.4146 41.9977C27.5514 41.9977 27.6806 42.0053 27.8098 42.0282C28.7142 42.1805 29.4514 42.8583 29.6718 43.7799C29.7174 43.9475 29.7402 44.1379 29.7402 44.3283C29.7402 45.6154 28.699 46.6588 27.4146 46.6588C26.9131 46.6588 26.4494 46.5064 26.0466 46.217ZM31.739 27.7327C31.739 27.7327 31.7542 27.7327 31.7618 27.7403C32.0278 27.8317 32.3014 27.9307 32.5293 27.9992C32.6509 28.0449 32.7725 28.083 32.9017 28.1135C33.0765 28.1744 33.2665 28.2201 33.4489 28.2658C33.5553 28.3039 33.6617 28.3343 33.7833 28.3496C33.8137 28.3572 33.8517 28.3648 33.8821 28.3724C34.0645 28.4181 34.2545 28.4638 34.4293 28.5019C34.5661 28.5324 34.7029 28.5476 34.8397 28.5704C35.1057 28.6238 35.3718 28.6694 35.6453 28.7075C35.8277 28.7304 36.0025 28.7608 36.1849 28.7761C36.8537 28.8522 37.5225 28.8979 38.1913 28.9132H38.8145C39.4757 28.8979 40.1293 28.8598 40.7829 28.7837C40.9577 28.7608 41.1401 28.738 41.3149 28.7151C41.5885 28.6771 41.8621 28.6238 42.1357 28.5704C42.2649 28.5476 42.3941 28.5324 42.5233 28.5019C42.7057 28.4638 42.8957 28.4257 43.0781 28.3724C43.1085 28.3724 43.1465 28.3572 43.1769 28.3496C43.2985 28.3267 43.4049 28.2963 43.5113 28.2658C43.6937 28.2201 43.8837 28.1668 44.0585 28.1135C44.1877 28.083 44.3093 28.0449 44.3853 28.0145C44.6589 27.9307 44.9325 27.8317 45.2137 27.7327H45.2289C45.6013 29.7814 45.8065 31.9444 45.8445 34.2062H31.1231C31.1611 31.9443 31.3666 29.7813 31.739 27.7327ZM34.4825 42.1577C34.3989 41.8759 34.3609 41.5484 34.3609 41.198C34.3609 38.9285 36.2078 37.0777 38.4802 37.0777C40.7526 37.0777 42.5994 38.9285 42.5994 41.198C42.5994 41.556 42.5614 41.8759 42.4702 42.1881C42.0218 44.0236 40.3802 45.3107 38.4802 45.3107C36.5802 45.3107 34.9386 44.0313 34.4825 42.1577ZM47.2885 43.7723C47.5393 42.7289 48.4665 41.9978 49.5457 41.9978C50.8301 41.9978 51.8789 43.0412 51.8789 44.3283C51.8789 45.0746 51.5141 45.783 50.9061 46.2171C50.5109 46.5065 50.0397 46.6588 49.5457 46.6588C48.2613 46.6588 47.2201 45.6154 47.2201 44.3283C47.2201 44.1379 47.2429 43.9475 47.2885 43.7723ZM53.1102 45.783C53.133 45.7297 53.1558 45.6763 53.171 45.623C53.2014 45.5393 53.2242 45.4479 53.247 45.3641L53.2926 45.2042C53.3154 45.1051 53.3306 45.0138 53.3458 44.9147C53.3458 44.869 53.361 44.8233 53.3686 44.77C53.3838 44.6253 53.399 44.473 53.399 44.3283C53.399 42.2034 51.6738 40.4746 49.5458 40.4746C49.3406 40.4746 49.1354 40.4974 48.9378 40.5279C48.877 40.5355 48.8162 40.5507 48.7554 40.566C48.6186 40.5964 48.4894 40.6269 48.3602 40.665C48.2918 40.6878 48.2234 40.7107 48.155 40.7411C48.0334 40.7868 47.9194 40.8401 47.813 40.8935C47.7522 40.9239 47.6838 40.9544 47.623 40.9925C47.509 41.061 47.4026 41.1296 47.2962 41.2133C47.243 41.2514 47.1898 41.2819 47.1442 41.32C47.053 41.3885 46.9694 41.4723 46.8934 41.5484C47.1822 39.6901 47.3342 37.7404 47.3722 35.7222H56.6975C56.5455 39.4388 55.2762 42.9878 53.0495 45.9431C53.0723 45.8898 53.0951 45.8289 53.1179 45.7756L53.1102 45.783ZM51.2938 22.1045L51.2482 22.1502C51.119 22.2797 50.9898 22.4016 50.853 22.5234C50.777 22.592 50.701 22.6681 50.6098 22.7443C50.2678 23.0565 49.903 23.3536 49.5306 23.643C49.523 23.6506 49.5078 23.6582 49.5002 23.6659C49.1202 23.9553 48.7326 24.2294 48.3222 24.4884C48.1854 24.5722 48.0562 24.6636 47.8814 24.7626C47.547 24.9758 47.205 25.1739 46.8174 25.3567C46.7186 25.41 46.6198 25.4633 46.521 25.5014C46.4906 25.5166 46.4222 25.5547 46.3918 25.5775C46.3766 25.5775 46.3614 25.5928 46.3462 25.6004C45.457 21.8076 44.0662 18.8753 42.3866 17.1006C45.761 17.8317 48.8464 19.5225 51.3548 22.0358C51.332 22.051 51.3168 22.0739 51.3016 22.0967L51.2938 22.1045ZM44.9249 26.2172L44.6969 26.3086C44.4461 26.4 44.1877 26.4838 43.8837 26.5828C43.8229 26.6057 43.7621 26.6285 43.6937 26.6437C43.6633 26.6437 43.6405 26.659 43.6177 26.6666C43.4581 26.7199 43.2833 26.7656 43.1084 26.8113C43.0704 26.8189 43.0324 26.8341 43.002 26.8494C42.964 26.8646 42.926 26.8722 42.8804 26.8798C42.8424 26.8798 42.8121 26.8951 42.774 26.9027H42.7512C42.5764 26.9484 42.4016 26.9941 42.2192 27.0322C41.786 27.1236 41.3452 27.1997 40.912 27.2606C40.8588 27.2606 40.8056 27.2759 40.7524 27.2835C40.3268 27.3368 39.8936 27.3749 39.4605 27.3977C39.2477 27.413 39.0273 27.413 38.8068 27.4206C38.7004 27.4206 38.594 27.4282 38.4876 27.4282H38.1988C37.9632 27.4282 37.7352 27.4206 37.4996 27.4054C37.074 27.3825 36.6484 27.3444 36.2228 27.2911C36.1696 27.2911 36.1088 27.2759 36.0556 27.2683C35.6224 27.2073 35.1816 27.1388 34.7408 27.0398C34.566 27.0093 34.3912 26.9636 34.2165 26.9179H34.1937C34.1557 26.9103 34.1253 26.9027 34.0873 26.8951C34.0417 26.8951 34.0036 26.8798 33.9657 26.8646C33.9277 26.8494 33.8973 26.8418 33.8593 26.8265C33.6921 26.7884 33.5173 26.7351 33.35 26.6818C33.3272 26.6742 33.2968 26.6666 33.274 26.659C33.2056 26.6437 33.1448 26.6285 33.0384 26.5828C32.78 26.499 32.5216 26.4153 32.286 26.3315C32.2024 26.301 32.1264 26.2706 32.0504 26.2325C33.3652 20.4291 35.858 16.7047 38.4952 16.7047C41.1324 16.7047 43.6253 20.4289 44.94 26.2325L44.9249 26.2172ZM30.6218 25.608C30.6218 25.608 30.561 25.5775 30.5382 25.5699C30.5078 25.547 30.4774 25.5318 30.4394 25.5166C30.3406 25.4709 30.2418 25.4252 30.105 25.349C29.763 25.1814 29.421 24.991 29.0562 24.7549C28.9118 24.6711 28.7826 24.5874 28.623 24.4807C28.2278 24.2294 27.8402 23.9552 27.4602 23.6658C27.4526 23.6582 27.4374 23.6506 27.4298 23.643C27.0574 23.3535 26.6851 23.0489 26.3278 22.7214C26.229 22.6453 26.1378 22.5539 26.0466 22.4549C26.0314 22.432 26.0086 22.4168 25.9858 22.4015C25.963 22.3863 25.9478 22.3635 25.925 22.3482C25.8718 22.2949 25.811 22.2416 25.7578 22.1883L25.6742 22.1045C25.6514 22.0893 25.6362 22.0664 25.621 22.0436C28.129 19.5303 31.2146 17.8471 34.5893 17.1083C32.9097 18.8829 31.5265 21.8151 30.6297 25.6004L30.6218 25.608ZM29.5958 35.7299C29.6262 37.7406 29.7858 39.6979 30.0746 41.5562C29.991 41.4724 29.9074 41.3963 29.8162 41.3201C29.7782 41.2896 29.7326 41.2592 29.687 41.2287C29.573 41.1449 29.459 41.0688 29.3374 40.9926C29.2766 40.9622 29.2158 40.9317 29.155 40.8936C29.041 40.8327 28.9194 40.7794 28.8054 40.7337C28.737 40.7108 28.6762 40.6804 28.6078 40.6575C28.4786 40.6194 28.3494 40.5814 28.2126 40.5585C28.1518 40.5433 28.091 40.528 28.0302 40.5204C27.8326 40.49 27.6274 40.4671 27.4222 40.4671C25.2942 40.4671 23.569 42.196 23.569 44.3208C23.569 44.4732 23.5766 44.6179 23.5994 44.7626C23.5994 44.8083 23.6146 44.8616 23.6222 44.9073C23.6374 45.0063 23.6526 45.0977 23.6754 45.1967C23.6906 45.25 23.7058 45.3109 23.721 45.3642C23.7438 45.448 23.7666 45.5318 23.797 45.6156C23.8198 45.6765 23.8426 45.7298 23.8654 45.7831C23.8882 45.8364 23.9034 45.8898 23.9338 45.9431C21.6993 42.988 20.4378 39.4388 20.2858 35.7221H29.611L29.5958 35.7299ZM24.58 57.4665C24.2 57.4665 23.858 57.3141 23.6072 57.0323C23.3564 56.7582 23.25 56.4002 23.288 56.027L23.6072 53.1405C23.7668 51.6706 24.77 50.4139 26.1608 49.9341C26.3432 49.8732 26.5256 49.8275 26.708 49.7894C26.7916 49.7742 26.8752 49.7666 26.9512 49.7589C27.05 49.7437 27.1488 49.7361 27.2476 49.7361H27.5592C27.6504 49.7361 27.7416 49.7513 27.8328 49.7589C28.038 49.7818 28.2356 49.8199 28.4332 49.8808C28.5092 49.9037 28.5852 49.9189 28.6612 49.9417C28.76 49.9798 28.8588 50.0179 28.95 50.0636C29.0488 50.1093 29.1552 50.155 29.2464 50.2159C29.3224 50.254 29.3908 50.2997 29.4592 50.3454C29.6264 50.452 29.7936 50.5739 29.9532 50.711C30.1052 50.848 30.242 50.9928 30.3636 51.1451C30.4092 51.1984 30.4396 51.2593 30.4776 51.3126C30.5536 51.4193 30.6296 51.5259 30.698 51.6401C30.736 51.7087 30.7664 51.7772 30.8044 51.8534C30.8576 51.96 30.9108 52.0742 30.9564 52.1809C30.9868 52.257 31.0096 52.3408 31.0324 52.417C31.0552 52.5008 31.078 52.5769 31.1008 52.6607C31.1008 52.6759 31.0932 52.6912 31.0856 52.7064C30.9412 53.0415 30.8272 53.3842 30.7284 53.7346C30.7284 53.7574 30.7208 53.7727 30.7132 53.7955C30.622 54.1611 30.546 54.5266 30.508 54.9074L30.2268 57.474H24.5646L24.58 57.4665ZM44.8113 61.5563C44.3401 62.0818 43.6637 62.3864 42.9569 62.3864H34.0043C33.2975 62.3864 32.6135 62.0818 32.1499 61.5563C31.6787 61.0231 31.4583 60.3377 31.5419 59.6218L31.6939 58.2128V58.1976L32.0359 55.0673C32.1119 54.3971 32.2867 53.7421 32.5679 53.1328C32.5831 53.0947 32.5907 53.0795 32.6059 53.0414C32.9783 52.2341 33.5255 51.503 34.1943 50.9241C35.3799 49.8655 36.9075 49.2867 38.4883 49.2867C38.6859 49.2867 38.8835 49.2943 39.0811 49.3171C40.4491 49.439 41.7487 50.0025 42.7747 50.9241C42.7899 50.9394 42.8051 50.9546 42.8279 50.9698C43.4815 51.5639 43.9983 52.2569 44.3631 53.049V53.0566C44.3707 53.0871 44.3783 53.1099 44.3935 53.1404C44.6747 53.7573 44.8495 54.4047 44.9255 55.0825L45.2675 58.2128V58.2356L45.4195 59.6446C45.5031 60.3529 45.2827 61.0383 44.8115 61.5714L44.8113 61.5563ZM53.3535 57.0323C53.1027 57.3141 52.7607 57.4665 52.3807 57.4665H46.7185L46.4373 54.8998C46.3993 54.519 46.3233 54.1535 46.2321 53.7879C46.2321 53.7727 46.2245 53.7498 46.2169 53.7346C46.1257 53.3843 46.0041 53.0415 45.8597 52.7064C45.8597 52.6912 45.8521 52.6759 45.8445 52.6607C45.8673 52.5769 45.8901 52.4855 45.9129 52.4018C45.9433 52.3028 45.9737 52.2038 46.0117 52.1124C46.0573 52.0057 46.1105 51.8991 46.1637 51.8001C46.2093 51.7087 46.2549 51.6173 46.3081 51.5335C46.3689 51.4345 46.4373 51.3431 46.5133 51.2517C46.5741 51.1756 46.6273 51.0918 46.6957 51.0233C46.7717 50.9319 46.8629 50.8557 46.9465 50.7795C47.0149 50.711 47.0833 50.6424 47.1517 50.5815C47.2429 50.5054 47.3493 50.4444 47.4481 50.3759C47.5241 50.3226 47.6001 50.2693 47.6761 50.2236C47.7901 50.1626 47.9041 50.1093 48.0257 50.0636C48.1017 50.0255 48.1777 49.9875 48.2613 49.957C48.3981 49.9113 48.5349 49.8808 48.6793 49.8428C48.7477 49.8275 48.8161 49.7971 48.8921 49.7894C49.1049 49.7514 49.3329 49.7285 49.5533 49.7285C49.9789 49.7285 50.4045 49.7971 50.8073 49.9418C51.2937 50.1169 51.7345 50.3759 52.1069 50.711C52.8061 51.3431 53.2546 52.2037 53.3533 53.1481L53.6725 56.0347C53.7105 56.4078 53.6041 56.7658 53.3533 57.04L53.3535 57.0323Z" fill="#979EA9"/>
<path d="M54.8585 52.9725C54.7141 51.6626 54.0909 50.4516 53.1181 49.5757C52.8825 49.3701 52.6317 49.1873 52.3734 49.0198C52.571 48.8217 52.7762 48.6161 52.9662 48.4105C56.3634 44.7395 58.2407 39.9643 58.2407 34.9759C58.2407 29.9875 56.3711 25.2122 52.9662 21.5413C49.227 17.4895 43.9449 15.1667 38.4807 15.1667C33.0165 15.1667 27.7342 17.4896 23.9952 21.5335C20.598 25.2045 18.7207 29.9797 18.7207 34.9681C18.7207 39.9565 20.5903 44.7318 23.9952 48.4027C24.1928 48.6159 24.398 48.8216 24.5956 49.0196C23.2276 49.8726 22.2776 51.3197 22.1028 52.9723L21.7836 55.8589C21.6924 56.6509 21.9508 57.4506 22.4828 58.0523C23.0148 58.654 23.7824 58.9967 24.588 58.9967H30.0829L30.0297 59.4613C29.9005 60.5961 30.2577 61.7309 31.0177 62.5763C31.7777 63.4293 32.8645 63.9167 34.012 63.9167H42.9647C44.1047 63.9167 45.1991 63.4293 45.9591 62.5763C46.719 61.7232 47.0763 60.5885 46.9471 59.4613L46.8939 58.9967H52.3887C53.1943 58.9967 53.9619 58.654 54.4939 58.0523C55.0259 57.4582 55.2767 56.6585 55.1931 55.8589L54.8739 52.9723L54.8585 52.9725ZM48.6871 48.2734C48.6035 48.2886 48.5199 48.3115 48.4363 48.3267C48.2387 48.3724 48.0411 48.4181 47.8511 48.4867C47.7675 48.5171 47.6839 48.54 47.6003 48.578C47.3875 48.6618 47.1899 48.7532 46.9923 48.8675C46.9467 48.8903 46.8935 48.9132 46.8479 48.9436C46.6123 49.0807 46.3843 49.2407 46.1715 49.4158C46.1183 49.4615 46.0651 49.5072 46.0119 49.5605C45.8599 49.6976 45.7079 49.8423 45.5711 49.9946C45.5103 50.0632 45.4495 50.1317 45.3963 50.2003C45.2671 50.3602 45.1531 50.5202 45.0467 50.6953C45.0011 50.7639 44.9631 50.8248 44.9175 50.8933C44.9023 50.9162 44.8871 50.939 44.8719 50.9695C44.7655 50.8324 44.6515 50.7029 44.5451 50.5735C44.4919 50.5125 44.4463 50.4516 44.3931 50.3983C44.3399 50.3374 44.2791 50.284 44.2183 50.2231C44.9023 48.9512 45.4951 47.4432 45.9739 45.7677C46.5363 47.1919 47.9195 48.2049 49.5383 48.2049C49.7207 48.2049 49.9031 48.1896 50.0855 48.1592C50.1387 48.1592 50.1919 48.1439 50.2375 48.1287C50.3743 48.1058 50.5035 48.0754 50.6327 48.0373C50.6783 48.0221 50.7239 48.0145 50.7771 47.9992C50.9367 47.9459 51.0963 47.885 51.2483 47.8088C51.2787 47.8393 51.3167 47.8774 51.3547 47.9078C51.1875 48.0754 51.0279 48.2353 50.8607 48.3876C50.7695 48.3648 50.6707 48.3496 50.5719 48.3343C50.4959 48.3191 50.4199 48.3039 50.3515 48.2886C50.0855 48.2506 49.8195 48.2201 49.5459 48.2201C49.2571 48.2201 48.9683 48.2506 48.6872 48.2963L48.6871 48.2734ZM42.5614 48.8827C42.3714 48.7684 42.1814 48.6618 41.9838 48.5704C41.9382 48.5476 41.885 48.5247 41.8394 48.5095C41.6874 48.441 41.5278 48.3724 41.3758 48.3115C41.2998 48.281 41.2238 48.2582 41.1478 48.2277C41.011 48.182 40.8818 48.1363 40.745 48.0982C40.6614 48.0754 40.5778 48.0525 40.4942 48.0297C40.3574 47.9916 40.2206 47.9611 40.0838 47.9383C40.0002 47.9231 39.9166 47.9078 39.833 47.8926C39.681 47.8698 39.5366 47.8469 39.3846 47.8317C39.3086 47.8241 39.2402 47.8164 39.1642 47.8088C38.9438 47.7936 38.7158 47.7784 38.4878 47.7784C38.2598 47.7784 38.0394 47.7936 37.8114 47.8088C37.743 47.8088 37.667 47.8241 37.5986 47.8317C37.4466 47.8469 37.2946 47.8698 37.1426 47.8926C37.059 47.9078 36.9754 47.9231 36.8994 47.9383C36.7626 47.9688 36.6258 47.9992 36.4814 48.0373C36.3978 48.0602 36.3142 48.083 36.2306 48.1059C36.0938 48.1439 35.957 48.1896 35.8202 48.2429C35.7442 48.2734 35.6682 48.2963 35.5998 48.3267C35.4326 48.3953 35.273 48.4638 35.1058 48.54C35.0678 48.5628 35.0222 48.578 34.9842 48.5933C34.7866 48.6923 34.5966 48.7989 34.4066 48.9055C34.3382 48.9436 34.2774 48.9893 34.209 49.035C34.1178 49.0959 34.019 49.1493 33.9278 49.2178C33.1526 47.7022 32.5218 45.8362 32.0506 43.7493C32.2178 43.6884 32.3774 43.6198 32.5446 43.5589C32.651 43.5208 32.7574 43.4904 32.8638 43.4523C32.993 43.4066 33.1298 43.3761 33.2666 43.3304C33.2742 43.3533 33.2894 43.3761 33.3046 43.4066C33.3502 43.5132 33.4034 43.6122 33.4566 43.7112C33.5402 43.8788 33.6238 44.0463 33.715 44.1987C33.7758 44.3053 33.8518 44.3967 33.9202 44.4957C34.019 44.6404 34.1254 44.7775 34.2394 44.907L34.4902 45.1811C34.6118 45.303 34.7334 45.4172 34.8626 45.5239C34.9538 45.6 35.0526 45.6838 35.1514 45.7524C35.2882 45.8514 35.4326 45.9428 35.577 46.0341C35.6834 46.0951 35.7822 46.1636 35.8962 46.2169C36.0558 46.3007 36.2154 46.3693 36.3826 46.4302C36.489 46.4759 36.5954 46.5216 36.7094 46.5597C36.8994 46.6206 37.0894 46.6663 37.287 46.712C37.3858 46.7348 37.477 46.7653 37.5758 46.7805C37.8722 46.8262 38.1762 46.8567 38.4878 46.8567C38.7994 46.8567 39.1034 46.8262 39.3998 46.7805C39.4986 46.7653 39.5974 46.7348 39.6962 46.712C39.8862 46.6663 40.0838 46.6282 40.2662 46.5673C40.3802 46.5292 40.4942 46.4759 40.6082 46.4302C40.7678 46.3692 40.9198 46.3007 41.0718 46.2245C41.1934 46.1636 41.3074 46.0951 41.4214 46.0265C41.5506 45.9427 41.6798 45.8666 41.809 45.7752C41.923 45.6914 42.037 45.6 42.1434 45.5086C42.2498 45.4172 42.3562 45.3182 42.455 45.2192C42.5614 45.1126 42.6678 44.9984 42.7666 44.8841C42.8502 44.7851 42.9338 44.6785 43.0174 44.5642C43.1086 44.4348 43.1998 44.3129 43.2834 44.1758C43.3594 44.0539 43.4202 43.9321 43.481 43.8102C43.5494 43.6731 43.6254 43.5437 43.6786 43.399C43.6862 43.3761 43.7014 43.3609 43.709 43.338C43.8458 43.3761 43.9826 43.4142 44.1118 43.4599C44.2182 43.498 44.3322 43.5284 44.4386 43.5665C44.6058 43.6274 44.7654 43.6884 44.925 43.7569C44.4538 45.8361 43.823 47.7097 43.0478 49.2176C42.9414 49.1414 42.835 49.0805 42.7286 49.012C42.6754 48.9815 42.6222 48.9434 42.569 48.9053L42.5614 48.8827ZM32.1339 50.9009C32.1339 50.9009 32.0959 50.939 32.0807 50.9619C32.0807 50.9619 32.0807 50.9543 32.0731 50.9466C31.9819 50.7791 31.8679 50.6344 31.7615 50.4821C31.7007 50.3907 31.6475 50.2993 31.5791 50.2155C31.3967 49.987 31.1915 49.7661 30.9787 49.5757C30.8115 49.4234 30.6291 49.2863 30.4467 49.1569L30.3783 49.1112C29.5043 48.5247 28.4783 48.1972 27.4219 48.1972C27.3155 48.1972 27.2015 48.2125 27.0951 48.2201H27.0039C26.8291 48.2353 26.6467 48.2582 26.4719 48.2886C26.4035 48.3038 26.3351 48.3115 26.2591 48.3267C26.2059 48.3419 26.1527 48.3419 26.1071 48.3572C25.9399 48.2048 25.7803 48.0449 25.6131 47.8773C25.6435 47.8469 25.6815 47.8088 25.7195 47.7783C25.8715 47.8545 26.0311 47.9154 26.1907 47.9687C26.2363 47.984 26.2819 47.9916 26.3275 48.0068C26.4567 48.0449 26.5935 48.0754 26.7303 48.1058C26.7835 48.1134 26.8291 48.1287 26.8823 48.1287C27.0647 48.1515 27.2395 48.1744 27.4295 48.1744C29.0483 48.1744 30.4315 47.1614 30.9939 45.7372C31.4727 47.4128 32.0654 48.9207 32.7495 50.1926L32.6127 50.3297C32.4455 50.5125 32.2935 50.6953 32.1415 50.8933L32.1339 50.9009ZM24.5796 23.1632C24.7012 23.285 24.8228 23.3993 24.9444 23.5135L24.952 23.5211C25.0812 23.6582 25.218 23.7877 25.3244 23.8715C25.3396 23.8867 25.3548 23.8943 25.37 23.9096C25.6816 24.1837 26.0008 24.4579 26.3352 24.7092C26.4948 24.8387 26.662 24.9606 26.8292 25.0824C27.0496 25.2424 27.2776 25.4023 27.5056 25.5546C27.6044 25.6232 27.7032 25.6993 27.802 25.7679C27.9616 25.8669 28.1212 25.9735 28.2504 26.0497C28.638 26.2934 29.0256 26.5143 29.3752 26.6894C29.5044 26.7656 29.6336 26.8265 29.7628 26.8875C29.8312 26.9255 29.9148 26.9712 30.006 27.0093C30.0972 27.055 30.1884 27.0931 30.2796 27.1312C29.854 29.3627 29.6184 31.7313 29.5804 34.1989H20.2552C20.4224 30.1319 21.9196 26.2631 24.5568 23.1557L24.5796 23.1632ZM51.5748 23.9248C51.5748 23.9248 51.6128 23.8943 51.6356 23.8791C51.7648 23.7649 51.894 23.6506 51.9852 23.5592C52.0384 23.5135 52.084 23.4602 52.1372 23.4145C52.2056 23.346 52.2816 23.2774 52.35 23.2089C52.35 23.2089 52.3576 23.2089 52.3652 23.1937C52.3728 23.186 52.3804 23.1784 52.3956 23.1708C55.0328 26.2782 56.53 30.1469 56.6973 34.214H47.372C47.334 31.7464 47.0984 29.3702 46.6728 27.1463C46.764 27.1082 46.8552 27.0701 46.9464 27.0244C47.0452 26.9864 47.1288 26.9407 47.1896 26.9026C47.3188 26.8416 47.4404 26.7807 47.5316 26.7274C47.9192 26.537 48.3144 26.3161 48.6716 26.0876C48.8388 25.9963 48.9984 25.8896 49.1656 25.783C49.2644 25.7145 49.3632 25.6383 49.462 25.5774C49.69 25.425 49.9104 25.2727 50.1308 25.1052C50.298 24.9833 50.4652 24.8615 50.6324 24.732C50.9592 24.473 51.2784 24.2141 51.59 23.9323L51.5748 23.9248ZM44.5449 41.9749C44.3929 41.9216 44.2409 41.8682 44.0813 41.8225C44.1041 41.6245 44.1117 41.4113 44.1117 41.198C44.1117 38.5629 42.2877 36.3466 39.8405 35.7296H45.8291C45.7911 37.9915 45.5859 40.1545 45.2135 42.2031C45.1147 42.1651 45.0159 42.1346 44.9171 42.0965C44.7955 42.0508 44.6663 42.0127 44.5371 41.9746L44.5449 41.9749ZM32.043 42.0967C31.9366 42.1348 31.8378 42.1653 31.739 42.2034C31.3666 40.1546 31.1614 37.9917 31.1234 35.7298H37.1119C34.6648 36.3467 32.8407 38.563 32.8407 41.1983C32.8407 41.4115 32.8483 41.6248 32.8712 41.8228C32.7116 41.8685 32.5596 41.9218 32.4076 41.9751C32.286 42.0132 32.1646 42.051 32.043 42.0967ZM26.0466 46.217C25.4386 45.7829 25.0814 45.0746 25.0814 44.3282C25.0814 43.0411 26.1302 41.9977 27.4146 41.9977C27.5514 41.9977 27.6806 42.0053 27.8098 42.0282C28.7142 42.1805 29.4514 42.8583 29.6718 43.7799C29.7174 43.9475 29.7402 44.1379 29.7402 44.3283C29.7402 45.6154 28.699 46.6588 27.4146 46.6588C26.9131 46.6588 26.4494 46.5064 26.0466 46.217ZM31.739 27.7327C31.739 27.7327 31.7542 27.7327 31.7618 27.7403C32.0278 27.8317 32.3014 27.9307 32.5293 27.9992C32.6509 28.0449 32.7725 28.083 32.9017 28.1135C33.0765 28.1744 33.2665 28.2201 33.4489 28.2658C33.5553 28.3039 33.6617 28.3343 33.7833 28.3496C33.8137 28.3572 33.8517 28.3648 33.8821 28.3724C34.0645 28.4181 34.2545 28.4638 34.4293 28.5019C34.5661 28.5324 34.7029 28.5476 34.8397 28.5704C35.1057 28.6238 35.3718 28.6694 35.6453 28.7075C35.8277 28.7304 36.0025 28.7608 36.1849 28.7761C36.8537 28.8522 37.5225 28.8979 38.1913 28.9132H38.8145C39.4757 28.8979 40.1293 28.8598 40.7829 28.7837C40.9577 28.7608 41.1401 28.738 41.3149 28.7151C41.5885 28.6771 41.8621 28.6238 42.1357 28.5704C42.2649 28.5476 42.3941 28.5324 42.5233 28.5019C42.7057 28.4638 42.8957 28.4257 43.0781 28.3724C43.1085 28.3724 43.1465 28.3572 43.1769 28.3496C43.2985 28.3267 43.4049 28.2963 43.5113 28.2658C43.6937 28.2201 43.8837 28.1668 44.0585 28.1135C44.1877 28.083 44.3093 28.0449 44.3853 28.0145C44.6589 27.9307 44.9325 27.8317 45.2137 27.7327H45.2289C45.6013 29.7814 45.8065 31.9444 45.8445 34.2062H31.1231C31.1611 31.9443 31.3666 29.7813 31.739 27.7327ZM34.4825 42.1577C34.3989 41.8759 34.3609 41.5484 34.3609 41.198C34.3609 38.9285 36.2078 37.0777 38.4802 37.0777C40.7526 37.0777 42.5994 38.9285 42.5994 41.198C42.5994 41.556 42.5614 41.8759 42.4702 42.1881C42.0218 44.0236 40.3802 45.3107 38.4802 45.3107C36.5802 45.3107 34.9386 44.0313 34.4825 42.1577ZM47.2885 43.7723C47.5393 42.7289 48.4665 41.9978 49.5457 41.9978C50.8301 41.9978 51.8789 43.0412 51.8789 44.3283C51.8789 45.0746 51.5141 45.783 50.9061 46.2171C50.5109 46.5065 50.0397 46.6588 49.5457 46.6588C48.2613 46.6588 47.2201 45.6154 47.2201 44.3283C47.2201 44.1379 47.2429 43.9475 47.2885 43.7723ZM53.1102 45.783C53.133 45.7297 53.1558 45.6763 53.171 45.623C53.2014 45.5393 53.2242 45.4479 53.247 45.3641L53.2926 45.2042C53.3154 45.1051 53.3306 45.0138 53.3458 44.9147C53.3458 44.869 53.361 44.8233 53.3686 44.77C53.3838 44.6253 53.399 44.473 53.399 44.3283C53.399 42.2034 51.6738 40.4746 49.5458 40.4746C49.3406 40.4746 49.1354 40.4974 48.9378 40.5279C48.877 40.5355 48.8162 40.5507 48.7554 40.566C48.6186 40.5964 48.4894 40.6269 48.3602 40.665C48.2918 40.6878 48.2234 40.7107 48.155 40.7411C48.0334 40.7868 47.9194 40.8401 47.813 40.8935C47.7522 40.9239 47.6838 40.9544 47.623 40.9925C47.509 41.061 47.4026 41.1296 47.2962 41.2133C47.243 41.2514 47.1898 41.2819 47.1442 41.32C47.053 41.3885 46.9694 41.4723 46.8934 41.5484C47.1822 39.6901 47.3342 37.7404 47.3722 35.7222H56.6975C56.5455 39.4388 55.2762 42.9878 53.0495 45.9431C53.0723 45.8898 53.0951 45.8289 53.1179 45.7756L53.1102 45.783ZM51.2938 22.1045L51.2482 22.1502C51.119 22.2797 50.9898 22.4016 50.853 22.5234C50.777 22.592 50.701 22.6681 50.6098 22.7443C50.2678 23.0565 49.903 23.3536 49.5306 23.643C49.523 23.6506 49.5078 23.6582 49.5002 23.6659C49.1202 23.9553 48.7326 24.2294 48.3222 24.4884C48.1854 24.5722 48.0562 24.6636 47.8814 24.7626C47.547 24.9758 47.205 25.1739 46.8174 25.3567C46.7186 25.41 46.6198 25.4633 46.521 25.5014C46.4906 25.5166 46.4222 25.5547 46.3918 25.5775C46.3766 25.5775 46.3614 25.5928 46.3462 25.6004C45.457 21.8076 44.0662 18.8753 42.3866 17.1006C45.761 17.8317 48.8464 19.5225 51.3548 22.0358C51.332 22.051 51.3168 22.0739 51.3016 22.0967L51.2938 22.1045ZM44.9249 26.2172L44.6969 26.3086C44.4461 26.4 44.1877 26.4838 43.8837 26.5828C43.8229 26.6057 43.7621 26.6285 43.6937 26.6437C43.6633 26.6437 43.6405 26.659 43.6177 26.6666C43.4581 26.7199 43.2833 26.7656 43.1084 26.8113C43.0704 26.8189 43.0324 26.8341 43.002 26.8494C42.964 26.8646 42.926 26.8722 42.8804 26.8798C42.8424 26.8798 42.8121 26.8951 42.774 26.9027H42.7512C42.5764 26.9484 42.4016 26.9941 42.2192 27.0322C41.786 27.1236 41.3452 27.1997 40.912 27.2606C40.8588 27.2606 40.8056 27.2759 40.7524 27.2835C40.3268 27.3368 39.8936 27.3749 39.4605 27.3977C39.2477 27.413 39.0273 27.413 38.8068 27.4206C38.7004 27.4206 38.594 27.4282 38.4876 27.4282H38.1988C37.9632 27.4282 37.7352 27.4206 37.4996 27.4054C37.074 27.3825 36.6484 27.3444 36.2228 27.2911C36.1696 27.2911 36.1088 27.2759 36.0556 27.2683C35.6224 27.2073 35.1816 27.1388 34.7408 27.0398C34.566 27.0093 34.3912 26.9636 34.2165 26.9179H34.1937C34.1557 26.9103 34.1253 26.9027 34.0873 26.8951C34.0417 26.8951 34.0036 26.8798 33.9657 26.8646C33.9277 26.8494 33.8973 26.8418 33.8593 26.8265C33.6921 26.7884 33.5173 26.7351 33.35 26.6818C33.3272 26.6742 33.2968 26.6666 33.274 26.659C33.2056 26.6437 33.1448 26.6285 33.0384 26.5828C32.78 26.499 32.5216 26.4153 32.286 26.3315C32.2024 26.301 32.1264 26.2706 32.0504 26.2325C33.3652 20.4291 35.858 16.7047 38.4952 16.7047C41.1324 16.7047 43.6253 20.4289 44.94 26.2325L44.9249 26.2172ZM30.6218 25.608C30.6218 25.608 30.561 25.5775 30.5382 25.5699C30.5078 25.547 30.4774 25.5318 30.4394 25.5166C30.3406 25.4709 30.2418 25.4252 30.105 25.349C29.763 25.1814 29.421 24.991 29.0562 24.7549C28.9118 24.6711 28.7826 24.5874 28.623 24.4807C28.2278 24.2294 27.8402 23.9552 27.4602 23.6658C27.4526 23.6582 27.4374 23.6506 27.4298 23.643C27.0574 23.3535 26.6851 23.0489 26.3278 22.7214C26.229 22.6453 26.1378 22.5539 26.0466 22.4549C26.0314 22.432 26.0086 22.4168 25.9858 22.4015C25.963 22.3863 25.9478 22.3635 25.925 22.3482C25.8718 22.2949 25.811 22.2416 25.7578 22.1883L25.6742 22.1045C25.6514 22.0893 25.6362 22.0664 25.621 22.0436C28.129 19.5303 31.2146 17.8471 34.5893 17.1083C32.9097 18.8829 31.5265 21.8151 30.6297 25.6004L30.6218 25.608ZM29.5958 35.7299C29.6262 37.7406 29.7858 39.6979 30.0746 41.5562C29.991 41.4724 29.9074 41.3963 29.8162 41.3201C29.7782 41.2896 29.7326 41.2592 29.687 41.2287C29.573 41.1449 29.459 41.0688 29.3374 40.9926C29.2766 40.9622 29.2158 40.9317 29.155 40.8936C29.041 40.8327 28.9194 40.7794 28.8054 40.7337C28.737 40.7108 28.6762 40.6804 28.6078 40.6575C28.4786 40.6194 28.3494 40.5814 28.2126 40.5585C28.1518 40.5433 28.091 40.528 28.0302 40.5204C27.8326 40.49 27.6274 40.4671 27.4222 40.4671C25.2942 40.4671 23.569 42.196 23.569 44.3208C23.569 44.4732 23.5766 44.6179 23.5994 44.7626C23.5994 44.8083 23.6146 44.8616 23.6222 44.9073C23.6374 45.0063 23.6526 45.0977 23.6754 45.1967C23.6906 45.25 23.7058 45.3109 23.721 45.3642C23.7438 45.448 23.7666 45.5318 23.797 45.6156C23.8198 45.6765 23.8426 45.7298 23.8654 45.7831C23.8882 45.8364 23.9034 45.8898 23.9338 45.9431C21.6993 42.988 20.4378 39.4388 20.2858 35.7221H29.611L29.5958 35.7299ZM24.58 57.4665C24.2 57.4665 23.858 57.3141 23.6072 57.0323C23.3564 56.7582 23.25 56.4002 23.288 56.027L23.6072 53.1405C23.7668 51.6706 24.77 50.4139 26.1608 49.9341C26.3432 49.8732 26.5256 49.8275 26.708 49.7894C26.7916 49.7742 26.8752 49.7666 26.9512 49.7589C27.05 49.7437 27.1488 49.7361 27.2476 49.7361H27.5592C27.6504 49.7361 27.7416 49.7513 27.8328 49.7589C28.038 49.7818 28.2356 49.8199 28.4332 49.8808C28.5092 49.9037 28.5852 49.9189 28.6612 49.9417C28.76 49.9798 28.8588 50.0179 28.95 50.0636C29.0488 50.1093 29.1552 50.155 29.2464 50.2159C29.3224 50.254 29.3908 50.2997 29.4592 50.3454C29.6264 50.452 29.7936 50.5739 29.9532 50.711C30.1052 50.848 30.242 50.9928 30.3636 51.1451C30.4092 51.1984 30.4396 51.2593 30.4776 51.3126C30.5536 51.4193 30.6296 51.5259 30.698 51.6401C30.736 51.7087 30.7664 51.7772 30.8044 51.8534C30.8576 51.96 30.9108 52.0742 30.9564 52.1809C30.9868 52.257 31.0096 52.3408 31.0324 52.417C31.0552 52.5008 31.078 52.5769 31.1008 52.6607C31.1008 52.6759 31.0932 52.6912 31.0856 52.7064C30.9412 53.0415 30.8272 53.3842 30.7284 53.7346C30.7284 53.7574 30.7208 53.7727 30.7132 53.7955C30.622 54.1611 30.546 54.5266 30.508 54.9074L30.2268 57.474H24.5646L24.58 57.4665ZM44.8113 61.5563C44.3401 62.0818 43.6637 62.3864 42.9569 62.3864H34.0043C33.2975 62.3864 32.6135 62.0818 32.1499 61.5563C31.6787 61.0231 31.4583 60.3377 31.5419 59.6218L31.6939 58.2128V58.1976L32.0359 55.0673C32.1119 54.3971 32.2867 53.7421 32.5679 53.1328C32.5831 53.0947 32.5907 53.0795 32.6059 53.0414C32.9783 52.2341 33.5255 51.503 34.1943 50.9241C35.3799 49.8655 36.9075 49.2867 38.4883 49.2867C38.6859 49.2867 38.8835 49.2943 39.0811 49.3171C40.4491 49.439 41.7487 50.0025 42.7747 50.9241C42.7899 50.9394 42.8051 50.9546 42.8279 50.9698C43.4815 51.5639 43.9983 52.2569 44.3631 53.049V53.0566C44.3707 53.0871 44.3783 53.1099 44.3935 53.1404C44.6747 53.7573 44.8495 54.4047 44.9255 55.0825L45.2675 58.2128V58.2356L45.4195 59.6446C45.5031 60.3529 45.2827 61.0383 44.8115 61.5714L44.8113 61.5563ZM53.3535 57.0323C53.1027 57.3141 52.7607 57.4665 52.3807 57.4665H46.7185L46.4373 54.8998C46.3993 54.519 46.3233 54.1535 46.2321 53.7879C46.2321 53.7727 46.2245 53.7498 46.2169 53.7346C46.1257 53.3843 46.0041 53.0415 45.8597 52.7064C45.8597 52.6912 45.8521 52.6759 45.8445 52.6607C45.8673 52.5769 45.8901 52.4855 45.9129 52.4018C45.9433 52.3028 45.9737 52.2038 46.0117 52.1124C46.0573 52.0057 46.1105 51.8991 46.1637 51.8001C46.2093 51.7087 46.2549 51.6173 46.3081 51.5335C46.3689 51.4345 46.4373 51.3431 46.5133 51.2517C46.5741 51.1756 46.6273 51.0918 46.6957 51.0233C46.7717 50.9319 46.8629 50.8557 46.9465 50.7795C47.0149 50.711 47.0833 50.6424 47.1517 50.5815C47.2429 50.5054 47.3493 50.4444 47.4481 50.3759C47.5241 50.3226 47.6001 50.2693 47.6761 50.2236C47.7901 50.1626 47.9041 50.1093 48.0257 50.0636C48.1017 50.0255 48.1777 49.9875 48.2613 49.957C48.3981 49.9113 48.5349 49.8808 48.6793 49.8428C48.7477 49.8275 48.8161 49.7971 48.8921 49.7894C49.1049 49.7514 49.3329 49.7285 49.5533 49.7285C49.9789 49.7285 50.4045 49.7971 50.8073 49.9418C51.2937 50.1169 51.7345 50.3759 52.1069 50.711C52.8061 51.3431 53.2546 52.2037 53.3533 53.1481L53.6725 56.0347C53.7105 56.4078 53.6041 56.7658 53.3533 57.04L53.3535 57.0323Z" stroke="#979EA9" mask="url(#path-2-outside-1_300_609)"/>
</svg>
