<svg width="22" height="22" viewBox="0 0 22 22" fill="none" xmlns="http://www.w3.org/2000/svg">
<path d="M10.0444 10.3762C10.4514 10.1945 10.9222 10.1589 11.355 10.2932L11.354 10.2942C11.8643 10.4475 12.2558 10.7883 12.4927 11.262L12.5669 11.4299C12.8904 12.2819 12.522 13.2517 11.7144 13.7268L11.7134 13.7278L9.31689 15.1086H9.31592C9.15324 15.2017 9.14116 15.3484 9.14111 15.4124C9.14111 15.4762 9.15283 15.6238 9.31592 15.717C9.6628 15.9062 9.75681 15.9531 9.78662 15.968L10.145 16.1389L10.1489 16.1409L10.6069 16.3538C11.0343 16.543 11.3998 16.6631 11.9673 16.7327H11.9683L12.3843 16.7737C13.3435 16.8387 14.2255 16.6993 15.1001 16.3274C16.1019 15.9014 17.1011 15.1673 18.1978 14.0706L18.1987 14.0696L18.3306 13.9524C19.0105 13.4055 19.9818 13.4249 20.6099 14.0208C21.2397 14.6184 21.2898 15.6456 20.7466 16.3469L20.6304 16.4827C17.8936 19.3794 13.9726 21.1095 10.1274 21.1096C7.63065 21.1096 4.86911 20.2286 3.57861 19.762L2.84229 19.4807C2.53578 19.3578 2.40011 18.9968 2.51904 18.6995L2.57568 18.593C2.70897 18.3957 2.95531 18.3004 3.18701 18.343L3.30029 18.3762L3.31006 18.3801L3.47705 18.4475C3.5872 18.4908 3.74685 18.5515 3.94678 18.6243C4.34725 18.7701 4.91045 18.963 5.56885 19.1555C6.88807 19.5412 8.58098 19.923 10.1108 19.9231C15.3283 19.9231 18.8056 16.6682 19.7661 15.6448L19.8354 15.5549C19.9539 15.3658 19.9516 15.1263 19.8462 14.9592L19.7847 14.8821C19.6242 14.7217 19.3489 14.7043 19.1411 14.844L19.0571 14.9133C17.8436 16.1269 16.6948 16.96 15.5181 17.4485C14.487 17.8764 13.4393 18.0383 12.314 17.9641L11.8267 17.9182C10.8854 17.8046 10.362 17.559 9.646 17.2249V17.2239L9.27783 17.0637C9.21215 17.0309 9.08286 16.9672 8.71631 16.76V16.759C8.23281 16.4827 7.93896 15.9809 7.93896 15.4124C7.93907 14.9151 8.1635 14.4688 8.54346 14.1799L8.71631 14.0657L11.1118 12.6858L11.2261 12.6038C11.4696 12.3927 11.5495 12.0493 11.4136 11.7883L11.4106 11.7825C11.3315 11.611 11.1867 11.4918 11.0132 11.4377L10.8726 11.4124C10.7327 11.4015 10.5973 11.4344 10.4761 11.5051H10.4751L4.98291 14.6799C4.73699 14.8205 4.41665 14.7624 4.23193 14.5559L4.16162 14.4592C4.00112 14.1784 4.09931 13.8 4.38232 13.6379L9.87451 10.4631L10.0444 10.3762Z" fill="#CCCCCC" stroke="#CCCCCC" stroke-width="0.25"/>
<path d="M1.47656 13.8909C1.81526 13.8911 2.07715 14.1537 2.07715 14.4924V20.5237C2.07715 20.8624 1.81526 21.1251 1.47656 21.1252C1.13769 21.1252 0.875 20.8626 0.875 20.5237V14.4924C0.875 14.1536 1.13769 13.8909 1.47656 13.8909Z" fill="#CCCCCC" stroke="#CCCCCC" stroke-width="0.25"/>
<path d="M4.33301 3.09726C4.67178 3.09737 4.93359 3.36002 4.93359 3.69882C4.9334 4.03745 4.67166 4.2993 4.33301 4.29941H3.69824C3.35949 4.29941 3.09687 4.03752 3.09668 3.69882C3.09668 3.35995 3.35937 3.09726 3.69824 3.09726H4.33301Z" fill="#CCCCCC" stroke="#CCCCCC" stroke-width="0.25"/>
<path d="M6.87305 3.09726C7.21182 3.09737 7.47363 3.36002 7.47363 3.69882C7.47344 4.03745 7.21169 4.2993 6.87305 4.29941H6.23828C5.89953 4.29941 5.63691 4.03752 5.63672 3.69882C5.63672 3.35995 5.8994 3.09726 6.23828 3.09726H6.87305Z" fill="#CCCCCC" stroke="#CCCCCC" stroke-width="0.25"/>
<path d="M18.9365 0.875C20.1484 0.875008 21.125 1.8516 21.125 3.06348V11C21.125 11.3389 20.8623 11.6016 20.5234 11.6016C20.1847 11.6014 19.9229 11.3388 19.9229 11V6.52148H2.07715V9.41309C2.07695 9.75165 1.81513 10.0135 1.47656 10.0137C1.13782 10.0137 0.875201 9.75177 0.875 9.41309V3.06348C0.875008 1.8516 1.8516 0.875008 3.06348 0.875H18.9365ZM3.06348 2.07715C2.51348 2.07716 2.07716 2.51348 2.07715 3.06348V5.31934H19.9229V3.06348C19.9228 2.51348 19.4865 2.07716 18.9365 2.07715H3.06348Z" fill="#CCCCCC" stroke="#CCCCCC" stroke-width="0.25"/>
</svg>
