<svg width="75" height="75" viewBox="0 0 75 75" fill="none" xmlns="http://www.w3.org/2000/svg">
<path d="M55.957 2.457C54.414 0.875 52.289 0 50.082 0H29.75C26.543 0 23.957 2.582 23.957 5.793V57.125C23.957 60.332 26.582 62.957 29.789 62.957H69C72.207 62.957 74.793 60.375 74.793 57.164V24.707C74.793 22.5 73.918 20.375 72.336 18.832L55.957 2.457ZM60.4179 45.457H38.3359C37.1679 45.457 36.2539 44.539 36.2539 43.375C36.2539 42.207 37.1719 41.293 38.3359 41.293H60.4179C61.5859 41.293 62.4999 42.211 62.4999 43.375C62.4999 44.5391 61.582 45.457 60.4179 45.457ZM60.4179 30.289H38.3359C37.1679 30.289 36.2539 29.332 36.2539 28.207C36.2539 27.039 37.1719 26.125 38.3359 26.125H60.4179C61.5859 26.125 62.4999 27.043 62.4999 28.207C62.4999 29.332 61.582 30.289 60.4179 30.289Z" fill="#485874"/>
<path d="M5.83209 74.871H45.0391C48.2461 74.871 50.8321 72.289 50.8321 69.078V67.121H29.7891C24.2891 67.121 19.7891 62.621 19.7891 57.121L19.793 16.039V11.871H5.793C2.586 11.871 0 14.453 0 17.664V69.039C0 72.246 2.62509 74.871 5.83209 74.871Z" fill="#485874"/>
</svg>
