<svg width="75" height="75" viewBox="0 0 75 75" fill="none" xmlns="http://www.w3.org/2000/svg">
<path d="M55.957 2.457C54.375 0.875 52.289 0 50.082 0H29.75C26.543 0 23.957 2.582 23.957 5.793V11.875L5.793 11.8711C2.586 11.8711 0 14.4531 0 17.6641V69.0391C0 72.2461 2.625 74.8711 5.832 74.8711H45.039C48.246 74.8711 50.832 72.2891 50.832 69.0781V62.9531H69C72.207 62.9531 74.793 60.3711 74.793 57.1601V24.7071C74.793 22.5001 73.918 20.3751 72.336 18.8321L55.957 2.457ZM46.6679 69.082C46.6679 69.957 45.9179 70.707 45.0429 70.707H5.8319C4.9569 70.707 4.1639 69.914 4.1639 69.039L4.16781 17.664C4.16781 16.789 4.91781 16.039 5.79281 16.039H23.9608V57.121C23.9608 60.328 26.5858 62.953 29.7928 62.953H46.6678L46.6679 69.082ZM70.6249 57.164C70.6249 58.039 69.9179 58.789 68.9999 58.789H29.7929C28.8749 58.789 28.1249 58.039 28.1249 57.121V5.789C28.1249 4.87103 28.8319 4.164 29.7499 4.164H50.0819C51.2069 4.164 52.2499 4.58197 53.0389 5.371L69.4139 21.746C70.2069 22.539 70.6209 23.578 70.6209 24.703L70.6249 57.164Z" fill="white"/>
<path d="M60.4179 26.121H38.3359C37.1679 26.121 36.2539 27.039 36.2539 28.203C36.2539 29.371 37.1719 30.285 38.3359 30.285H60.4179C61.5859 30.285 62.4999 29.367 62.4999 28.203C62.4999 27.0389 61.5819 26.121 60.4179 26.121Z" fill="white"/>
<path d="M60.4179 41.289H38.3359C37.1679 41.289 36.2539 42.207 36.2539 43.371C36.2539 44.539 37.1719 45.453 38.3359 45.453H60.4179C61.5859 45.453 62.4999 44.535 62.4999 43.371C62.4999 42.2069 61.5819 41.289 60.4179 41.289Z" fill="white"/>
</svg>
