<svg width="25" height="25" viewBox="0 0 25 25" fill="none" xmlns="http://www.w3.org/2000/svg">
<path d="M23.2501 12.04C23.2501 12.21 23.2501 12.38 23.2401 12.55C22.9901 18.15 18.4801 22.83 12.9801 23.22C8.26011 23.56 3.85011 20.83 2.00011 16.43C1.48011 15.18 1.88011 14.52 2.17011 14.24C2.45011 13.96 3.10011 13.57 4.29011 14.09C5.35011 14.55 6.48011 14.78 7.64011 14.77C12.0701 14.75 15.8301 11.07 16.0101 6.58001C16.0401 5.93001 15.9901 5.29001 15.8801 4.67001C15.6401 3.35001 16.1701 2.8 16.5101 2.59001C16.8501 2.38001 17.5801 2.14001 18.6601 2.94001C21.5601 5.06 23.2501 8.43001 23.2501 12.04ZM12.8701 21.73C17.6301 21.39 21.5301 17.33 21.7401 12.49C21.9001 9.2 20.4001 6.08 17.7801 4.16C17.5701 4.01001 17.4201 3.94001 17.3401 3.91C17.3301 4.00001 17.3201 4.16 17.3701 4.41C17.5001 5.14 17.5501 5.9 17.5201 6.65C17.3101 11.93 12.8801 16.25 7.66011 16.28C6.28011 16.28 4.95011 16.01 3.70011 15.46C3.48011 15.36 3.33011 15.34 3.25011 15.33C3.25011 15.42 3.27011 15.58 3.38011 15.84C4.98011 19.65 8.80011 22.01 12.8701 21.73Z" fill="#333743"/>
</svg>
