<svg width="120" height="113" viewBox="0 0 120 113" fill="none" xmlns="http://www.w3.org/2000/svg">
<path d="M12.4905 33.061C13.9599 34.2854 14.4497 35.9997 13.9599 37.714L11.2661 48.4894C10.2865 52.6526 14.6946 55.8363 18.368 53.6322L27.919 47.7547C29.3884 46.7751 31.3475 46.7751 32.8169 47.7547L42.3679 53.6322C46.0413 55.8363 50.4494 52.6526 49.4698 48.4894L47.5107 37.714C47.0209 35.9997 47.7556 34.0405 48.98 33.061L57.5514 25.7141C60.7351 23.0202 59.0208 17.6325 54.8576 17.1427L43.5923 16.1631C41.8781 15.9182 40.1638 14.9387 39.4291 13.2244L35.021 2.93875C33.3067 -0.979584 27.6741 -0.979584 26.2047 2.93875L21.7966 13.2244C21.0619 14.9387 19.5925 15.9182 17.6334 16.1631L6.36814 17.1427C2.20491 17.3876 0.49064 22.7753 3.67429 25.7141L12.4905 33.061Z" fill="black"/>
<path d="M77.3881 29.8773H113.388C117.061 29.8773 120 26.9385 120 23.2651C120 19.5916 117.061 16.6529 113.388 16.6529H77.3881C73.7146 16.6529 70.7759 19.5916 70.7759 23.2651C70.7759 26.9385 73.7146 29.8773 77.3881 29.8773Z" fill="black"/>
<path d="M113.388 43.5914H77.3881C73.7146 43.5914 70.7759 46.5302 70.7759 50.2036C70.7759 53.8771 73.7146 56.8158 77.3881 56.8158H113.388C117.061 56.8158 120 53.8771 120 50.2036C120 46.5302 117.061 43.5914 113.388 43.5914Z" fill="black"/>
<path d="M113.387 70.775H6.61219C2.93875 70.775 0 73.7138 0 77.3872C0 81.0607 2.93875 83.9994 6.61219 83.9994H113.142C116.815 83.9994 119.754 81.0607 119.754 77.3872C119.999 73.7138 117.06 70.775 113.387 70.775Z" fill="black"/>
<path d="M113.387 98.938H6.61219C2.93875 98.938 0 101.877 0 105.55C0 109.224 2.93875 112.162 6.61219 112.162H113.142C116.815 112.162 119.754 109.224 119.754 105.55C119.754 101.877 117.06 98.938 113.387 98.938Z" fill="black"/>
</svg>
