<svg width="22" height="22" viewBox="0 0 22 22" fill="none" xmlns="http://www.w3.org/2000/svg">
<path d="M19.3682 0.956055C20.3197 1.06278 21.0545 1.9479 21.0547 3.01465V15.082C21.0547 16.149 20.3198 17.035 19.3682 17.1426L19.1748 17.1533H14.6377L11.4678 20.834C11.3695 20.9479 11.2449 21.0165 11.1133 21.042L11.124 21.0547H11.0049L10.9492 21.0557V21.0547H10.874L10.8857 21.041C10.7966 21.0237 10.7102 20.9878 10.6338 20.9297L10.5332 20.834L7.36328 17.1523H2.8252C1.78162 17.1523 0.945312 16.2202 0.945312 15.082V3.01465C0.945545 1.87774 1.78078 0.946349 2.82422 0.946289L19.1748 0.945312L19.3682 0.956055ZM2.70605 2.35742C2.43856 2.41701 2.23144 2.67437 2.22266 2.99512V15.1025L2.23828 15.2354C2.30091 15.5361 2.54275 15.7539 2.8252 15.7549L7.7207 15.7598H7.72949L7.7207 15.8115L7.72949 15.7607C7.86885 15.7831 8.00245 15.8542 8.10547 15.9736V15.9746L11 19.3379L13.8955 15.9746L13.9844 15.8877C14.0788 15.8121 14.1889 15.7683 14.3018 15.7568H14.3076L19.1758 15.7539L19.2939 15.7402C19.5609 15.6808 19.769 15.4244 19.7773 15.1035V2.99512L19.7617 2.8623C19.7084 2.60521 19.5231 2.4086 19.2939 2.35742L19.1758 2.34375H2.82422L2.70605 2.35742ZM10.3193 11.9912C10.5231 11.9912 10.6987 12.0717 10.8398 12.2275L10.9326 12.3516C11.0124 12.4814 11.0527 12.6293 11.0527 12.7939C11.0527 12.9583 11.0123 13.1065 10.9326 13.2363L10.8398 13.3594C10.6982 13.518 10.524 13.6035 10.3193 13.6035C10.1414 13.6034 9.98536 13.5421 9.85449 13.4209L9.7998 13.3652C9.65794 13.2063 9.58789 13.0124 9.58789 12.7939C9.58798 12.5744 9.65892 12.3841 9.7998 12.2285L9.91211 12.125C10.0304 12.0362 10.1665 11.9913 10.3193 11.9912ZM10.998 4.49512C11.4458 4.49514 11.8268 4.54702 12.1387 4.65625L12.3633 4.74316C12.5776 4.83553 12.7605 4.94335 12.9102 5.06641L13.0508 5.19043C13.1833 5.31443 13.2906 5.43983 13.373 5.56641L13.46 5.70605C13.5401 5.84441 13.6016 5.97858 13.6436 6.1084H13.6426C13.6992 6.27997 13.7359 6.42944 13.751 6.55566C13.7653 6.67581 13.7734 6.7585 13.7734 6.79883V7.54785C13.7734 8.14788 13.5581 8.66442 13.1289 9.09082L12.9316 9.26855C12.7817 9.39029 12.6252 9.49755 12.4639 9.5918L12.3008 9.68164C12.1901 9.73899 12.0805 9.79234 11.9727 9.84277L11.6533 9.9873C11.5473 10.0337 11.4377 10.0878 11.3193 10.1445H11.3184C11.2122 10.1952 11.1235 10.2411 11.0527 10.2832V10.3984C11.0527 10.5633 11.013 10.7113 10.9336 10.8408L10.8408 10.9639C10.6986 11.1209 10.523 11.2012 10.3193 11.2012C10.1676 11.2011 10.0316 11.1558 9.91309 11.0674L9.7998 10.9639C9.65801 10.8072 9.58789 10.618 9.58789 10.3984V10.0947C9.58789 9.98767 9.60493 9.86842 9.63867 9.74023L9.6709 9.64062C9.70892 9.54075 9.76396 9.44105 9.83398 9.33984V9.33887L9.91406 9.23633C10.001 9.13399 10.1101 9.03385 10.2451 8.94238L10.4385 8.82031C10.6386 8.70247 10.8593 8.59623 11.0967 8.49414L11.4355 8.33789C11.5412 8.28625 11.6398 8.23534 11.7314 8.18555L11.8613 8.11035C11.9838 8.03439 12.0834 7.95751 12.1592 7.87988C12.2562 7.7793 12.3027 7.66915 12.3027 7.54785V6.81152C12.3026 6.78565 12.2906 6.73495 12.2617 6.6543V6.65332C12.2353 6.58175 12.1819 6.50484 12.0977 6.41895V6.41797C12.0347 6.35451 11.9472 6.29567 11.834 6.24414L11.7109 6.19531C11.5399 6.13337 11.3029 6.10061 10.998 6.10059C10.3944 6.10059 10.0014 6.24786 9.80371 6.52734L9.80273 6.52637C9.77157 6.57107 9.75469 6.61646 9.73828 6.66016V6.66113C9.72053 6.70792 9.70807 6.73715 9.70215 6.76074L9.69727 7.09863C9.6971 7.26267 9.65877 7.41064 9.5791 7.54004L9.48535 7.66406C9.37645 7.78253 9.24959 7.85587 9.10742 7.88574L8.95996 7.90137C8.80704 7.90137 8.67109 7.85548 8.55273 7.7666L8.44043 7.66309C8.29846 7.50633 8.22755 7.31732 8.22754 7.09766V6.79883C8.22755 6.75978 8.2325 6.67879 8.24512 6.55664L8.28223 6.35059C8.30021 6.27661 8.32324 6.1974 8.35156 6.11328L8.40234 5.97949C8.45953 5.84518 8.53535 5.70739 8.62793 5.56543L8.71875 5.44043C8.81825 5.31624 8.94318 5.19469 9.08984 5.07324L9.25195 4.9541C9.42347 4.84075 9.62496 4.74421 9.85645 4.66309L10.1035 4.58984C10.363 4.52708 10.6606 4.49431 10.9971 4.49512H10.998Z" fill="#CCCCCC" stroke="#CCCCCC" stroke-width="0.11"/>
</svg>
