<svg width="72" height="72" viewBox="0 0 72 72" fill="none" xmlns="http://www.w3.org/2000/svg">
<circle cx="36" cy="36" r="36" fill="white"/>
<path fill-rule="evenodd" clip-rule="evenodd" d="M45.7778 28.4444V31.5555H43.1111V45.7777H45.5556V50.6667H42.4082C41.8808 49.3636 40.6032 48.4445 39.1111 48.4445H34.2222C32.2586 48.4445 30.6667 50.0364 30.6667 52.0001C30.6667 53.9637 32.2586 55.5556 34.2222 55.5556H39.1111C40.6032 55.5556 41.8808 54.6364 42.4082 53.3334H48.2222V45.7281C50.3606 45.4064 52 43.5613 52 41.3333V36C52 33.8499 50.4731 32.0563 48.4444 31.6444V28.4444C48.4444 21.5716 42.8729 16 36 16C29.1271 16 23.5555 21.5716 23.5555 28.4444V31.6444C21.5269 32.0563 20 33.8499 20 36V41.3333C20 43.788 21.9898 45.7777 24.4444 45.7777H28.8889V31.5555H26.2222V28.4444C26.2222 23.0443 30.5999 18.6667 36 18.6667C41.4001 18.6667 45.7778 23.0443 45.7778 28.4444ZM47.5556 34.2222H45.7778V43.1111H47.5556C48.5373 43.1111 49.3333 42.3152 49.3333 41.3333V36C49.3333 35.0182 48.5373 34.2222 47.5556 34.2222ZM26.2222 34.2222H24.4444C23.4626 34.2222 22.6667 35.0182 22.6667 36V41.3333C22.6667 42.3152 23.4626 43.1111 24.4444 43.1111H26.2222V34.2222ZM39.1111 51.1112H34.2222C33.7313 51.1112 33.3333 51.5092 33.3333 52.0001C33.3333 52.491 33.7313 52.889 34.2222 52.889H39.1111C39.602 52.889 40 52.491 40 52.0001C40 51.5092 39.602 51.1112 39.1111 51.1112Z" fill="#5AC2BF"/>
</svg>
