<svg width="78" height="78" viewBox="0 0 78 78" fill="none" xmlns="http://www.w3.org/2000/svg">
<circle cx="39" cy="39" r="39" fill="#202F46"/>
<path fill-rule="evenodd" clip-rule="evenodd" d="M48.7003 31.4444V34.5555H45.9382V48.7777H48.4701V53.6667H45.2102C44.6638 52.3636 43.3406 51.4445 41.795 51.4445H36.7312C34.6973 51.4445 33.0484 53.0364 33.0484 55.0001C33.0484 56.9637 34.6973 58.5556 36.7312 58.5556H41.795C43.3406 58.5556 44.6638 57.6364 45.2102 56.3334H51.2322V48.7281C53.4471 48.4064 55.1452 46.5613 55.1452 44.3333V39C55.1452 36.8499 53.5637 35.0563 51.4624 34.6444V31.4444C51.4624 24.5716 45.6915 19 38.5726 19C31.4538 19 25.6828 24.5716 25.6828 31.4444V34.6444C23.5815 35.0563 22 36.8499 22 39V44.3333C22 46.788 24.0611 48.7777 26.6035 48.7777H31.207V34.5555H28.4449V31.4444C28.4449 26.0443 32.9792 21.6667 38.5726 21.6667C44.166 21.6667 48.7003 26.0443 48.7003 31.4444ZM50.5417 37.2222H48.7003V46.1111H50.5417C51.5586 46.1111 52.3831 45.3152 52.3831 44.3333V39C52.3831 38.0182 51.5586 37.2222 50.5417 37.2222ZM28.4449 37.2222H26.6035C25.5865 37.2222 24.7621 38.0182 24.7621 39V44.3333C24.7621 45.3152 25.5865 46.1111 26.6035 46.1111H28.4449V37.2222ZM41.795 54.1112H36.7312C36.2227 54.1112 35.8105 54.5092 35.8105 55.0001C35.8105 55.491 36.2227 55.889 36.7312 55.889H41.795C42.3035 55.889 42.7158 55.491 42.7158 55.0001C42.7158 54.5092 42.3035 54.1112 41.795 54.1112Z" fill="#979EA9"/>
</svg>
