<svg width="22" height="22" viewBox="0 0 22 22" fill="none" xmlns="http://www.w3.org/2000/svg">
<path d="M11.0107 0.75C12.8986 0.75 14.7058 1.55726 16.0342 2.98828H16.0332C17.3619 4.4176 18.1055 6.35503 18.1055 8.36914V8.41699H19.3721C20.4265 8.41699 21.25 9.33141 21.25 10.4189V12.417C21.25 13.2588 20.7596 13.9895 20.0498 14.2822V16.5723C20.0497 17.0066 19.889 17.4263 19.5977 17.7393L19.5986 17.7402C19.3078 18.0552 18.9069 18.2344 18.4873 18.2344H16.6631C16.5256 18.4295 16.3795 18.6186 16.2236 18.7998L16.0342 19.0117C14.706 20.4426 12.8987 21.25 11.0117 21.25C9.24174 21.25 7.54313 20.5404 6.24316 19.2725L5.98926 19.0117C4.83517 17.7694 4.12405 16.1453 3.95703 14.4189H2.62793C1.57361 14.4189 0.750191 13.5044 0.75 12.417V10.418L0.759766 10.2158C0.854224 9.21943 1.63952 8.41602 2.62793 8.41602H3.91602V8.36914C3.91602 6.35414 4.65963 4.41776 5.98828 2.98828L6.24219 2.72754C7.54202 1.45961 9.24079 0.75004 11.0107 0.75ZM11.0127 1.94434C9.53979 1.94434 8.11838 2.53504 7.02637 3.59961L6.8125 3.81934C5.6943 5.02324 5.06445 6.65951 5.06445 8.36816V13.6309C5.06445 15.3396 5.69517 16.9769 6.8125 18.1797L7.02637 18.3994C8.11914 19.4648 9.53983 20.0547 11.0127 20.0547C12.5599 20.0547 14.0487 19.4016 15.1602 18.2334H13.3467C13.163 18.5407 12.8383 18.7549 12.4561 18.7549H10.8369C10.2382 18.7549 9.7832 18.2376 9.7832 17.6396V17.6328C9.7833 17.035 10.2383 16.5186 10.8369 16.5186H12.4561C12.8385 16.5186 13.1633 16.7317 13.3467 17.0391H16.0537C16.6405 16.0267 16.9609 14.8465 16.9609 13.6309V8.36816C16.9609 6.76616 16.407 5.227 15.417 4.0498L15.2129 3.81934C14.0952 2.61604 12.5837 1.94434 11.0127 1.94434ZM18.0654 14.4199C17.9767 15.3363 17.7371 16.2235 17.3564 17.04H18.4883C18.5925 17.04 18.6968 16.9956 18.7764 16.9102L18.8311 16.8389C18.8783 16.7622 18.9052 16.6695 18.9053 16.5723V14.4199H18.0654ZM18.1064 13.2246H19.374C19.7607 13.2244 20.1062 12.8814 20.1064 12.418V10.4189C20.1064 9.95583 19.7614 9.61151 19.374 9.61133H18.1064V13.2246ZM2.62793 9.61133C2.24096 9.61133 1.89551 9.95513 1.89551 10.4189V12.418C1.89573 12.8817 2.24042 13.2246 2.62793 13.2246H3.89453V9.61133H2.62793Z" fill="#CCCCCC" stroke="#CCCCCC" stroke-width="0.5"/>
</svg>
