<svg width="21" height="21" viewBox="0 0 21 21" fill="none" xmlns="http://www.w3.org/2000/svg">
<path d="M10.1533 0.878906C11.7321 0.957595 12.9891 2.2425 12.9893 3.82129C12.9893 5.16479 12.0757 6.29544 10.8311 6.65039V10.3281L13.9668 12.1484C14.5132 11.5843 15.2814 11.2324 16.1357 11.2324C17.7858 11.2326 19.125 12.5508 19.125 14.1787C19.1249 15.8065 17.7855 17.1248 16.1357 17.125C14.4859 17.125 13.1446 15.8066 13.1445 14.1787C13.1445 13.9453 13.1735 13.7177 13.2266 13.5L9.99707 11.626L6.77246 13.4961C6.82563 13.7153 6.85547 13.9432 6.85547 14.1787C6.85535 15.8066 5.51625 17.125 3.86621 17.125C2.21645 17.125 0.875117 15.8085 0.875 14.1787C0.875 12.5487 2.21628 11.2325 3.86621 11.2324C4.71631 11.2324 5.4852 11.5826 6.03027 12.1465L9.27637 10.2637V6.67871C7.97627 6.36014 7.01074 5.20454 7.01074 3.82129C7.01086 2.19149 8.35005 0.875036 10 0.875L10.1533 0.878906ZM3.86621 12.7666C3.07148 12.7666 2.43066 13.4005 2.43066 14.1787C2.43086 14.9566 3.07341 15.5898 3.86621 15.5898C4.65888 15.5898 5.29961 14.9568 5.2998 14.1787C5.2998 13.4003 4.66075 12.7666 3.86621 12.7666ZM16.1357 12.7666C15.341 12.7666 14.7002 13.4005 14.7002 14.1787C14.7004 14.9568 15.3411 15.5898 16.1357 15.5898C16.9303 15.5898 17.5711 14.9567 17.5713 14.1787C17.5713 13.4005 16.9304 12.7667 16.1357 12.7666ZM10 2.40918C9.20534 2.40922 8.56453 3.04316 8.56445 3.82129C8.56445 4.59949 9.20527 5.23336 10 5.2334C10.7948 5.2334 11.4355 4.59951 11.4355 3.82129C11.4355 3.04313 10.7947 2.40918 10 2.40918Z" fill="#CCCCCC" stroke="#CCCCCC" stroke-width="0.25"/>
</svg>
