<svg width="22" height="22" viewBox="0 0 22 22" fill="none" xmlns="http://www.w3.org/2000/svg">
<mask id="path-1-outside-1_591_349" maskUnits="userSpaceOnUse" x="8.15234" y="0" width="14" height="13" fill="black">
<rect fill="white" x="8.15234" width="14" height="13"/>
<path d="M20.219 5.68131C20.1113 5.64863 20.0131 5.59002 19.9328 5.51051C19.8524 5.43101 19.7924 5.33297 19.7578 5.22484C19.7233 5.11671 19.7152 5.00172 19.7343 4.88974C19.7534 4.77776 19.7992 4.67215 19.8676 4.58197C20.0144 4.38955 20.0957 4.15423 20.0991 3.91124C20.1026 3.66824 20.0281 3.43065 19.8868 3.23403C19.7455 3.03742 19.545 2.89234 19.3152 2.82054C19.0855 2.74874 18.839 2.75406 18.6125 2.83572C18.5063 2.87345 18.3927 2.88453 18.2813 2.86801C18.17 2.85149 18.0642 2.80785 17.9733 2.74087C17.8823 2.67389 17.8088 2.58557 17.7591 2.4835C17.7094 2.38144 17.685 2.26869 17.688 2.15498C17.6944 1.91252 17.6232 1.67446 17.4848 1.47628C17.3464 1.27811 17.1484 1.13044 16.9202 1.05532C16.6921 0.980188 16.446 0.981622 16.2187 1.0594C15.9914 1.13718 15.795 1.28715 15.659 1.48692C15.5959 1.58169 15.5105 1.65913 15.4104 1.71227C15.3104 1.76541 15.1988 1.79259 15.0858 1.79135C14.9729 1.79221 14.8615 1.76487 14.7615 1.71176C14.6615 1.65866 14.576 1.58142 14.5127 1.48692C14.3768 1.28749 14.1808 1.13772 13.9539 1.05987C13.7271 0.982019 13.4814 0.98025 13.2535 1.05483C13.0255 1.1294 12.8275 1.27634 12.6888 1.47379C12.5501 1.67124 12.4781 1.90866 12.4837 2.15075C12.4853 2.26376 12.4598 2.37549 12.4096 2.47643C12.3593 2.57738 12.2856 2.66457 12.1948 2.73057C12.1041 2.79658 11.9989 2.83945 11.8882 2.85555C11.7775 2.87165 11.6646 2.86049 11.5591 2.82303C11.3333 2.74268 11.0878 2.73809 10.8592 2.80994C10.6305 2.88179 10.4309 3.02625 10.29 3.22188C10.149 3.4175 10.0743 3.65385 10.0768 3.89582C10.0794 4.1378 10.159 4.37249 10.3041 4.56506C10.3724 4.65551 10.418 4.76142 10.4368 4.87364C10.4557 4.98586 10.4473 5.10104 10.4123 5.20923C10.3773 5.31742 10.3168 5.41539 10.236 5.49468C10.1552 5.57398 10.0565 5.63222 9.94845 5.66439C9.71851 5.73339 9.51677 5.87563 9.37331 6.06992C9.22985 6.26422 9.15234 6.50016 9.15234 6.74259C9.15234 6.98502 9.22985 7.22096 9.37331 7.41525C9.51677 7.60954 9.71851 7.75179 9.94845 7.82078C10.0561 7.85346 10.1544 7.91206 10.2347 7.99157C10.315 8.07108 10.375 8.16911 10.4096 8.27724C10.4442 8.38537 10.4522 8.50037 10.4331 8.61235C10.414 8.72433 10.3683 8.82994 10.2999 8.92012C10.153 9.11254 10.0718 9.34786 10.0683 9.59085C10.0648 9.83385 10.1393 10.0714 10.2807 10.2681C10.422 10.4647 10.6225 10.6097 10.8522 10.6815C11.0819 10.7534 11.3285 10.748 11.5549 10.6664C11.6611 10.6286 11.7748 10.6176 11.8861 10.6341C11.9975 10.6506 12.1032 10.6942 12.1942 10.7612C12.2851 10.8282 12.3587 10.9165 12.4084 11.0186C12.4581 11.1207 12.4825 11.2334 12.4795 11.3471C12.4795 11.5839 12.5534 11.8146 12.6907 12.0065C12.8281 12.1983 13.0218 12.3414 13.2444 12.4155C13.4669 12.4895 13.7069 12.4907 13.9301 12.4188C14.1533 12.3469 14.3484 12.2057 14.4876 12.0152C14.5507 11.9204 14.6361 11.843 14.7361 11.7898C14.8362 11.7367 14.9477 11.7095 15.0607 11.7107C15.1737 11.7095 15.2853 11.7367 15.3853 11.7898C15.4854 11.843 15.5708 11.9204 15.6339 12.0152C15.7329 12.1671 15.8676 12.2918 16.0261 12.3782C16.1845 12.4645 16.3617 12.5098 16.5417 12.5099C16.6625 12.5091 16.7825 12.4891 16.8973 12.4507C17.1276 12.379 17.3281 12.2323 17.4673 12.0334C17.6066 11.8346 17.6768 11.5948 17.667 11.3513C17.6648 11.238 17.6897 11.1257 17.7397 11.0242C17.7897 10.9227 17.8632 10.835 17.9541 10.7685C18.045 10.702 18.1504 10.6587 18.2615 10.6424C18.3725 10.6261 18.4858 10.6372 18.5916 10.6748C18.8174 10.7552 19.0629 10.7598 19.2915 10.6879C19.5202 10.6161 19.7198 10.4716 19.8607 10.276C20.0017 10.0804 20.0764 9.84401 20.0739 9.60204C20.0713 9.36006 19.9917 9.12537 19.8467 8.9328C19.7783 8.84234 19.7327 8.73644 19.7139 8.62422C19.695 8.512 19.7034 8.39682 19.7384 8.28863C19.7734 8.18044 19.8339 8.08247 19.9147 8.00318C19.9955 7.92388 20.0942 7.86564 20.2023 7.83347C20.4311 7.76515 20.6322 7.62429 20.7758 7.43166C20.9194 7.23903 20.998 7.00484 20.9998 6.76366C21.0017 6.52247 20.9268 6.28706 20.7862 6.09218C20.6456 5.89729 20.4468 5.75325 20.219 5.68131ZM20.0977 7.43179C19.9233 7.48106 19.7635 7.57259 19.632 7.69842C19.5006 7.82426 19.4015 7.98061 19.3434 8.15391C19.2853 8.32721 19.2699 8.51222 19.2985 8.69289C19.3272 8.87357 19.399 9.04445 19.5078 9.19072C19.5979 9.31085 19.6473 9.45711 19.6488 9.60784C19.6502 9.75857 19.6036 9.90577 19.5159 10.0277C19.4281 10.1495 19.3039 10.2396 19.1615 10.2846C19.0192 10.3296 18.8663 10.3271 18.7255 10.2774C18.5555 10.2163 18.3733 10.1979 18.1947 10.2238C18.0161 10.2498 17.8464 10.3192 17.7003 10.4261C17.5541 10.533 17.4359 10.6743 17.3557 10.8377C17.2756 11.0011 17.236 11.1817 17.2403 11.364C17.2421 11.5128 17.1971 11.6583 17.1118 11.7795C17.0264 11.9008 16.9052 11.9915 16.7655 12.0385C16.6259 12.0856 16.475 12.0865 16.3348 12.0413C16.1945 11.9961 16.0721 11.907 15.9853 11.7868C15.8834 11.6361 15.7468 11.5126 15.5871 11.4272C15.4275 11.3417 15.2497 11.2968 15.0691 11.2964C14.8888 11.2964 14.7113 11.3406 14.5517 11.4253C14.3921 11.51 14.2552 11.6326 14.1529 11.7826C14.066 11.9027 13.9436 11.9918 13.8034 12.0371C13.6631 12.0823 13.5123 12.0813 13.3726 12.0343C13.233 11.9872 13.1117 11.8965 13.0264 11.7753C12.941 11.6541 12.896 11.5086 12.8978 11.3598C12.9026 11.1776 12.8635 10.997 12.7839 10.8335C12.7043 10.6701 12.5865 10.5286 12.4408 10.4212C12.2951 10.3139 12.1258 10.244 11.9474 10.2174C11.7691 10.1909 11.587 10.2086 11.4169 10.2689C11.2757 10.3184 11.1225 10.3205 10.98 10.275C10.8375 10.2295 10.7134 10.1387 10.626 10.0162C10.5386 9.89373 10.4927 9.74601 10.495 9.59501C10.4973 9.444 10.5477 9.29778 10.6387 9.17804C10.7487 9.03341 10.8222 8.86393 10.8529 8.6842C10.8836 8.50448 10.8706 8.3199 10.815 8.14637C10.7594 7.97285 10.6629 7.8156 10.5338 7.68816C10.4047 7.56073 10.2469 7.46693 10.074 7.41487C9.9309 7.3715 9.8055 7.28267 9.71634 7.16157C9.62719 7.04046 9.57904 6.89354 9.57904 6.74259C9.57904 6.59164 9.62719 6.44471 9.71634 6.32361C9.8055 6.2025 9.9309 6.11367 10.074 6.0703C10.2473 6.01874 10.4055 5.92532 10.5351 5.7981C10.6647 5.67088 10.7617 5.51369 10.8177 5.3401C10.8737 5.16652 10.8871 4.98176 10.8566 4.80179C10.8262 4.62182 10.7528 4.45205 10.6429 4.30714C10.5528 4.18701 10.5034 4.04075 10.5019 3.89002C10.5005 3.73929 10.5471 3.59209 10.6348 3.4702C10.7226 3.34831 10.8468 3.25821 10.9892 3.21324C11.1315 3.16827 11.2844 3.17081 11.4252 3.22049C11.5952 3.28155 11.7774 3.29992 11.956 3.27401C12.1346 3.2481 12.3043 3.17868 12.4504 3.07175C12.5966 2.96481 12.7148 2.82356 12.795 2.66017C12.8751 2.49678 12.9147 2.31614 12.9104 2.13384C12.9086 1.98506 12.9536 1.83956 13.0389 1.71832C13.1243 1.59709 13.2455 1.50641 13.3852 1.45936C13.5248 1.41231 13.6757 1.41133 13.8159 1.45656C13.9562 1.50179 14.0786 1.5909 14.1654 1.71102C14.2673 1.86178 14.4039 1.98522 14.5636 2.07068C14.7232 2.15613 14.901 2.20103 15.0816 2.20149C15.2619 2.2015 15.4395 2.15725 15.599 2.07255C15.7586 1.98785 15.8955 1.86523 15.9978 1.71524C16.0847 1.59513 16.2071 1.50602 16.3473 1.46079C16.4876 1.41556 16.6384 1.41653 16.7781 1.46358C16.9177 1.51063 17.039 1.60132 17.1243 1.72255C17.2097 1.84379 17.2547 1.98929 17.2529 2.13806C17.2481 2.32022 17.2872 2.50082 17.3668 2.66431C17.4464 2.82781 17.5642 2.9693 17.7099 3.07663C17.8556 3.18395 18.0249 3.25389 18.2033 3.28042C18.3816 3.30696 18.5637 3.28929 18.7338 3.22894C18.875 3.17947 19.0282 3.17733 19.1707 3.22285C19.3132 3.26837 19.4373 3.35912 19.5247 3.48163C19.6121 3.60413 19.658 3.75185 19.6557 3.90285C19.6535 4.05386 19.603 4.20008 19.512 4.31982C19.402 4.46445 19.3285 4.63393 19.2978 4.81366C19.2671 4.99338 19.2801 5.17796 19.3357 5.35149C19.3913 5.52501 19.4878 5.68226 19.6169 5.8097C19.746 5.93713 19.9038 6.03093 20.0767 6.08299C20.2222 6.12282 20.3508 6.20938 20.4433 6.32959C20.5358 6.44981 20.5871 6.59717 20.5895 6.74943C20.5918 6.90169 20.5451 7.0506 20.4564 7.17369C20.3677 7.29678 20.2418 7.38736 20.0977 7.43179Z"/>
</mask>
<path d="M20.219 5.68131C20.1113 5.64863 20.0131 5.59002 19.9328 5.51051C19.8524 5.43101 19.7924 5.33297 19.7578 5.22484C19.7233 5.11671 19.7152 5.00172 19.7343 4.88974C19.7534 4.77776 19.7992 4.67215 19.8676 4.58197C20.0144 4.38955 20.0957 4.15423 20.0991 3.91124C20.1026 3.66824 20.0281 3.43065 19.8868 3.23403C19.7455 3.03742 19.545 2.89234 19.3152 2.82054C19.0855 2.74874 18.839 2.75406 18.6125 2.83572C18.5063 2.87345 18.3927 2.88453 18.2813 2.86801C18.17 2.85149 18.0642 2.80785 17.9733 2.74087C17.8823 2.67389 17.8088 2.58557 17.7591 2.4835C17.7094 2.38144 17.685 2.26869 17.688 2.15498C17.6944 1.91252 17.6232 1.67446 17.4848 1.47628C17.3464 1.27811 17.1484 1.13044 16.9202 1.05532C16.6921 0.980188 16.446 0.981622 16.2187 1.0594C15.9914 1.13718 15.795 1.28715 15.659 1.48692C15.5959 1.58169 15.5105 1.65913 15.4104 1.71227C15.3104 1.76541 15.1988 1.79259 15.0858 1.79135C14.9729 1.79221 14.8615 1.76487 14.7615 1.71176C14.6615 1.65866 14.576 1.58142 14.5127 1.48692C14.3768 1.28749 14.1808 1.13772 13.9539 1.05987C13.7271 0.982019 13.4814 0.98025 13.2535 1.05483C13.0255 1.1294 12.8275 1.27634 12.6888 1.47379C12.5501 1.67124 12.4781 1.90866 12.4837 2.15075C12.4853 2.26376 12.4598 2.37549 12.4096 2.47643C12.3593 2.57738 12.2856 2.66457 12.1948 2.73057C12.1041 2.79658 11.9989 2.83945 11.8882 2.85555C11.7775 2.87165 11.6646 2.86049 11.5591 2.82303C11.3333 2.74268 11.0878 2.73809 10.8592 2.80994C10.6305 2.88179 10.4309 3.02625 10.29 3.22188C10.149 3.4175 10.0743 3.65385 10.0768 3.89582C10.0794 4.1378 10.159 4.37249 10.3041 4.56506C10.3724 4.65551 10.418 4.76142 10.4368 4.87364C10.4557 4.98586 10.4473 5.10104 10.4123 5.20923C10.3773 5.31742 10.3168 5.41539 10.236 5.49468C10.1552 5.57398 10.0565 5.63222 9.94845 5.66439C9.71851 5.73339 9.51677 5.87563 9.37331 6.06992C9.22985 6.26422 9.15234 6.50016 9.15234 6.74259C9.15234 6.98502 9.22985 7.22096 9.37331 7.41525C9.51677 7.60954 9.71851 7.75179 9.94845 7.82078C10.0561 7.85346 10.1544 7.91206 10.2347 7.99157C10.315 8.07108 10.375 8.16911 10.4096 8.27724C10.4442 8.38537 10.4522 8.50037 10.4331 8.61235C10.414 8.72433 10.3683 8.82994 10.2999 8.92012C10.153 9.11254 10.0718 9.34786 10.0683 9.59085C10.0648 9.83385 10.1393 10.0714 10.2807 10.2681C10.422 10.4647 10.6225 10.6097 10.8522 10.6815C11.0819 10.7534 11.3285 10.748 11.5549 10.6664C11.6611 10.6286 11.7748 10.6176 11.8861 10.6341C11.9975 10.6506 12.1032 10.6942 12.1942 10.7612C12.2851 10.8282 12.3587 10.9165 12.4084 11.0186C12.4581 11.1207 12.4825 11.2334 12.4795 11.3471C12.4795 11.5839 12.5534 11.8146 12.6907 12.0065C12.8281 12.1983 13.0218 12.3414 13.2444 12.4155C13.4669 12.4895 13.7069 12.4907 13.9301 12.4188C14.1533 12.3469 14.3484 12.2057 14.4876 12.0152C14.5507 11.9204 14.6361 11.843 14.7361 11.7898C14.8362 11.7367 14.9477 11.7095 15.0607 11.7107C15.1737 11.7095 15.2853 11.7367 15.3853 11.7898C15.4854 11.843 15.5708 11.9204 15.6339 12.0152C15.7329 12.1671 15.8676 12.2918 16.0261 12.3782C16.1845 12.4645 16.3617 12.5098 16.5417 12.5099C16.6625 12.5091 16.7825 12.4891 16.8973 12.4507C17.1276 12.379 17.3281 12.2323 17.4673 12.0334C17.6066 11.8346 17.6768 11.5948 17.667 11.3513C17.6648 11.238 17.6897 11.1257 17.7397 11.0242C17.7897 10.9227 17.8632 10.835 17.9541 10.7685C18.045 10.702 18.1504 10.6587 18.2615 10.6424C18.3725 10.6261 18.4858 10.6372 18.5916 10.6748C18.8174 10.7552 19.0629 10.7598 19.2915 10.6879C19.5202 10.6161 19.7198 10.4716 19.8607 10.276C20.0017 10.0804 20.0764 9.84401 20.0739 9.60204C20.0713 9.36006 19.9917 9.12537 19.8467 8.9328C19.7783 8.84234 19.7327 8.73644 19.7139 8.62422C19.695 8.512 19.7034 8.39682 19.7384 8.28863C19.7734 8.18044 19.8339 8.08247 19.9147 8.00318C19.9955 7.92388 20.0942 7.86564 20.2023 7.83347C20.4311 7.76515 20.6322 7.62429 20.7758 7.43166C20.9194 7.23903 20.998 7.00484 20.9998 6.76366C21.0017 6.52247 20.9268 6.28706 20.7862 6.09218C20.6456 5.89729 20.4468 5.75325 20.219 5.68131ZM20.0977 7.43179C19.9233 7.48106 19.7635 7.57259 19.632 7.69842C19.5006 7.82426 19.4015 7.98061 19.3434 8.15391C19.2853 8.32721 19.2699 8.51222 19.2985 8.69289C19.3272 8.87357 19.399 9.04445 19.5078 9.19072C19.5979 9.31085 19.6473 9.45711 19.6488 9.60784C19.6502 9.75857 19.6036 9.90577 19.5159 10.0277C19.4281 10.1495 19.3039 10.2396 19.1615 10.2846C19.0192 10.3296 18.8663 10.3271 18.7255 10.2774C18.5555 10.2163 18.3733 10.1979 18.1947 10.2238C18.0161 10.2498 17.8464 10.3192 17.7003 10.4261C17.5541 10.533 17.4359 10.6743 17.3557 10.8377C17.2756 11.0011 17.236 11.1817 17.2403 11.364C17.2421 11.5128 17.1971 11.6583 17.1118 11.7795C17.0264 11.9008 16.9052 11.9915 16.7655 12.0385C16.6259 12.0856 16.475 12.0865 16.3348 12.0413C16.1945 11.9961 16.0721 11.907 15.9853 11.7868C15.8834 11.6361 15.7468 11.5126 15.5871 11.4272C15.4275 11.3417 15.2497 11.2968 15.0691 11.2964C14.8888 11.2964 14.7113 11.3406 14.5517 11.4253C14.3921 11.51 14.2552 11.6326 14.1529 11.7826C14.066 11.9027 13.9436 11.9918 13.8034 12.0371C13.6631 12.0823 13.5123 12.0813 13.3726 12.0343C13.233 11.9872 13.1117 11.8965 13.0264 11.7753C12.941 11.6541 12.896 11.5086 12.8978 11.3598C12.9026 11.1776 12.8635 10.997 12.7839 10.8335C12.7043 10.6701 12.5865 10.5286 12.4408 10.4212C12.2951 10.3139 12.1258 10.244 11.9474 10.2174C11.7691 10.1909 11.587 10.2086 11.4169 10.2689C11.2757 10.3184 11.1225 10.3205 10.98 10.275C10.8375 10.2295 10.7134 10.1387 10.626 10.0162C10.5386 9.89373 10.4927 9.74601 10.495 9.59501C10.4973 9.444 10.5477 9.29778 10.6387 9.17804C10.7487 9.03341 10.8222 8.86393 10.8529 8.6842C10.8836 8.50448 10.8706 8.3199 10.815 8.14637C10.7594 7.97285 10.6629 7.8156 10.5338 7.68816C10.4047 7.56073 10.2469 7.46693 10.074 7.41487C9.9309 7.3715 9.8055 7.28267 9.71634 7.16157C9.62719 7.04046 9.57904 6.89354 9.57904 6.74259C9.57904 6.59164 9.62719 6.44471 9.71634 6.32361C9.8055 6.2025 9.9309 6.11367 10.074 6.0703C10.2473 6.01874 10.4055 5.92532 10.5351 5.7981C10.6647 5.67088 10.7617 5.51369 10.8177 5.3401C10.8737 5.16652 10.8871 4.98176 10.8566 4.80179C10.8262 4.62182 10.7528 4.45205 10.6429 4.30714C10.5528 4.18701 10.5034 4.04075 10.5019 3.89002C10.5005 3.73929 10.5471 3.59209 10.6348 3.4702C10.7226 3.34831 10.8468 3.25821 10.9892 3.21324C11.1315 3.16827 11.2844 3.17081 11.4252 3.22049C11.5952 3.28155 11.7774 3.29992 11.956 3.27401C12.1346 3.2481 12.3043 3.17868 12.4504 3.07175C12.5966 2.96481 12.7148 2.82356 12.795 2.66017C12.8751 2.49678 12.9147 2.31614 12.9104 2.13384C12.9086 1.98506 12.9536 1.83956 13.0389 1.71832C13.1243 1.59709 13.2455 1.50641 13.3852 1.45936C13.5248 1.41231 13.6757 1.41133 13.8159 1.45656C13.9562 1.50179 14.0786 1.5909 14.1654 1.71102C14.2673 1.86178 14.4039 1.98522 14.5636 2.07068C14.7232 2.15613 14.901 2.20103 15.0816 2.20149C15.2619 2.2015 15.4395 2.15725 15.599 2.07255C15.7586 1.98785 15.8955 1.86523 15.9978 1.71524C16.0847 1.59513 16.2071 1.50602 16.3473 1.46079C16.4876 1.41556 16.6384 1.41653 16.7781 1.46358C16.9177 1.51063 17.039 1.60132 17.1243 1.72255C17.2097 1.84379 17.2547 1.98929 17.2529 2.13806C17.2481 2.32022 17.2872 2.50082 17.3668 2.66431C17.4464 2.82781 17.5642 2.9693 17.7099 3.07663C17.8556 3.18395 18.0249 3.25389 18.2033 3.28042C18.3816 3.30696 18.5637 3.28929 18.7338 3.22894C18.875 3.17947 19.0282 3.17733 19.1707 3.22285C19.3132 3.26837 19.4373 3.35912 19.5247 3.48163C19.6121 3.60413 19.658 3.75185 19.6557 3.90285C19.6535 4.05386 19.603 4.20008 19.512 4.31982C19.402 4.46445 19.3285 4.63393 19.2978 4.81366C19.2671 4.99338 19.2801 5.17796 19.3357 5.35149C19.3913 5.52501 19.4878 5.68226 19.6169 5.8097C19.746 5.93713 19.9038 6.03093 20.0767 6.08299C20.2222 6.12282 20.3508 6.20938 20.4433 6.32959C20.5358 6.44981 20.5871 6.59717 20.5895 6.74943C20.5918 6.90169 20.5451 7.0506 20.4564 7.17369C20.3677 7.29678 20.2418 7.38736 20.0977 7.43179Z" fill="#CCCCCC"/>
<path d="M20.219 5.68131C20.1113 5.64863 20.0131 5.59002 19.9328 5.51051C19.8524 5.43101 19.7924 5.33297 19.7578 5.22484C19.7233 5.11671 19.7152 5.00172 19.7343 4.88974C19.7534 4.77776 19.7992 4.67215 19.8676 4.58197C20.0144 4.38955 20.0957 4.15423 20.0991 3.91124C20.1026 3.66824 20.0281 3.43065 19.8868 3.23403C19.7455 3.03742 19.545 2.89234 19.3152 2.82054C19.0855 2.74874 18.839 2.75406 18.6125 2.83572C18.5063 2.87345 18.3927 2.88453 18.2813 2.86801C18.17 2.85149 18.0642 2.80785 17.9733 2.74087C17.8823 2.67389 17.8088 2.58557 17.7591 2.4835C17.7094 2.38144 17.685 2.26869 17.688 2.15498C17.6944 1.91252 17.6232 1.67446 17.4848 1.47628C17.3464 1.27811 17.1484 1.13044 16.9202 1.05532C16.6921 0.980188 16.446 0.981622 16.2187 1.0594C15.9914 1.13718 15.795 1.28715 15.659 1.48692C15.5959 1.58169 15.5105 1.65913 15.4104 1.71227C15.3104 1.76541 15.1988 1.79259 15.0858 1.79135C14.9729 1.79221 14.8615 1.76487 14.7615 1.71176C14.6615 1.65866 14.576 1.58142 14.5127 1.48692C14.3768 1.28749 14.1808 1.13772 13.9539 1.05987C13.7271 0.982019 13.4814 0.98025 13.2535 1.05483C13.0255 1.1294 12.8275 1.27634 12.6888 1.47379C12.5501 1.67124 12.4781 1.90866 12.4837 2.15075C12.4853 2.26376 12.4598 2.37549 12.4096 2.47643C12.3593 2.57738 12.2856 2.66457 12.1948 2.73057C12.1041 2.79658 11.9989 2.83945 11.8882 2.85555C11.7775 2.87165 11.6646 2.86049 11.5591 2.82303C11.3333 2.74268 11.0878 2.73809 10.8592 2.80994C10.6305 2.88179 10.4309 3.02625 10.29 3.22188C10.149 3.4175 10.0743 3.65385 10.0768 3.89582C10.0794 4.1378 10.159 4.37249 10.3041 4.56506C10.3724 4.65551 10.418 4.76142 10.4368 4.87364C10.4557 4.98586 10.4473 5.10104 10.4123 5.20923C10.3773 5.31742 10.3168 5.41539 10.236 5.49468C10.1552 5.57398 10.0565 5.63222 9.94845 5.66439C9.71851 5.73339 9.51677 5.87563 9.37331 6.06992C9.22985 6.26422 9.15234 6.50016 9.15234 6.74259C9.15234 6.98502 9.22985 7.22096 9.37331 7.41525C9.51677 7.60954 9.71851 7.75179 9.94845 7.82078C10.0561 7.85346 10.1544 7.91206 10.2347 7.99157C10.315 8.07108 10.375 8.16911 10.4096 8.27724C10.4442 8.38537 10.4522 8.50037 10.4331 8.61235C10.414 8.72433 10.3683 8.82994 10.2999 8.92012C10.153 9.11254 10.0718 9.34786 10.0683 9.59085C10.0648 9.83385 10.1393 10.0714 10.2807 10.2681C10.422 10.4647 10.6225 10.6097 10.8522 10.6815C11.0819 10.7534 11.3285 10.748 11.5549 10.6664C11.6611 10.6286 11.7748 10.6176 11.8861 10.6341C11.9975 10.6506 12.1032 10.6942 12.1942 10.7612C12.2851 10.8282 12.3587 10.9165 12.4084 11.0186C12.4581 11.1207 12.4825 11.2334 12.4795 11.3471C12.4795 11.5839 12.5534 11.8146 12.6907 12.0065C12.8281 12.1983 13.0218 12.3414 13.2444 12.4155C13.4669 12.4895 13.7069 12.4907 13.9301 12.4188C14.1533 12.3469 14.3484 12.2057 14.4876 12.0152C14.5507 11.9204 14.6361 11.843 14.7361 11.7898C14.8362 11.7367 14.9477 11.7095 15.0607 11.7107C15.1737 11.7095 15.2853 11.7367 15.3853 11.7898C15.4854 11.843 15.5708 11.9204 15.6339 12.0152C15.7329 12.1671 15.8676 12.2918 16.0261 12.3782C16.1845 12.4645 16.3617 12.5098 16.5417 12.5099C16.6625 12.5091 16.7825 12.4891 16.8973 12.4507C17.1276 12.379 17.3281 12.2323 17.4673 12.0334C17.6066 11.8346 17.6768 11.5948 17.667 11.3513C17.6648 11.238 17.6897 11.1257 17.7397 11.0242C17.7897 10.9227 17.8632 10.835 17.9541 10.7685C18.045 10.702 18.1504 10.6587 18.2615 10.6424C18.3725 10.6261 18.4858 10.6372 18.5916 10.6748C18.8174 10.7552 19.0629 10.7598 19.2915 10.6879C19.5202 10.6161 19.7198 10.4716 19.8607 10.276C20.0017 10.0804 20.0764 9.84401 20.0739 9.60204C20.0713 9.36006 19.9917 9.12537 19.8467 8.9328C19.7783 8.84234 19.7327 8.73644 19.7139 8.62422C19.695 8.512 19.7034 8.39682 19.7384 8.28863C19.7734 8.18044 19.8339 8.08247 19.9147 8.00318C19.9955 7.92388 20.0942 7.86564 20.2023 7.83347C20.4311 7.76515 20.6322 7.62429 20.7758 7.43166C20.9194 7.23903 20.998 7.00484 20.9998 6.76366C21.0017 6.52247 20.9268 6.28706 20.7862 6.09218C20.6456 5.89729 20.4468 5.75325 20.219 5.68131ZM20.0977 7.43179C19.9233 7.48106 19.7635 7.57259 19.632 7.69842C19.5006 7.82426 19.4015 7.98061 19.3434 8.15391C19.2853 8.32721 19.2699 8.51222 19.2985 8.69289C19.3272 8.87357 19.399 9.04445 19.5078 9.19072C19.5979 9.31085 19.6473 9.45711 19.6488 9.60784C19.6502 9.75857 19.6036 9.90577 19.5159 10.0277C19.4281 10.1495 19.3039 10.2396 19.1615 10.2846C19.0192 10.3296 18.8663 10.3271 18.7255 10.2774C18.5555 10.2163 18.3733 10.1979 18.1947 10.2238C18.0161 10.2498 17.8464 10.3192 17.7003 10.4261C17.5541 10.533 17.4359 10.6743 17.3557 10.8377C17.2756 11.0011 17.236 11.1817 17.2403 11.364C17.2421 11.5128 17.1971 11.6583 17.1118 11.7795C17.0264 11.9008 16.9052 11.9915 16.7655 12.0385C16.6259 12.0856 16.475 12.0865 16.3348 12.0413C16.1945 11.9961 16.0721 11.907 15.9853 11.7868C15.8834 11.6361 15.7468 11.5126 15.5871 11.4272C15.4275 11.3417 15.2497 11.2968 15.0691 11.2964C14.8888 11.2964 14.7113 11.3406 14.5517 11.4253C14.3921 11.51 14.2552 11.6326 14.1529 11.7826C14.066 11.9027 13.9436 11.9918 13.8034 12.0371C13.6631 12.0823 13.5123 12.0813 13.3726 12.0343C13.233 11.9872 13.1117 11.8965 13.0264 11.7753C12.941 11.6541 12.896 11.5086 12.8978 11.3598C12.9026 11.1776 12.8635 10.997 12.7839 10.8335C12.7043 10.6701 12.5865 10.5286 12.4408 10.4212C12.2951 10.3139 12.1258 10.244 11.9474 10.2174C11.7691 10.1909 11.587 10.2086 11.4169 10.2689C11.2757 10.3184 11.1225 10.3205 10.98 10.275C10.8375 10.2295 10.7134 10.1387 10.626 10.0162C10.5386 9.89373 10.4927 9.74601 10.495 9.59501C10.4973 9.444 10.5477 9.29778 10.6387 9.17804C10.7487 9.03341 10.8222 8.86393 10.8529 8.6842C10.8836 8.50448 10.8706 8.3199 10.815 8.14637C10.7594 7.97285 10.6629 7.8156 10.5338 7.68816C10.4047 7.56073 10.2469 7.46693 10.074 7.41487C9.9309 7.3715 9.8055 7.28267 9.71634 7.16157C9.62719 7.04046 9.57904 6.89354 9.57904 6.74259C9.57904 6.59164 9.62719 6.44471 9.71634 6.32361C9.8055 6.2025 9.9309 6.11367 10.074 6.0703C10.2473 6.01874 10.4055 5.92532 10.5351 5.7981C10.6647 5.67088 10.7617 5.51369 10.8177 5.3401C10.8737 5.16652 10.8871 4.98176 10.8566 4.80179C10.8262 4.62182 10.7528 4.45205 10.6429 4.30714C10.5528 4.18701 10.5034 4.04075 10.5019 3.89002C10.5005 3.73929 10.5471 3.59209 10.6348 3.4702C10.7226 3.34831 10.8468 3.25821 10.9892 3.21324C11.1315 3.16827 11.2844 3.17081 11.4252 3.22049C11.5952 3.28155 11.7774 3.29992 11.956 3.27401C12.1346 3.2481 12.3043 3.17868 12.4504 3.07175C12.5966 2.96481 12.7148 2.82356 12.795 2.66017C12.8751 2.49678 12.9147 2.31614 12.9104 2.13384C12.9086 1.98506 12.9536 1.83956 13.0389 1.71832C13.1243 1.59709 13.2455 1.50641 13.3852 1.45936C13.5248 1.41231 13.6757 1.41133 13.8159 1.45656C13.9562 1.50179 14.0786 1.5909 14.1654 1.71102C14.2673 1.86178 14.4039 1.98522 14.5636 2.07068C14.7232 2.15613 14.901 2.20103 15.0816 2.20149C15.2619 2.2015 15.4395 2.15725 15.599 2.07255C15.7586 1.98785 15.8955 1.86523 15.9978 1.71524C16.0847 1.59513 16.2071 1.50602 16.3473 1.46079C16.4876 1.41556 16.6384 1.41653 16.7781 1.46358C16.9177 1.51063 17.039 1.60132 17.1243 1.72255C17.2097 1.84379 17.2547 1.98929 17.2529 2.13806C17.2481 2.32022 17.2872 2.50082 17.3668 2.66431C17.4464 2.82781 17.5642 2.9693 17.7099 3.07663C17.8556 3.18395 18.0249 3.25389 18.2033 3.28042C18.3816 3.30696 18.5637 3.28929 18.7338 3.22894C18.875 3.17947 19.0282 3.17733 19.1707 3.22285C19.3132 3.26837 19.4373 3.35912 19.5247 3.48163C19.6121 3.60413 19.658 3.75185 19.6557 3.90285C19.6535 4.05386 19.603 4.20008 19.512 4.31982C19.402 4.46445 19.3285 4.63393 19.2978 4.81366C19.2671 4.99338 19.2801 5.17796 19.3357 5.35149C19.3913 5.52501 19.4878 5.68226 19.6169 5.8097C19.746 5.93713 19.9038 6.03093 20.0767 6.08299C20.2222 6.12282 20.3508 6.20938 20.4433 6.32959C20.5358 6.44981 20.5871 6.59717 20.5895 6.74943C20.5918 6.90169 20.5451 7.0506 20.4564 7.17369C20.3677 7.29678 20.2418 7.38736 20.0977 7.43179Z" stroke="#CCCCCC" stroke-width="0.5" mask="url(#path-1-outside-1_591_349)"/>
<path d="M14.1128 3.37457C14.7825 3.1762 15.4986 3.18564 16.1665 3.40582L16.3286 3.46344C16.7017 3.60744 17.0475 3.81626 17.3511 4.07965C17.6981 4.3807 17.9829 4.74827 18.189 5.16071L18.312 5.4361C18.5715 6.09044 18.6308 6.81095 18.478 7.50348C18.3252 8.19599 17.9687 8.8231 17.4585 9.30426L17.231 9.50153C16.6781 9.93924 16.0086 10.1956 15.312 10.2408L15.0112 10.2476C14.309 10.2316 13.6305 10.0006 13.064 9.58942L12.8276 9.40192C12.2946 8.93948 11.9148 8.32612 11.7349 7.64508L11.6704 7.34918C11.5312 6.5508 11.6697 5.72783 12.063 5.02106L12.2212 4.76422C12.6144 4.18176 13.1738 3.73008 13.8286 3.47223L14.1128 3.37457ZM14.8892 3.9234C14.5046 3.95163 14.13 4.06039 13.7886 4.24176L13.6206 4.33844C13.2362 4.57818 12.9156 4.90771 12.6851 5.2984L12.5913 5.4693C12.3578 5.93529 12.2559 6.45825 12.2974 6.97906C12.3389 7.49973 12.5225 7.99846 12.8267 8.42047C13.1309 8.84258 13.5448 9.1713 14.022 9.37067L14.2026 9.43903C14.6292 9.58335 15.0847 9.62181 15.5308 9.55035L15.7202 9.51324C16.1586 9.41133 16.5678 9.2043 16.9116 8.90778L17.0542 8.77594C17.3755 8.45761 17.6171 8.06485 17.7573 7.63043H17.7583C17.8785 7.25796 17.9217 6.86495 17.8843 6.47614L17.8628 6.31012C17.8023 5.92188 17.6627 5.55103 17.4536 5.22125L17.3599 5.08258C17.1311 4.76489 16.8399 4.49954 16.5054 4.30231L16.3599 4.22223C15.964 4.01955 15.5262 3.9148 15.0825 3.91656L14.8892 3.9234Z" fill="#CCCCCC" stroke="#CCCCCC" stroke-width="0.25"/>
<path d="M7.92383 4.28778L7.99121 4.29462C8.01359 4.29923 8.03557 4.30597 8.05664 4.31512L8.11621 4.3493C8.13472 4.36241 8.15241 4.37756 8.16797 4.39423L8.20898 4.44794C8.22082 4.46732 8.23055 4.48799 8.23828 4.50946C8.25285 4.55004 8.25937 4.59338 8.25781 4.63641V11.402C8.25781 11.4908 8.22267 11.5762 8.16016 11.6393C8.09763 11.7025 8.01279 11.7379 7.92383 11.738H1.20898C1.14226 11.7379 1.0779 11.718 1.02344 11.6813L0.972656 11.6393C0.91014 11.5762 0.875006 11.4908 0.875 11.402V4.62372C0.875124 4.53509 0.910247 4.44949 0.972656 4.38641L1.02344 4.34442C1.07786 4.30781 1.14234 4.28782 1.20898 4.28778H7.92383ZM1.54297 11.0739H7.58984V4.96063H1.54297V11.0739Z" fill="#CCCCCC" stroke="#CCCCCC" stroke-width="0.25"/>
<path d="M7.92383 13.6659C8.01268 13.6659 8.09765 13.7015 8.16016 13.7645C8.22257 13.8276 8.25769 13.9132 8.25781 14.0018V20.7889C8.25772 20.8776 8.22259 20.9631 8.16016 21.0262C8.09764 21.0893 8.01271 21.1248 7.92383 21.1249H1.20898C1.14232 21.1248 1.07787 21.1049 1.02344 21.0682L0.972656 21.0262C0.910219 20.9631 0.875093 20.8776 0.875 20.7889V14.0018C0.875124 13.9132 0.910246 13.8276 0.972656 13.7645L1.02344 13.7225C1.07786 13.6859 1.14234 13.6659 1.20898 13.6659H7.92383ZM1.54297 20.452H7.58984V14.3387H1.54297V20.452Z" fill="#CCCCCC" stroke="#CCCCCC" stroke-width="0.25"/>
<path d="M16.9731 13.6659C17.062 13.6659 17.147 13.7015 17.2095 13.7645L17.2515 13.8163C17.2875 13.871 17.307 13.9354 17.3071 14.0018V20.7889C17.3071 20.8553 17.2875 20.9198 17.2515 20.9745L17.2095 21.0262C17.147 21.0893 17.062 21.1248 16.9731 21.1249H10.2583C10.1916 21.1248 10.1272 21.1049 10.0728 21.0682L10.022 21.0262C9.95954 20.9631 9.92441 20.8776 9.92432 20.7889V14.0018C9.92444 13.9132 9.95956 13.8276 10.022 13.7645L10.0728 13.7225C10.1272 13.6859 10.1917 13.6659 10.2583 13.6659H16.9731ZM10.5923 20.452H16.6392V14.3387H10.5923V20.452Z" fill="#CCCCCC" stroke="#CCCCCC" stroke-width="0.25"/>
</svg>
