<svg width="24" height="25" viewBox="0 0 24 25" fill="none" xmlns="http://www.w3.org/2000/svg">
<path d="M22.7501 12.04C22.7501 12.21 22.7501 12.38 22.7401 12.55C22.4901 18.15 17.9801 22.83 12.4801 23.22C7.76011 23.56 3.35011 20.83 1.50011 16.43C0.980114 15.18 1.38011 14.52 1.67011 14.24C1.95011 13.96 2.60011 13.57 3.79011 14.09C4.85011 14.55 5.98011 14.78 7.14011 14.77C11.5701 14.75 15.3301 11.07 15.5101 6.58001C15.5401 5.93001 15.4901 5.29001 15.3801 4.67001C15.1401 3.35001 15.6701 2.8 16.0101 2.59001C16.3501 2.38001 17.0801 2.14001 18.1601 2.94001C21.0601 5.06 22.7501 8.43001 22.7501 12.04ZM12.3701 21.73C17.1301 21.39 21.0301 17.33 21.2401 12.49C21.4001 9.2 19.9001 6.08 17.2801 4.16C17.0701 4.01001 16.9201 3.94001 16.8401 3.91C16.8301 4.00001 16.8201 4.16 16.8701 4.41C17.0001 5.14 17.0501 5.9 17.0201 6.65C16.8101 11.93 12.3801 16.25 7.16011 16.28C5.78011 16.28 4.45011 16.01 3.20011 15.46C2.98011 15.36 2.83011 15.34 2.75011 15.33C2.75011 15.42 2.77011 15.58 2.88011 15.84C4.48011 19.65 8.30011 22.01 12.3701 21.73Z" fill="white"/>
</svg>
