<svg width="72" height="72" viewBox="0 0 72 72" fill="none" xmlns="http://www.w3.org/2000/svg">
<circle cx="36" cy="36" r="36" fill="white"/>
<g clip-path="url(#clip0_223_252)">
<path d="M47.3456 49.0744L37.7388 31.6958L39.7062 28.5339L53.3088 52.6649H17.8447L15.542 49.071H47.3456V49.0744ZM21.1699 43.2703L21.0853 43.4086L41.4976 43.3783L43.3566 46.7393H15.4607L33.5501 16.3351H37.7253L21.1699 43.2703ZM31.9111 41.0566L36.3065 33.9938L40.204 41.0431L31.9077 41.0566H31.9111ZM29.1242 41.06L25.2978 41.0667L39.8011 17.4723L57.2944 47.6537L55.2965 51.3792L39.8857 24.0391L39.8078 23.9041L29.1208 41.0634L29.1242 41.06ZM41.1826 15.1372L40.5223 14H32.1888L12 47.9305L16.5376 55.0034H56.0415L59.9797 47.6605L60.0034 47.6166L41.1826 15.1372Z" fill="#009CC9"/>
</g>
<defs>
<clipPath id="clip0_223_252">
<rect width="48" height="41" fill="white" transform="translate(12 14)"/>
</clipPath>
</defs>
</svg>
