<svg width="78" height="78" viewBox="0 0 78 78" fill="none" xmlns="http://www.w3.org/2000/svg">
<circle cx="39" cy="39" r="39" fill="#D4EDED"/>
<path fill-rule="evenodd" clip-rule="evenodd" d="M53.9993 35.4781C53.9993 34.6492 54.6707 33.9777 55.4997 33.9777C56.3286 33.9777 57 34.6492 57 35.4781V55.4986C57 56.3276 56.3286 56.999 55.4997 56.999H23.4999C22.671 56.999 21.9995 56.3276 21.9995 55.4986V23.5004C21.9995 22.6714 22.671 22 23.4999 22H43.5204C44.3493 22 45.0208 22.6714 45.0208 23.5004C45.0208 24.3293 44.3493 25.0007 43.5204 25.0007L24.999 24.9993V53.9981H53.9979V35.4782L53.9993 35.4781ZM55.4997 27.9897H51.0103L51.0088 23.5004C51.0088 22.6714 50.3374 22 49.5084 22C48.6795 22 48.0081 22.6714 48.0081 23.5004V27.9897H43.5187C42.6898 27.9897 42.0183 28.6612 42.0183 29.4901C42.0183 30.319 42.6898 30.9905 43.5187 30.9905H48.0081V35.4798C48.0081 36.3088 48.6795 36.9802 49.5084 36.9802C50.3374 36.9802 51.0088 36.3088 51.0088 35.4798V30.9905H55.4982C56.3271 30.9905 56.9986 30.319 56.9986 29.4901C56.9986 28.6612 56.3271 27.9897 55.4982 27.9897H55.4997Z" fill="#5AC2BF"/>
</svg>
