<svg width="21" height="25" viewBox="0 0 21 25" fill="none" xmlns="http://www.w3.org/2000/svg">
<path d="M16.2568 0.924805C16.5944 0.924864 16.8662 1.20027 16.8662 1.53906V7.55664L19.957 8.88184L20.0439 8.91895C20.2376 9.02188 20.37 9.22746 20.3701 9.46289V13.2588C20.37 16.1453 17.8797 17.4617 16.8652 17.8789V18.9512H19.834C20.1713 18.9514 20.4432 19.2269 20.4434 19.5654V23.4609C20.4434 23.7573 20.2352 24.005 19.957 24.0625L19.834 24.0752L5.60547 24.0742H1.53516C1.19755 24.0742 0.924805 23.7988 0.924805 23.46V1.53906C0.924805 1.20026 1.19752 0.924805 1.53516 0.924805H16.2568ZM2.14453 22.8457H4.99609V19.5645C4.99612 19.2258 5.26807 18.9505 5.60547 18.9502H15.6465V17.8779C14.6321 17.4606 12.1418 16.1452 12.1416 13.2578V9.38672H12.1494C12.1753 9.17769 12.3069 8.98731 12.5137 8.89844L15.6455 7.55664V2.15332H2.14453V22.8457ZM6.21582 22.8447H19.2236V20.1777H6.21582V22.8447ZM13.3633 9.86621V13.2578C13.3633 14.4281 13.9342 15.2591 14.5869 15.8281C15.2233 16.3829 15.9348 16.6839 16.2568 16.8027C16.5793 16.6842 17.2899 16.3835 17.9258 15.8291C18.5785 15.2599 19.1494 14.4283 19.1494 13.2578V9.86621L16.2559 8.62793L13.3633 9.86621ZM13.8096 4.28027C14.1472 4.28027 14.4199 4.5557 14.4199 4.89453C14.4197 5.23317 14.1471 5.50781 13.8096 5.50781H3.98145C3.64398 5.50781 3.37132 5.23317 3.37109 4.89453C3.37109 4.5557 3.64381 4.28027 3.98145 4.28027H13.8096Z" fill="#CCCCCC" stroke="#CCCCCC" stroke-width="0.15"/>
</svg>
