<svg width="78" height="78" viewBox="0 0 78 78" fill="none" xmlns="http://www.w3.org/2000/svg">
<circle cx="39" cy="39" r="39" fill="#D4EDED"/>
<path d="M59.6527 35.0372C60.82 35.0372 61.2501 36.3889 60.5743 37.2491C59.0997 38.9694 57.6251 40.6283 56.1505 42.3487C55.7204 42.8402 54.7988 42.8402 54.3073 42.3487C52.8327 40.6283 51.3581 38.9694 49.8835 37.2491C48.9619 36.2046 50.1293 34.73 51.1738 35.0372C52.0954 35.0372 52.9556 35.0372 53.8772 35.0372C52.4026 29.1389 47.9174 24.285 41.8348 22.9333C40.6674 22.6875 39.5 22.5647 38.3326 22.5647C32.4343 22.5647 26.9661 25.821 24.0783 31.1664C23.2796 32.641 21.0677 31.3507 21.8665 29.8761C25.7987 22.749 34.0318 18.6324 42.0805 20.4142C49.3306 21.9503 54.9831 27.7872 56.4577 35.0372C57.5022 35.0372 58.5467 35.0372 59.6527 35.0372Z" fill="#5AC2BF"/>
<path d="M18.2428 42.9016C17.0754 42.9016 16.6453 41.5499 17.3212 40.6897C18.7958 38.9694 20.2703 37.3105 21.7449 35.5901C22.175 35.0986 23.0966 35.0986 23.5882 35.5901C25.0627 37.3105 26.5373 38.9694 28.0119 40.6897C28.9335 41.7342 27.7661 43.2088 26.7216 42.9016C25.8 42.9016 24.9399 42.9016 24.0182 42.9016C25.4928 48.7999 29.978 53.6538 36.0607 55.0055C37.2281 55.2513 38.3954 55.3741 39.5628 55.3741C45.4611 55.3741 50.9294 52.1178 53.8171 46.7724C54.6158 45.2978 56.8277 46.5881 56.029 48.0627C52.0968 55.2513 43.8637 59.3678 35.8149 57.586C28.5649 55.9885 22.8509 50.1517 21.3763 42.9016C20.3318 42.9016 19.2873 42.9016 18.2428 42.9016Z" fill="#5AC2BF"/>
</svg>
