<svg width="78" height="78" viewBox="0 0 78 78" fill="none" xmlns="http://www.w3.org/2000/svg">
<rect width="78" height="78" rx="39" fill="#202F46"/>
<g clip-path="url(#clip0_438_3855)">
<path d="M50.6105 54.0744L40.66 36.6958L42.6978 33.5339L56.7871 57.6649H20.0538L17.6688 54.071H50.6105V54.0744ZM23.4981 48.2703L23.4104 48.4086L44.5532 48.3783L46.4788 51.7393H17.5846L36.3213 21.3351H40.6459L23.4981 48.2703ZM34.6237 46.0566L39.1763 38.9938L43.2134 46.0431L34.6202 46.0566H34.6237ZM31.7371 46.06L27.7737 46.0667L42.796 22.4723L60.9154 52.6537L58.846 56.3792L42.8837 29.0391L42.803 28.9041L31.7336 46.0634L31.7371 46.06ZM44.227 20.1372L43.5431 19H34.9113L14 52.9305L18.7 60.0034H59.6176L63.6968 52.6605L63.7213 52.6166L44.227 20.1372Z" fill="#979EA9"/>
</g>
<defs>
<clipPath id="clip0_438_3855">
<rect width="49.7178" height="41" fill="white" transform="translate(14 19)"/>
</clipPath>
</defs>
</svg>
