<svg width="20" height="21" viewBox="0 0 20 21" fill="none" xmlns="http://www.w3.org/2000/svg">
<path d="M17.0673 0.966431H12.4338C12.0232 0.966431 11.73 1.32679 11.73 1.68715C11.73 2.04751 12.0819 2.40787 12.4338 2.40787H17.0673C17.8884 2.40787 18.5336 2.94841 18.5336 3.60907V18.3238C18.5336 18.9844 17.8884 19.525 17.0673 19.525H12.4338C12.0232 19.525 11.73 19.8853 11.73 20.2457C11.73 20.6061 12.0819 20.9664 12.4338 20.9664H17.0673C18.7096 20.9664 19.9999 19.7652 19.9999 18.2637V3.66913C19.9999 2.16763 18.6509 0.966431 17.0673 0.966431Z" fill="#CCCCCC"/>
<path d="M15.7188 11.2968C15.7188 11.0565 15.6601 10.8764 15.4842 10.7562L10.4987 5.65113C10.2055 5.35083 9.73625 5.35083 9.44299 5.65113C9.14973 5.95143 9.14973 6.43191 9.44299 6.73221L13.1967 10.5761H0.703825C0.29326 10.5761 0 10.9364 0 11.2968C0 11.6571 0.351912 12.0175 0.703825 12.0175H13.1967L9.38434 15.9214C9.09108 16.2217 9.09108 16.7022 9.38434 17.0025C9.50164 17.1226 9.73625 17.2427 9.9122 17.2427C10.0882 17.2427 10.2641 17.1827 10.4401 17.0025L15.4255 11.8974C15.6015 11.7172 15.7188 11.537 15.7188 11.2968Z" fill="#CCCCCC"/>
</svg>
