<svg width="25" height="25" viewBox="0 0 25 25" fill="none" xmlns="http://www.w3.org/2000/svg">
<path d="M12.5 19.75C8.5 19.75 5.25 16.5 5.25 12.5C5.25 8.5 8.5 5.25 12.5 5.25C16.5 5.25 19.75 8.5 19.75 12.5C19.75 16.5 16.5 19.75 12.5 19.75ZM12.5 6.75C9.33 6.75 6.75 9.33 6.75 12.5C6.75 15.67 9.33 18.25 12.5 18.25C15.67 18.25 18.25 15.67 18.25 12.5C18.25 9.33 15.67 6.75 12.5 6.75Z" fill="white"/>
<path d="M12.5 23.46C11.95 23.46 11.5 23.05 11.5 22.5V22.42C11.5 21.87 11.95 21.42 12.5 21.42C13.05 21.42 13.5 21.87 13.5 22.42C13.5 22.97 13.05 23.46 12.5 23.46ZM19.64 20.64C19.38 20.64 19.13 20.54 18.93 20.35L18.8 20.22C18.41 19.83 18.41 19.2 18.8 18.81C19.19 18.42 19.82 18.42 20.21 18.81L20.34 18.94C20.73 19.33 20.73 19.96 20.34 20.35C20.15 20.54 19.9 20.64 19.64 20.64ZM5.36 20.64C5.1 20.64 4.85 20.54 4.65 20.35C4.26 19.96 4.26 19.33 4.65 18.94L4.78 18.81C5.17 18.42 5.8 18.42 6.19 18.81C6.58 19.2 6.58 19.83 6.19 20.22L6.06 20.35C5.87 20.54 5.61 20.64 5.36 20.64ZM22.5 13.5H22.42C21.87 13.5 21.42 13.05 21.42 12.5C21.42 11.95 21.87 11.5 22.42 11.5C22.97 11.5 23.46 11.95 23.46 12.5C23.46 13.05 23.05 13.5 22.5 13.5ZM2.58 13.5H2.5C1.95 13.5 1.5 13.05 1.5 12.5C1.5 11.95 1.95 11.5 2.5 11.5C3.05 11.5 3.54 11.95 3.54 12.5C3.54 13.05 3.13 13.5 2.58 13.5ZM19.51 6.49C19.25 6.49 19 6.39 18.8 6.2C18.41 5.81 18.41 5.18 18.8 4.79L18.93 4.66C19.32 4.27 19.95 4.27 20.34 4.66C20.73 5.05 20.73 5.68 20.34 6.07L20.21 6.2C20.02 6.39 19.77 6.49 19.51 6.49ZM5.49 6.49C5.23 6.49 4.98 6.39 4.78 6.2L4.65 6.06C4.26 5.67 4.26 5.04 4.65 4.65C5.04 4.26 5.67 4.26 6.06 4.65L6.19 4.78C6.58 5.17 6.58 5.8 6.19 6.19C6 6.39 5.74 6.49 5.49 6.49ZM12.5 3.54C11.95 3.54 11.5 3.13 11.5 2.58V2.5C11.5 1.95 11.95 1.5 12.5 1.5C13.05 1.5 13.5 1.95 13.5 2.5C13.5 3.05 13.05 3.54 12.5 3.54Z" fill="white"/>
</svg>
