<svg width="78" height="78" viewBox="0 0 78 78" fill="none" xmlns="http://www.w3.org/2000/svg">
<circle cx="39" cy="39" r="39" fill="#202F46"/>
<path fill-rule="evenodd" clip-rule="evenodd" d="M53.9998 35.4781C53.9998 34.6492 54.6712 33.9777 55.5002 33.9777C56.3291 33.9777 57.0005 34.6492 57.0005 35.4781V55.4986C57.0005 56.3276 56.3291 56.999 55.5002 56.999H23.5004C22.6714 56.999 22 56.3276 22 55.4986V23.5004C22 22.6714 22.6714 22 23.5004 22H43.5209C44.3498 22 45.0213 22.6714 45.0213 23.5004C45.0213 24.3293 44.3498 25.0007 43.5209 25.0007L24.9995 24.9993V53.9981H53.9984V35.4782L53.9998 35.4781ZM55.5002 27.9897H51.0108L51.0093 23.5004C51.0093 22.6714 50.3379 22 49.5089 22C48.68 22 48.0086 22.6714 48.0086 23.5004V27.9897H43.5192C42.6903 27.9897 42.0188 28.6612 42.0188 29.4901C42.0188 30.319 42.6903 30.9905 43.5192 30.9905H48.0086V35.4798C48.0086 36.3088 48.68 36.9802 49.5089 36.9802C50.3379 36.9802 51.0093 36.3088 51.0093 35.4798V30.9905H55.4987C56.3276 30.9905 56.999 30.319 56.999 29.4901C56.999 28.6612 56.3276 27.9897 55.4987 27.9897H55.5002Z" fill="#979EA9"/>
</svg>
